<?xml version="1.0" standalone="no"?>
<!DOCTYPE svg PUBLIC "-//W3C//DTD SVG 1.1//EN" "http://www.w3.org/Graphics/SVG/1.1/DTD/svg11.dtd" >
<svg xmlns="http://www.w3.org/2000/svg" xmlns:xlink="http://www.w3.org/1999/xlink" version="1.1">
<metadata></metadata>
<defs>
<font id="mullerlight" horiz-adv-x="582" >
<font-face units-per-em="1000" ascent="780" descent="-220" />
<missing-glyph horiz-adv-x="257" />
<glyph unicode=" "  horiz-adv-x="257" />
<glyph unicode="&#x09;" horiz-adv-x="257" />
<glyph unicode="&#xa0;" horiz-adv-x="257" />
<glyph unicode="!" horiz-adv-x="216" d="M133 189h-50l-5 511h59zM147 30q0 -18 -11 -28t-28 -10t-28 10t-11 28t11 28t28 10t28 -10t11 -28z" />
<glyph unicode="&#x22;" horiz-adv-x="292" d="M220 540h-40v160h55zM106 540h-40v160h55z" />
<glyph unicode="#" horiz-adv-x="650" d="M140 0h-57l42 179h-86v50h98l53 223h-101v50h113l42 179h57l-42 -179h210l42 179h57l-42 -179h85v-50h-97l-53 -223h100v-50h-112l-42 -179h-57l42 179h-210zM247 452l-53 -223h211l53 223h-211z" />
<glyph unicode="$" horiz-adv-x="573" d="M306 -130h-50v120q-119 8 -208 58v59q106 -62 241 -62q186 0 186 121q0 42 -23.5 71.5t-61 45.5t-82.5 29t-90.5 27t-83 33.5t-61 55t-23.5 85.5q0 80 58.5 125t147.5 52v120h50v-119q109 -7 185 -49v-60q-86 53 -203 53q-79 0 -128.5 -29.5t-49.5 -90.5 q0 -40 23.5 -67.5t61 -43t82.5 -28t90.5 -27t83 -34.5t61 -57t23.5 -88q0 -91 -64 -135t-165 -46v-119z" />
<glyph unicode="%" horiz-adv-x="885" d="M267 -60h-57l409 820h57zM348 560q0 -70 -45.5 -110.5t-110.5 -40.5q-66 0 -112 40.5t-46 110.5t46 110.5t112 40.5q65 0 110.5 -40.5t45.5 -110.5zM88 560q0 -45 28.5 -73t75.5 -28q46 0 74 28t28 73t-28 73t-74 28q-47 0 -75.5 -28t-28.5 -73zM851 140 q0 -70 -45.5 -110.5t-110.5 -40.5q-66 0 -112 40.5t-46 110.5t46 110.5t112 40.5q65 0 110.5 -40.5t45.5 -110.5zM591 140q0 -45 28.5 -73t75.5 -28q46 0 74 28t28 73t-28 73t-74 28q-47 0 -75.5 -28t-28.5 -73z" />
<glyph unicode="&#x26;" horiz-adv-x="695" d="M560 116l127 -116h-72l-88 79q-97 -90 -245 -90q-107 0 -168.5 49.5t-61.5 126.5q0 112 156 203q-92 90 -92 170q0 72 59 122.5t150 50.5q80 0 130 -40.5t50 -105.5q0 -34 -17.5 -65t-49.5 -56t-61.5 -43t-67.5 -38l-12 -6l221 -202q54 72 52 166h59q0 -115 -69 -205z M324 657q-68 0 -109 -35t-41 -85q0 -62 83 -143q102 52 134 78q55 45 56 89q0 44 -33 70t-90 26zM111 168q0 -57 46 -91t129 -34q120 0 199 74l-237 213q-61 -35 -99 -73t-38 -89z" />
<glyph unicode="'" horiz-adv-x="178" d="M106 540h-40v160h55z" />
<glyph unicode="(" horiz-adv-x="271" d="M194 809h56q-66 -95 -103 -217.5t-37 -241.5t37 -241.5t103 -217.5h-56q-68 97 -107.5 218.5t-39.5 240.5t39.5 240.5t107.5 218.5z" />
<glyph unicode=")" horiz-adv-x="272" d="M22 809h56q68 -97 107.5 -218.5t39.5 -240.5t-39.5 -240.5t-107.5 -218.5h-56q65 95 102 217.5t37 241.5t-37 241.5t-102 217.5z" />
<glyph unicode="*" horiz-adv-x="436" d="M218 510l-79 -119l-43 30l87 110l-133 37l19 50l128 -49l-5 131h52l-6 -131l129 49l18 -50l-132 -37l87 -110l-43 -30z" />
<glyph unicode="+" horiz-adv-x="533" d="M294 377h191v-54h-191v-192h-54v192h-192v54h192v192h54v-192z" />
<glyph unicode="," horiz-adv-x="215" d="M76 -147h-47l53 224h60z" />
<glyph unicode="-" horiz-adv-x="485" d="M67 273h351v-54h-351v54z" />
<glyph unicode="." horiz-adv-x="206" d="M143 31q0 -18 -11.5 -28.5t-28.5 -10.5t-28.5 10.5t-11.5 28.5t11.5 28.5t28.5 10.5t28.5 -10.5t11.5 -28.5z" />
<glyph unicode="/" horiz-adv-x="414" d="M79 -58h-43l298 816h43z" />
<glyph unicode="0" horiz-adv-x="704" d="M55 340q0 159 75 255t222 96t222 -96t75 -255t-75 -255t-222 -96t-222 96t-75 255zM589 340q0 139 -59.5 217t-177.5 78t-177.5 -78t-59.5 -217t59.5 -217t177.5 -78t177.5 78t59.5 217z" />
<glyph unicode="1" horiz-adv-x="418" d="M219 680h43v-623h133v-57h-341v57h149v559l-149 -56v57z" />
<glyph unicode="2" horiz-adv-x="568" d="M70 627q95 64 212 64q102 0 164 -46.5t62 -128.5q0 -41 -15.5 -76.5t-47.5 -65t-59 -49t-73 -46.5q-99 -59 -128 -82q-73 -61 -74 -141l403 1v-57h-468v30q0 57 17.5 102t53 78.5t67 55.5t79.5 49q3 1 4.5 2t4 2.5t4.5 2.5q38 22 53.5 32t44.5 31.5t41 37.5t22.5 41 t10.5 53q0 56 -45.5 87.5t-124.5 31.5q-108 0 -208 -68v59z" />
<glyph unicode="3" horiz-adv-x="586" d="M505 509q0 -54 -30.5 -96.5t-83.5 -56.5q60 -15 101 -58t41 -116q0 -92 -67.5 -142.5t-172.5 -50.5q-141 0 -237 44v59q97 -48 232 -47q86 0 137 35t51 105q0 72 -50.5 105t-133.5 33h-101v57l95 -1q79 0 120.5 35.5t41.5 89.5q0 59 -46.5 95.5t-128.5 36.5 q-108 0 -205 -49v58q94 46 212 46q102 0 163.5 -51.5t61.5 -130.5z" />
<glyph unicode="4" horiz-adv-x="641" d="M410 680h65v-466h135v-55h-135v-159h-59v159h-389v53zM416 214v386l-315 -386h315z" />
<glyph unicode="5" horiz-adv-x="576" d="M97 680h399v-57h-343l-15 -234q66 20 137 20q69 0 124 -19.5t92.5 -68.5t37.5 -122q0 -96 -70.5 -153t-183.5 -57q-126 0 -218 46v56q92 -47 211 -47q92 0 146.5 41t54.5 114q0 82 -59.5 119t-153.5 37q-88 0 -181 -32z" />
<glyph unicode="6" horiz-adv-x="615" d="M115 333q104 85 229 85q93 0 161 -55.5t68 -155.5q0 -102 -68 -160t-170 -58q-139 0 -209 88.5t-70 247.5q0 184 82.5 275t221.5 91q86 0 156 -38v-56q-71 38 -155 38q-110 0 -177 -72.5t-69 -229.5zM117 272q10 -112 65 -170t149 -58q80 0 131 40.5t51 120.5 q0 81 -51.5 119.5t-131.5 38.5q-125 0 -213 -91z" />
<glyph unicode="7" horiz-adv-x="528" d="M31 680h477v-53l-300 -627h-64l298 623h-411v57z" />
<glyph unicode="8" horiz-adv-x="645" d="M77 521q0 70 62 120t182 50q112 0 178.5 -54t68.5 -127q1 -54 -26 -101t-77 -79q127 -56 127 -161q0 -75 -68 -127.5t-199 -52.5q-130 0 -201 56t-71 140q0 55 32 106t93 84q-101 52 -101 146zM327 319q-61 17 -98 31q-56 -25 -86.5 -68t-30.5 -91q0 -67 55 -107t159 -40 q93 0 150 35t57 87q0 27 -11.5 49t-26 35.5t-45 27t-50 20t-59.5 17.5q-9 3 -14 4zM509 500q0 56 -50 96t-139 40q-87 0 -135 -33t-48 -82q0 -27 11.5 -48.5t25.5 -34.5t41.5 -25.5t45 -18.5t50.5 -15q9 -3 14 -4q12 -4 42 -12t46 -13q96 54 96 150z" />
<glyph unicode="9" horiz-adv-x="614" d="M42 473q0 102 67.5 160t169.5 58q139 0 209.5 -89t70.5 -247q0 -184 -82.5 -275t-221.5 -91q-88 0 -156 38v56q71 -38 154 -38q110 0 177 72.5t69 229.5q-103 -85 -228 -85q-93 0 -161 55.5t-68 155.5zM102 475q0 -81 51.5 -119.5t131.5 -38.5q124 0 212 90 q-10 112 -65 170.5t-149 58.5q-80 0 -130.5 -41t-50.5 -120z" />
<glyph unicode=":" horiz-adv-x="214" d="M147 397q0 -19 -11.5 -29t-28.5 -10t-28.5 10t-11.5 29q0 18 11.5 28.5t28.5 10.5t28.5 -10.5t11.5 -28.5zM147 31q0 -18 -11.5 -28.5t-28.5 -10.5t-28.5 10.5t-11.5 28.5t11.5 28.5t28.5 10.5t28.5 -10.5t11.5 -28.5z" />
<glyph unicode=";" horiz-adv-x="282" d="M116 -147h-47l53 224h60zM181 436q0 -19 -11.5 -29t-28.5 -10t-28.5 10t-11.5 29q0 18 11.5 28.5t28.5 10.5t28.5 -10.5t11.5 -28.5z" />
<glyph unicode="&#x3c;" horiz-adv-x="484" d="M412 221v-56l-368 156v58l368 156v-56l-310 -129z" />
<glyph unicode="=" horiz-adv-x="549" d="M479 414h-409v54h409v-54zM479 232h-409v54h409v-54z" />
<glyph unicode="&#x3e;" horiz-adv-x="484" d="M440 321l-368 -156v56l310 129l-310 129v56l368 -156v-58z" />
<glyph unicode="?" horiz-adv-x="490" d="M260 199h-57q0 44 29.5 91.5t65 82.5t65 80.5t29.5 87.5q0 57 -45 85.5t-125 28.5q-92 0 -184 -55v57q87 54 193 54q99 0 160 -43t61 -122q0 -40 -20 -79.5t-48 -72t-56 -63.5t-48 -65.5t-20 -66.5zM271 31q0 -18 -11.5 -28.5t-28.5 -10.5t-28.5 10.5t-11.5 28.5 t11.5 28.5t28.5 10.5t28.5 -10.5t11.5 -28.5z" />
<glyph unicode="@" horiz-adv-x="1054" d="M47 240q0 92 33 176t93 150t154 105.5t208 39.5q110 0 201.5 -40t148 -104t87 -139t30.5 -149q0 -132 -52 -201t-137 -69q-60 0 -99 29.5t-49 85.5q-23 -43 -66 -68t-95 -25q-84 0 -139.5 58t-55.5 148q0 91 55.5 149.5t139.5 58.5q52 0 93.5 -25t61.5 -62v78h56v-272 q0 -105 99 -105q61 0 94.5 59t33.5 161q0 66 -27 131.5t-76 120.5t-128.5 89.5t-175.5 34.5q-132 0 -231.5 -59.5t-148.5 -152.5t-49 -203q0 -129 63 -224.5t165 -143t226 -47.5q119 0 221 36v-56q-97 -36 -222 -36q-102 0 -194 31t-163 89t-113 149t-42 202zM659 283 q-14 46 -53.5 78t-95.5 32q-61 0 -103 -43t-42 -112t42 -112t103 -43q56 0 95.5 32t53.5 78v90z" />
<glyph unicode="A" horiz-adv-x="713" d="M75 0h-64l312 700h67l311 -700h-64l-83 188h-395zM347 617l-165 -373h348l-165 373q-3 8 -9 22q-6 -14 -9 -22z" />
<glyph unicode="B" horiz-adv-x="684" d="M97 700h272q110 0 173.5 -44.5t63.5 -131.5q0 -65 -36.5 -104.5t-89.5 -51.5q62 -13 107.5 -55t46.5 -123q0 -46 -18 -81.5t-44.5 -55.5t-63.5 -32.5t-69 -16.5t-68 -4h-274v700zM574 196q0 140 -185 140h-232v-279h203q35 0 60 2t56 10t51 22t33.5 41t13.5 64zM546 516 q0 127 -181 127h-208v-251h237q65 0 108.5 30.5t43.5 93.5z" />
<glyph unicode="C" horiz-adv-x="656" d="M50 343q0 88 31.5 160t83.5 116.5t116 68t133 23.5q110 0 196 -47v-60q-79 51 -187 51q-59 0 -113.5 -19.5t-100 -56.5t-72.5 -98t-27 -138q0 -73 27.5 -131.5t73 -94t101 -54t114.5 -18.5q112 0 191 51v-59q-88 -48 -203 -48q-67 0 -131 23t-116.5 65.5t-84.5 111.5 t-32 154z" />
<glyph unicode="D" horiz-adv-x="735" d="M97 700h217q181 0 276 -96t95 -254t-95 -254t-276 -96h-217v700zM626 350q0 136 -79.5 214.5t-231.5 78.5h-158v-586h158q152 0 231.5 78.5t79.5 214.5z" />
<glyph unicode="E" horiz-adv-x="621" d="M97 700h465v-57h-406v-262h376v-57h-376v-267h413v-57h-472v700z" />
<glyph unicode="F" horiz-adv-x="600" d="M97 700h467v-57h-408v-273h379v-57h-379v-313h-59v700z" />
<glyph unicode="G" horiz-adv-x="707" d="M49 350q0 89 31.5 159.5t84.5 113.5t118 65.5t136 22.5q115 0 207 -46v-60q-83 50 -199 50q-61 0 -116 -18t-101 -53t-73.5 -95.5t-27.5 -138.5q0 -80 27.5 -141t74.5 -95.5t102.5 -51.5t117.5 -17q84 0 153 32v292h60v-333q-100 -47 -217 -47q-74 0 -139.5 20.5 t-120 61.5t-86.5 113t-32 166z" />
<glyph unicode="H" horiz-adv-x="766" d="M610 700h59v-700h-59v323h-454v-323h-59v700h59v-320h454v320z" />
<glyph unicode="I" horiz-adv-x="253" d="M97 700h59v-700h-59v700z" />
<glyph unicode="J" horiz-adv-x="516" d="M150 700h275v-508q0 -101 -61 -151.5t-161 -50.5q-111 0 -180 43v59q67 -45 170 -45q173 0 173 147v449h-216v57z" />
<glyph unicode="K" horiz-adv-x="660" d="M156 0h-59v700h59v-314h183l226 314h68l-245 -341l269 -359h-69l-247 330h-185v-330z" />
<glyph unicode="L" horiz-adv-x="577" d="M97 700h59v-643h405v-57h-464v700z" />
<glyph unicode="M" horiz-adv-x="901" d="M754 700h50v-700h-59v586l-276 -408h-37l-276 408v-586h-59v700h50l304 -449z" />
<glyph unicode="N" horiz-adv-x="766" d="M156 0h-59v700h54l459 -599v60v539h59v-700h-54l-459 600v-60v-540z" />
<glyph unicode="O" horiz-adv-x="824" d="M48 350q0 68 23 131.5t67 115.5t115 83t159 31t159 -31t115 -83t67 -115.5t23 -131.5t-23 -131.5t-67 -115.5t-115 -83t-159 -31t-159 31t-115 83t-67 115.5t-23 131.5zM716 350q0 79 -32 146.5t-103 113t-169 45.5t-169 -45.5t-103 -113t-32 -146.5t32 -146.5t103 -113 t169 -45.5t169 45.5t103 113t32 146.5z" />
<glyph unicode="P" horiz-adv-x="656" d="M97 700h230q295 0 295 -222q0 -223 -295 -223h-171v-255h-59v700zM562 478q0 92 -62.5 128.5t-169.5 36.5h-173v-331h173q232 0 232 166z" />
<glyph unicode="Q" horiz-adv-x="824" d="M777 -22l-39 -38l-111 111q-91 -62 -215 -62q-88 0 -159 31t-115 83t-67 115.5t-23 131.5t23 131.5t67 115.5t115 83t159 31t159 -31t115 -83t67 -115.5t23 -131.5q0 -161 -107 -265zM108 350q0 -79 32 -146.5t103 -113t169 -45.5q97 0 173 48l-139 139l38 38l143 -143 q89 86 89 223q0 79 -32 146.5t-103 113t-169 45.5t-169 -45.5t-103 -113t-32 -146.5z" />
<glyph unicode="R" horiz-adv-x="690" d="M156 0h-59v700h269q49 0 92 -11t81 -34t60.5 -65t22.5 -98q0 -93 -58 -143t-144 -61l249 -288h-74l-244 283h-195v-283zM157 643v-303h213q80 0 136 36t56 116t-55.5 115.5t-136.5 35.5h-213z" />
<glyph unicode="S" horiz-adv-x="577" d="M54 533q0 86 67 132t164 46q121 0 206 -49v-60q-84 53 -202 53q-77 0 -126 -29.5t-49 -90.5q0 -40 23.5 -68.5t61 -46t83 -32t91 -31t83 -38.5t61 -60t23.5 -89q0 -63 -36 -105t-90 -59.5t-122 -16.5q-132 0 -239 59v59q106 -62 235 -62q85 0 138.5 29t53.5 92 q0 42 -23.5 72.5t-61 48.5t-83 33t-91 31.5t-83 37.5t-61 57.5t-23.5 86.5z" />
<glyph unicode="T" horiz-adv-x="599" d="M14 700h571v-57h-256v-643h-59v643h-256v57z" />
<glyph unicode="U" horiz-adv-x="751" d="M603 700h59v-450q0 -137 -79 -199t-207 -62q-61 0 -111 14t-90.5 43t-63 81t-22.5 123v450h59v-448q0 -207 228 -207q227 0 227 207v448z" />
<glyph unicode="V" horiz-adv-x="685" d="M373 0h-61l-297 700h64l263 -633l264 633h64z" />
<glyph unicode="W" horiz-adv-x="998" d="M914 700h65l-222 -700h-66l-192 598l-193 -598h-65l-222 700h65l190 -626l198 623h54l198 -623z" />
<glyph unicode="X" horiz-adv-x="629" d="M77 0h-71l273 360l-258 340h71l223 -293l223 293h70l-258 -340l273 -360h-70l-238 313z" />
<glyph unicode="Y" horiz-adv-x="644" d="M352 0h-60v273l-275 427h66l239 -373l239 373h66l-275 -427v-273z" />
<glyph unicode="Z" horiz-adv-x="580" d="M548 0h-517v53l433 590h-419v57h491v-53l-434 -590h446v-57z" />
<glyph unicode="[" horiz-adv-x="264" d="M240 -110h-167v920h167v-57h-108v-806h108v-57z" />
<glyph unicode="\" horiz-adv-x="414" d="M378 -58h-43l-298 816h43z" />
<glyph unicode="]" horiz-adv-x="265" d="M192 -110h-167v57h107v806h-107v57h167v-920z" />
<glyph unicode="^" horiz-adv-x="515" d="M115 390h-64l182 310h50l181 -310h-63l-143 247z" />
<glyph unicode="_" horiz-adv-x="443" d="M443 -140h-443v54h443v-54z" />
<glyph unicode="`" horiz-adv-x="177" d="M161 773h-63l-98 142h71z" />
<glyph unicode="a" horiz-adv-x="542" d="M455 87q0 -42 43 -42q16 0 37 7v-46q-27 -10 -52 -10q-76 0 -83 74q-75 -81 -197 -81q-69 0 -118 36.5t-49 105.5q0 82 62 119.5t150 37.5q77 0 151 -21v32q0 64 -40 102t-113 38q-92 0 -172 -34v56q85 30 178 30q96 0 149.5 -52t53.5 -147v-205zM94 134q0 -47 35 -71.5 t85 -24.5q55 0 104 24.5t81 69.5v88q-76 20 -143 20q-68 0 -115 -25.5t-47 -80.5z" />
<glyph unicode="b" horiz-adv-x="618" d="M78 700h57v-313q30 45 81 74.5t118 29.5q103 0 171 -70.5t68 -180.5t-68 -180.5t-171 -70.5q-129 0 -205 110v-99h-51v700zM516 240q0 91 -53.5 145t-135.5 54q-67 0 -119 -38.5t-74 -95.5v-130q22 -57 74 -95.5t119 -38.5q81 0 135 54.5t54 144.5z" />
<glyph unicode="c" horiz-adv-x="494" d="M45 237q0 84 39.5 143.5t96.5 85t123 25.5q88 0 145 -39v-55q-56 42 -138 42q-86 0 -147.5 -51t-61.5 -150q0 -95 59.5 -146t143.5 -51q83 0 149 39v-57q-68 -34 -157 -34q-102 0 -177 64t-75 184z" />
<glyph unicode="d" horiz-adv-x="618" d="M484 700h56v-700h-51v99q-74 -110 -205 -110q-103 0 -171 70.5t-68 180.5t68 180.5t171 70.5q68 0 119 -29.5t81 -74.5v313zM484 305q-22 57 -74 95.5t-119 38.5q-82 0 -135.5 -54t-53.5 -145q0 -90 54 -144.5t135 -54.5q67 0 119 38.5t74 95.5v130z" />
<glyph unicode="e" horiz-adv-x="548" d="M45 240q0 117 71.5 184t165.5 67q53 0 95 -16.5t67.5 -44.5t42.5 -64t18.5 -74.5t-4.5 -77.5h-399q5 -86 66 -129.5t149 -43.5q90 0 157 39v-56q-65 -35 -165 -35q-113 0 -188.5 64t-75.5 187zM451 264q7 63 -33.5 119t-131.5 56q-74 0 -127 -46.5t-57 -128.5h349z" />
<glyph unicode="f" horiz-adv-x="368" d="M166 0h-56v427h-87v53h87v68q0 86 46.5 124.5t115.5 38.5q66 0 118 -22v-53q-46 23 -105 23q-119 0 -119 -113v-66h194v-53h-194v-427z" />
<glyph unicode="g" horiz-adv-x="618" d="M45 240q0 110 68 180.5t171 70.5q131 0 205 -110v99h51v-480q0 -115 -74.5 -173t-182.5 -58q-104 0 -192 45v55q88 -48 185 -48q90 0 149 43.5t59 135.5v95q-29 -47 -80.5 -76.5t-119.5 -29.5q-103 0 -171 70.5t-68 180.5zM484 305q-22 57 -74 95.5t-119 38.5 q-82 0 -135.5 -54t-53.5 -145q0 -90 54 -144.5t135 -54.5q67 0 119 36.5t74 90.5v137z" />
<glyph unicode="h" d="M78 700h57v-300q29 37 76 64t104 27q85 0 140 -53.5t55 -141.5v-296h-57v289q0 72 -40 111t-104 39q-57 0 -101.5 -32t-72.5 -78v-329h-57v700z" />
<glyph unicode="i" horiz-adv-x="219" d="M138 0h-57v480h57v-480zM147 626q0 -18 -11 -28t-27 -10q-17 0 -28 9.5t-11 28.5q0 17 11.5 27.5t27.5 10.5t27 -10.5t11 -27.5z" />
<glyph unicode="j" horiz-adv-x="218" d="M137 -100q0 -71 -37 -101t-92 -30q-41 0 -71 12v53q23 -11 57 -11q87 0 87 85v572h56v-580zM147 626q0 -19 -11 -28.5t-28 -9.5q-16 0 -27.5 10t-11.5 28q0 17 11.5 27.5t27.5 10.5t27.5 -10.5t11.5 -27.5z" />
<glyph unicode="k" horiz-adv-x="509" d="M505 0h-67l-195 219h-108v-219h-57v700h57v-428h111l168 208h66l-189 -236z" />
<glyph unicode="l" horiz-adv-x="219" d="M81 730h57v-730h-57v730z" />
<glyph unicode="m" horiz-adv-x="891" d="M135 0h-57v480h51v-80q27 35 72 63t103 28q55 0 95.5 -24.5t60.5 -68.5q81 93 182 93q82 0 129.5 -52.5t47.5 -135.5v-303h-56v304q0 60 -34.5 97.5t-92.5 37.5q-91 0 -157 -93q3 -21 3 -43v-303h-57v304q0 60 -34.5 97.5t-92.5 37.5q-95 0 -163 -102v-337z" />
<glyph unicode="n" d="M129 394q28 39 77 68t109 29q85 0 140 -53.5t55 -141.5v-296h-57v289q0 72 -40 111t-104 39q-57 0 -101.5 -32t-72.5 -78v-329h-57v480h51v-86z" />
<glyph unicode="o" horiz-adv-x="595" d="M45 240q0 116 74.5 183.5t177.5 67.5q104 0 178.5 -67.5t74.5 -183.5t-74.5 -183.5t-178.5 -67.5q-103 0 -177.5 67.5t-74.5 183.5zM493 240q0 91 -56 144t-139 53t-139.5 -53t-56.5 -144t56.5 -144t139.5 -53t139 53t56 144z" />
<glyph unicode="p" horiz-adv-x="618" d="M129 381q76 110 205 110q103 0 171 -70.5t68 -180.5t-68 -180.5t-171 -70.5q-67 0 -118 29.5t-81 74.5v-313h-57v700h51v-99zM516 240q0 90 -54 144.5t-135 54.5q-67 0 -119 -38.5t-74 -95.5v-130q22 -57 74 -95.5t119 -38.5q82 0 135.5 54t53.5 145z" />
<glyph unicode="q" horiz-adv-x="618" d="M45 240q0 110 68 180.5t171 70.5q131 0 205 -110v99h51v-700h-56v313q-30 -45 -81 -74.5t-119 -29.5q-103 0 -171 70.5t-68 180.5zM484 305q-22 57 -74 95.5t-119 38.5q-81 0 -135 -54.5t-54 -144.5q0 -91 53.5 -145t135.5 -54q67 0 119 38.5t74 95.5v130z" />
<glyph unicode="r" horiz-adv-x="354" d="M129 369q27 55 85 90t127 31v-57q-76 6 -131 -34.5t-75 -105.5v-293h-57v480h51v-111z" />
<glyph unicode="s" horiz-adv-x="461" d="M50 360q0 66 52 98.5t124 32.5q94 0 167 -41v-54q-69 44 -163 44q-51 0 -87 -19.5t-36 -59.5q0 -34 32.5 -56t79.5 -34.5t93.5 -27t79 -45.5t32.5 -79q0 -67 -54 -98.5t-136 -31.5q-114 0 -185 47v56q76 -51 182 -51q136 0 136 76q0 34 -32.5 55.5t-79.5 34t-93.5 27.5 t-79 46.5t-32.5 79.5z" />
<glyph unicode="t" horiz-adv-x="393" d="M106 633l56 15v-168h201v-53h-201v-278q0 -56 27 -81t84 -25q54 0 105 22v-52q-53 -23 -120 -23q-71 0 -111.5 38t-40.5 111v288h-90v53h90v153z" />
<glyph unicode="u" d="M447 480h57v-480h-52v86q-28 -39 -76.5 -68t-109.5 -29q-88 0 -141 53t-53 142v296h57v-289q0 -73 38 -111.5t105 -38.5q58 0 102.5 32t72.5 78v329z" />
<glyph unicode="v" horiz-adv-x="530" d="M449 480h63l-217 -480h-60l-218 480h63l185 -416z" />
<glyph unicode="w" horiz-adv-x="801" d="M718 480h60l-173 -480h-61l-144 400l-144 -400h-60l-173 480h60l143 -416l148 413h52l148 -413z" />
<glyph unicode="x" horiz-adv-x="488" d="M397 480h66l-186 -233l196 -247h-66l-163 206l-163 -206h-66l197 247l-187 233h66l153 -193z" />
<glyph unicode="y" horiz-adv-x="536" d="M278 63l179 417h60l-243 -559q-67 -152 -172 -152q-24 0 -51 6v50q22 -6 44 -6q42 0 73.5 30t57.5 93l24 56l-236 482h60z" />
<glyph unicode="z" horiz-adv-x="456" d="M47 480h360v-50l-305 -380h321v-50h-389v50l306 380h-293v50z" />
<glyph unicode="{" horiz-adv-x="289" d="M249 -60v-50q-67 -13 -101 15.5t-34 89.5v241q0 46 -26 69t-59 20v50q32 -3 58.5 20t26.5 69v241q0 61 34 90t101 15v-50q-42 6 -59 -13.5t-17 -64.5v-222q0 -48 -18 -76t-45 -34q27 -6 45 -34t18 -76v-222q0 -45 17 -64.5t59 -13.5z" />
<glyph unicode="|" horiz-adv-x="205" d="M132 -100h-59v910h59v-910z" />
<glyph unicode="}" horiz-adv-x="289" d="M175 -5q0 -61 -34 -89.5t-101 -15.5v50q42 -6 58.5 13t16.5 65v222q0 48 18 76t46 34q-28 6 -46 34t-18 76v222q0 46 -16.5 65t-58.5 13v50q67 14 101 -15t34 -90v-241q0 -46 26.5 -69t58.5 -20v-50q-33 3 -59 -20t-26 -69v-241z" />
<glyph unicode="~" horiz-adv-x="585" d="M515 375q2 -47 -24.5 -75t-72.5 -28q-36 0 -121.5 31t-120.5 31q-23 0 -36 -13t-12 -36h-54q-1 47 25.5 74.5t70.5 27.5q38 0 122 -30.5t121 -30.5q49 0 48 49h54z" />
<glyph unicode="&#xa1;" horiz-adv-x="202" d="M130 -217h-59l5 511h50zM140 453q0 -18 -11 -28t-28 -10t-28 10t-11 28t11 28t28 10t28 -10t11 -28z" />
<glyph unicode="&#xa2;" horiz-adv-x="509" d="M328 42q73 5 129 38v-57q-57 -28 -129 -33v-110h-50v110q-96 7 -163 70.5t-67 176.5q0 114 67 179t163 74v110h50v-110q73 -3 124 -38v-55q-49 37 -124 42v-397zM278 437q-74 -11 -123.5 -61t-49.5 -138q0 -87 49 -136.5t124 -58.5v394z" />
<glyph unicode="&#xa3;" horiz-adv-x="603" d="M561 0h-523v57h35q34 0 53.5 24t19.5 65v163h-83v55h83v97q0 115 65 172.5t160 57.5q81 0 146 -38v-57q-64 40 -139 40q-74 0 -123 -43.5t-49 -132.5v-96h236v-55h-236v-163q0 -68 -36 -89h391v-57z" />
<glyph unicode="&#xa4;" horiz-adv-x="576" d="M174 194l-64 -64l-40 40l62 62q-41 49 -41 118t41 118l-62 62l40 40l64 -64q50 33 114 33q63 0 115 -33l64 64l40 -40l-63 -62q41 -49 41 -118t-41 -118l63 -62l-40 -40l-64 64q-52 -33 -115 -33q-64 0 -114 33zM147 350q0 -62 39.5 -99t100.5 -37t101 37t40 99t-40 99 t-101 37t-100.5 -37t-39.5 -99z" />
<glyph unicode="&#xa5;" horiz-adv-x="651" d="M552 680h65l-234 -363h149v-50h-177v-74h177v-50h-177v-143h-60v143h-176v50h176v74h-176v50h148l-234 363h65l227 -353z" />
<glyph unicode="&#xa6;" horiz-adv-x="223" d="M141 459h-59v351h59v-351zM141 -100h-59v351h59v-351z" />
<glyph unicode="&#xa7;" horiz-adv-x="492" d="M429 94q0 -64 -53.5 -96t-134.5 -32q-103 0 -173 46v53q33 -23 81 -36t90 -13q133 0 133 77q0 15 -4.5 27t-17 22t-21 16t-32 14t-33 11t-38.5 12q-32 9 -50 15t-43.5 18t-39.5 25.5t-24.5 35.5t-10.5 49q0 76 90 131q-80 38 -80 112q0 64 51.5 97t126.5 33q88 0 158 -40 v-53q-69 43 -155 43q-52 0 -88 -20.5t-36 -58.5q0 -17 8.5 -31t18.5 -23t33 -18.5t36.5 -13.5t44.5 -13q3 -1 5 -1.5t4.5 -1t4.5 -1.5q39 -11 61 -19.5t49 -24.5t40 -40.5t13 -57.5q0 -74 -94 -130q80 -38 80 -113zM243 245q9 -3 27.5 -8t27.5 -8q37 14 63 41t26 59 q0 18 -7 32.5t-17 24t-29 18t-33 13.5t-39 12q-50 15 -62 19q-36 -13 -61.5 -41.5t-25.5 -60.5q0 -42 32.5 -62.5t97.5 -38.5z" />
<glyph unicode="&#xa8;" horiz-adv-x="291" d="M288 836q0 -17 -12 -29t-29 -12t-29.5 12t-12.5 29t12.5 29.5t29.5 12.5t29 -12.5t12 -29.5zM87 836q0 -17 -12 -29t-29 -12t-29.5 12t-12.5 29t12.5 29.5t29.5 12.5t29 -12.5t12 -29.5z" />
<glyph unicode="&#xa9;" horiz-adv-x="851" d="M800 350q0 -86 -33.5 -157t-88 -114t-119.5 -66.5t-133 -23.5t-133.5 23.5t-120 66.5t-88 114t-33.5 157t33.5 157t88 114t120 66.5t133.5 23.5t133 -23.5t119.5 -66.5t88 -114t33.5 -157zM573 183q-62 -34 -134 -34q-79 0 -139 50t-60 143q0 102 63 155.5t147 53.5 q70 0 123 -34v-44q-51 34 -115 34q-70 0 -119.5 -40t-49.5 -123q0 -77 46.5 -114t114.5 -37q65 0 123 33v-43zM75 350q0 -107 53.5 -186t131.5 -115.5t166 -36.5q64 0 125.5 21.5t112 62.5t81.5 107t31 147t-31 147t-81.5 107t-112 62.5t-125.5 21.5q-88 0 -166 -36.5 t-131.5 -115.5t-53.5 -186z" />
<glyph unicode="&#xab;" horiz-adv-x="462" d="M402 63h-61l-121 171v12l121 171h61l-125 -177zM230 63h-61l-121 171v12l121 171h61l-125 -177z" />
<glyph unicode="&#xac;" horiz-adv-x="579" d="M503 284h-56v142h-381v54h437v-196z" />
<glyph unicode="&#xad;" horiz-adv-x="485" d="M67 273h351v-54h-351v54z" />
<glyph unicode="&#xae;" horiz-adv-x="851" d="M800 350q0 -86 -33.5 -157t-88 -114t-119.5 -66.5t-133 -23.5t-133.5 23.5t-120 66.5t-88 114t-33.5 157t33.5 157t88 114t120 66.5t133.5 23.5t133 -23.5t119.5 -66.5t88 -114t33.5 -157zM75 350q0 -107 53.5 -186t131.5 -115.5t166 -36.5q64 0 125.5 21.5t112 62.5 t81.5 107t31 147t-31 147t-81.5 107t-112 62.5t-125.5 21.5q-88 0 -166 -36.5t-131.5 -115.5t-53.5 -186zM332 152h-43v394h161q25 0 48.5 -5.5t47 -18t38 -38t14.5 -61.5q0 -89 -89 -112l113 -159h-50l-107 153q-7 -1 -21 -1h-112v-152zM332 504v-158h114q21 0 35.5 2 t33.5 8.5t29.5 23.5t10.5 43q0 81 -109 81h-114z" />
<glyph unicode="&#xaf;" horiz-adv-x="333" d="M27 847h280v-52h-280v52z" />
<glyph unicode="&#xb0;" horiz-adv-x="393" d="M347 568q0 -67 -44 -107t-106 -40t-106.5 40t-44.5 107q0 66 44.5 106.5t106.5 40.5t106 -40t44 -107zM89 568q0 -48 31 -76.5t77 -28.5t76.5 28.5t30.5 76.5q0 47 -30.5 75.5t-76.5 28.5t-77 -28t-31 -76z" />
<glyph unicode="&#xb1;" horiz-adv-x="576" d="M316 591v-191h191v-54h-191v-192h-54v192h-192v54h192v191h54zM507 0h-437v54h437v-54z" />
<glyph unicode="&#xb4;" horiz-adv-x="177" d="M89 773h-62l90 142h71z" />
<glyph unicode="&#xb6;" horiz-adv-x="618" d="M313 -220h-60v507q-102 0 -160.5 54.5t-58.5 151.5t58.5 152t160.5 55h282v-920h-60v863h-162v-863z" />
<glyph unicode="&#xb7;" horiz-adv-x="213" d="M147 239q0 -18 -11.5 -28.5t-28.5 -10.5t-28.5 10.5t-11.5 28.5t11.5 28.5t28.5 10.5t28.5 -10.5t11.5 -28.5z" />
<glyph unicode="&#xb8;" horiz-adv-x="213" d="M80 0h50l-19 -74q48 6 80 -12.5t33 -56.5q1 -42 -32.5 -65t-92.5 -23q-53 0 -98 20v49q41 -23 92 -23q40 0 61 12t20 32q0 25 -39 33t-81 -3z" />
<glyph unicode="&#xbb;" horiz-adv-x="461" d="M292 63h-61l125 177l-125 177h61l121 -171v-12zM121 63h-61l125 177l-125 177h61l121 -171v-12z" />
<glyph unicode="&#xbc;" horiz-adv-x="919" d="M753 408h54v-271h77v-46h-77v-91h-49v91h-228v44zM759 137v204l-167 -204h167zM217 -12h-28l457 723h28zM159 680h37v-361h74v-47h-216v47h93v308l-87 -32v47z" />
<glyph unicode="&#xbd;" horiz-adv-x="876" d="M213 -12h-28l457 723h28zM560 376q57 39 131 39q63 0 101 -28.5t38 -80.5q0 -46 -30.5 -78.5t-84.5 -64.5q-4 -2 -18.5 -11t-19 -11.5t-17 -10.5t-16.5 -12t-13.5 -11.5t-13 -13t-8.5 -13.5t-7 -16t-2 -17h233v-47h-287v24q0 44 22.5 79.5t42.5 50t63 39.5q5 3 8 5 q62 38 78 56q20 24 20 53q0 62 -93 62q-65 0 -127 -43v50zM155 680h37v-361h74v-47h-216v47h93v308l-87 -32v47z" />
<glyph unicode="&#xbe;" horiz-adv-x="972" d="M287 -12h-28l457 723h28zM806 408h54v-271h77v-46h-77v-91h-49v91h-228v44zM812 137v204l-167 -204h167zM330 580q0 -31 -17 -56t-44 -34q77 -24 77 -103q0 -57 -42 -87.5t-107 -30.5q-82 0 -142 27v49q56 -30 138 -30q105 0 105 75q0 73 -99 73h-63v47h57q43 0 66 18 t23 48q0 32 -25.5 50.5t-71.5 18.5q-64 0 -123 -31v49q58 28 129 28q63 0 101 -30.5t38 -80.5z" />
<glyph unicode="&#xbf;" horiz-adv-x="480" d="M447 -173q-90 -55 -193 -55q-98 0 -159.5 43.5t-61.5 122.5q0 39 20 79t48 72t56 63.5t48 65.5t20 66h57q0 -36 -19.5 -73t-47.5 -68.5t-55.5 -62.5t-47 -67t-19.5 -70q0 -57 45 -85.5t125 -28.5q92 0 184 54v-56zM293 452q0 -17 -11.5 -27.5t-28.5 -10.5t-28.5 10.5 t-11.5 27.5q0 19 11.5 29t28.5 10t28.5 -10t11.5 -29z" />
<glyph unicode="&#xc0;" horiz-adv-x="713" d="M75 0h-64l312 700h67l311 -700h-64l-83 188h-395zM347 617l-165 -373h348l-165 373q-3 8 -9 22q-6 -14 -9 -22zM408 773h-63l-98 142h71z" />
<glyph unicode="&#xc1;" horiz-adv-x="713" d="M75 0h-64l312 700h67l311 -700h-64l-83 188h-395zM347 617l-165 -373h348l-165 373q-3 8 -9 22q-6 -14 -9 -22zM363 773h-62l90 142h71z" />
<glyph unicode="&#xc2;" horiz-adv-x="713" d="M75 0h-64l312 700h67l311 -700h-64l-83 188h-395zM347 617l-165 -373h348l-165 373q-3 8 -9 22q-6 -14 -9 -22zM332 911h51l130 -137h-65l-90 94l-90 -94h-65z" />
<glyph unicode="&#xc3;" horiz-adv-x="713" d="M75 0h-64l312 700h67l311 -700h-64l-83 188h-395zM347 617l-165 -373h348l-165 373q-3 8 -9 22q-6 -14 -9 -22zM511 866q6 -43 -15 -67.5t-57 -24.5q-32 0 -86 24t-70 24q-18 0 -26.5 -12t-6.5 -31h-50q-6 42 15 67.5t55 25.5q31 0 86 -24t71 -24q37 0 34 42h50z" />
<glyph unicode="&#xc4;" horiz-adv-x="713" d="M75 0h-64l312 700h67l311 -700h-64l-83 188h-395zM347 617l-165 -373h348l-165 373q-3 8 -9 22q-6 -14 -9 -22zM496 836q0 -17 -12 -29t-29 -12t-29.5 12t-12.5 29t12.5 29.5t29.5 12.5t29 -12.5t12 -29.5zM295 836q0 -17 -12 -29t-29 -12t-29.5 12t-12.5 29t12.5 29.5 t29.5 12.5t29 -12.5t12 -29.5z" />
<glyph unicode="&#xc5;" horiz-adv-x="713" d="M75 0h-64l312 700h67l311 -700h-64l-83 188h-395zM347 617l-165 -373h348l-165 373q-3 8 -9 22q-6 -14 -9 -22zM456 849q0 -44 -30 -71.5t-72 -27.5t-72.5 27.5t-30.5 71.5q0 43 30.5 70t72.5 27q41 0 71.5 -27t30.5 -70zM295 848q0 -27 17.5 -42.5t41.5 -15.5t41.5 15.5 t17.5 42.5q0 26 -17.5 42t-41.5 16t-41.5 -16t-17.5 -42z" />
<glyph unicode="&#xc6;" horiz-adv-x="992" d="M558 324v-267h382v-57h-441v190h-313l-134 -190h-66l489 700h459v-57h-376v-262h346v-57h-346zM221 244h278v394z" />
<glyph unicode="&#xc7;" horiz-adv-x="656" d="M617 96v-59q-78 -42 -178 -48l-16 -63q48 6 79.5 -12.5t32.5 -56.5q1 -42 -32.5 -65t-92.5 -23q-53 0 -98 20v49q41 -23 92 -23q40 0 61 12t21 32q-1 25 -40 33t-80 -3l23 101q-65 4 -124.5 28.5t-108 67.5t-77.5 109.5t-29 147.5q0 88 31.5 160t83.5 116.5t116 68 t133 23.5q110 0 196 -47v-60q-79 51 -187 51q-59 0 -113.5 -19.5t-100 -56.5t-72.5 -98t-27 -138q0 -73 27.5 -131.5t73 -94t101 -54t114.5 -18.5q112 0 191 51z" />
<glyph unicode="&#xc8;" horiz-adv-x="621" d="M97 700h465v-57h-406v-262h376v-57h-376v-267h413v-57h-472v700zM387 773h-63l-98 142h71z" />
<glyph unicode="&#xc9;" horiz-adv-x="621" d="M97 700h465v-57h-406v-262h376v-57h-376v-267h413v-57h-472v700zM342 773h-62l90 142h71z" />
<glyph unicode="&#xca;" horiz-adv-x="621" d="M97 700h465v-57h-406v-262h376v-57h-376v-267h413v-57h-472v700zM311 911h51l130 -137h-65l-90 94l-90 -94h-65z" />
<glyph unicode="&#xcb;" horiz-adv-x="621" d="M97 700h465v-57h-406v-262h376v-57h-376v-267h413v-57h-472v700zM475 836q0 -17 -12 -29t-29 -12t-29.5 12t-12.5 29t12.5 29.5t29.5 12.5t29 -12.5t12 -29.5zM274 836q0 -17 -12 -29t-29 -12t-29.5 12t-12.5 29t12.5 29.5t29.5 12.5t29 -12.5t12 -29.5z" />
<glyph unicode="&#xcc;" horiz-adv-x="253" d="M97 700h59v-700h-59v700zM181 773h-63l-98 142h71z" />
<glyph unicode="&#xcd;" horiz-adv-x="253" d="M97 700h59v-700h-59v700zM136 773h-62l90 142h71z" />
<glyph unicode="&#xce;" horiz-adv-x="253" d="M97 700h59v-700h-59v700zM105 911h51l130 -137h-65l-90 94l-90 -94h-65z" />
<glyph unicode="&#xcf;" horiz-adv-x="253" d="M97 700h59v-700h-59v700zM269 836q0 -17 -12 -29t-29 -12t-29.5 12t-12.5 29t12.5 29.5t29.5 12.5t29 -12.5t12 -29.5zM68 836q0 -17 -12 -29t-29 -12t-29.5 12t-12.5 29t12.5 29.5t29.5 12.5t29 -12.5t12 -29.5z" />
<glyph unicode="&#xd0;" horiz-adv-x="738" d="M100 700h217q181 0 276 -96t95 -254t-95 -254t-276 -96h-217v322h-81v54h81v324zM160 57h158q152 0 231.5 78.5t79.5 214.5t-79.5 214.5t-231.5 78.5h-158v-267h224v-54h-224v-265z" />
<glyph unicode="&#xd1;" horiz-adv-x="766" d="M156 0h-59v700h54l459 -599v60v539h59v-700h-54l-459 600v-60v-540zM540 866q6 -43 -15 -67.5t-57 -24.5q-32 0 -86 24t-70 24q-18 0 -26.5 -12t-6.5 -31h-50q-6 42 15 67.5t55 25.5q31 0 86 -24t71 -24q37 0 34 42h50z" />
<glyph unicode="&#xd2;" horiz-adv-x="824" d="M48 350q0 68 23 131.5t67 115.5t115 83t159 31t159 -31t115 -83t67 -115.5t23 -131.5t-23 -131.5t-67 -115.5t-115 -83t-159 -31t-159 31t-115 83t-67 115.5t-23 131.5zM716 350q0 79 -32 146.5t-103 113t-169 45.5t-169 -45.5t-103 -113t-32 -146.5t32 -146.5t103 -113 t169 -45.5t169 45.5t103 113t32 146.5zM465 773h-63l-98 142h71z" />
<glyph unicode="&#xd3;" horiz-adv-x="824" d="M48 350q0 68 23 131.5t67 115.5t115 83t159 31t159 -31t115 -83t67 -115.5t23 -131.5t-23 -131.5t-67 -115.5t-115 -83t-159 -31t-159 31t-115 83t-67 115.5t-23 131.5zM716 350q0 79 -32 146.5t-103 113t-169 45.5t-169 -45.5t-103 -113t-32 -146.5t32 -146.5t103 -113 t169 -45.5t169 45.5t103 113t32 146.5zM420 773h-62l90 142h71z" />
<glyph unicode="&#xd4;" horiz-adv-x="824" d="M48 350q0 68 23 131.5t67 115.5t115 83t159 31t159 -31t115 -83t67 -115.5t23 -131.5t-23 -131.5t-67 -115.5t-115 -83t-159 -31t-159 31t-115 83t-67 115.5t-23 131.5zM716 350q0 79 -32 146.5t-103 113t-169 45.5t-169 -45.5t-103 -113t-32 -146.5t32 -146.5t103 -113 t169 -45.5t169 45.5t103 113t32 146.5zM389 911h51l130 -137h-65l-90 94l-90 -94h-65z" />
<glyph unicode="&#xd5;" horiz-adv-x="824" d="M48 350q0 68 23 131.5t67 115.5t115 83t159 31t159 -31t115 -83t67 -115.5t23 -131.5t-23 -131.5t-67 -115.5t-115 -83t-159 -31t-159 31t-115 83t-67 115.5t-23 131.5zM716 350q0 79 -32 146.5t-103 113t-169 45.5t-169 -45.5t-103 -113t-32 -146.5t32 -146.5t103 -113 t169 -45.5t169 45.5t103 113t32 146.5zM568 866q6 -43 -15 -67.5t-57 -24.5q-32 0 -86 24t-70 24q-18 0 -26.5 -12t-6.5 -31h-50q-6 42 15 67.5t55 25.5q31 0 86 -24t71 -24q37 0 34 42h50z" />
<glyph unicode="&#xd6;" horiz-adv-x="824" d="M48 350q0 68 23 131.5t67 115.5t115 83t159 31t159 -31t115 -83t67 -115.5t23 -131.5t-23 -131.5t-67 -115.5t-115 -83t-159 -31t-159 31t-115 83t-67 115.5t-23 131.5zM716 350q0 79 -32 146.5t-103 113t-169 45.5t-169 -45.5t-103 -113t-32 -146.5t32 -146.5t103 -113 t169 -45.5t169 45.5t103 113t32 146.5zM553 836q0 -17 -12 -29t-29 -12t-29.5 12t-12.5 29t12.5 29.5t29.5 12.5t29 -12.5t12 -29.5zM352 836q0 -17 -12 -29t-29 -12t-29.5 12t-12.5 29t12.5 29.5t29.5 12.5t29 -12.5t12 -29.5z" />
<glyph unicode="&#xd7;" horiz-adv-x="458" d="M229 315l-131 -131l-36 37l130 130l-130 130l36 37l131 -130l130 130l37 -37l-131 -130l131 -130l-37 -37z" />
<glyph unicode="&#xd8;" horiz-adv-x="824" d="M732 748l-84 -115q62 -51 95 -126.5t33 -156.5q0 -68 -23 -131.5t-67 -115.5t-115 -83t-159 -31q-111 0 -195 50l-64 -87h-57l82 114q-63 50 -96.5 126t-33.5 158q0 68 23 131.5t67 115.5t115 83t159 31q114 0 198 -51l65 88h57zM412 655q-98 0 -169 -45.5t-103 -113 t-32 -146.5q0 -69 26.5 -132t78.5 -105l363 499q-70 43 -164 43zM251 86q71 -41 161 -41q98 0 169 45.5t103 113t32 146.5q0 68 -26 130.5t-76 105.5z" />
<glyph unicode="&#xd9;" horiz-adv-x="751" d="M603 700h59v-450q0 -137 -79 -199t-207 -62q-61 0 -111 14t-90.5 43t-63 81t-22.5 123v450h59v-448q0 -207 228 -207q227 0 227 207v448zM428 773h-63l-98 142h71z" />
<glyph unicode="&#xda;" horiz-adv-x="751" d="M603 700h59v-450q0 -137 -79 -199t-207 -62q-61 0 -111 14t-90.5 43t-63 81t-22.5 123v450h59v-448q0 -207 228 -207q227 0 227 207v448zM383 773h-62l90 142h71z" />
<glyph unicode="&#xdb;" horiz-adv-x="751" d="M603 700h59v-450q0 -137 -79 -199t-207 -62q-61 0 -111 14t-90.5 43t-63 81t-22.5 123v450h59v-448q0 -207 228 -207q227 0 227 207v448zM352 911h51l130 -137h-65l-90 94l-90 -94h-65z" />
<glyph unicode="&#xdc;" horiz-adv-x="751" d="M603 700h59v-450q0 -137 -79 -199t-207 -62q-61 0 -111 14t-90.5 43t-63 81t-22.5 123v450h59v-448q0 -207 228 -207q227 0 227 207v448zM516 836q0 -17 -12 -29t-29 -12t-29.5 12t-12.5 29t12.5 29.5t29.5 12.5t29 -12.5t12 -29.5zM315 836q0 -17 -12 -29t-29 -12 t-29.5 12t-12.5 29t12.5 29.5t29.5 12.5t29 -12.5t12 -29.5z" />
<glyph unicode="&#xdd;" horiz-adv-x="644" d="M352 0h-60v273l-275 427h66l239 -373l239 373h66l-275 -427v-273zM331 773h-62l90 142h71z" />
<glyph unicode="&#xde;" horiz-adv-x="655" d="M156 572h171q295 0 295 -222t-295 -222h-171v-128h-59v700h59v-128zM157 184h173q232 0 232 166q0 92 -62 129t-170 37h-173v-332z" />
<glyph unicode="&#xdf;" horiz-adv-x="592" d="M555 148q0 -78 -58.5 -118.5t-142.5 -40.5q-72 0 -127 27v50q54 -27 117 -27q67 0 111 27.5t44 85.5q0 28 -16 55.5t-38.5 49t-45.5 42t-39 42t-16 41.5q0 28 19 55.5t38 57.5t19 65q0 42 -35 71.5t-95 29.5q-69 0 -112 -40t-43 -112v-509h-57v500q0 99 57.5 155 t154.5 56q89 1 137.5 -43.5t48.5 -101.5q0 -38 -19 -70t-37.5 -57t-18.5 -47q0 -18 16 -38.5t38.5 -40.5t45 -43t38.5 -55t16 -67z" />
<glyph unicode="&#xe0;" horiz-adv-x="542" d="M455 87q0 -42 43 -42q16 0 37 7v-46q-27 -10 -52 -10q-76 0 -83 74q-75 -81 -197 -81q-69 0 -118 36.5t-49 105.5q0 82 62 119.5t150 37.5q77 0 151 -21v32q0 64 -40 102t-113 38q-92 0 -172 -34v56q85 30 178 30q96 0 149.5 -52t53.5 -147v-205zM94 134q0 -47 35 -71.5 t85 -24.5q55 0 104 24.5t81 69.5v88q-76 20 -143 20q-68 0 -115 -25.5t-47 -80.5zM300 553h-63l-98 142h71z" />
<glyph unicode="&#xe1;" horiz-adv-x="542" d="M455 87q0 -42 43 -42q16 0 37 7v-46q-27 -10 -52 -10q-76 0 -83 74q-75 -81 -197 -81q-69 0 -118 36.5t-49 105.5q0 82 62 119.5t150 37.5q77 0 151 -21v32q0 64 -40 102t-113 38q-92 0 -172 -34v56q85 30 178 30q96 0 149.5 -52t53.5 -147v-205zM94 134q0 -47 35 -71.5 t85 -24.5q55 0 104 24.5t81 69.5v88q-76 20 -143 20q-68 0 -115 -25.5t-47 -80.5zM255 553h-62l90 142h71z" />
<glyph unicode="&#xe2;" horiz-adv-x="542" d="M455 87q0 -42 43 -42q16 0 37 7v-46q-27 -10 -52 -10q-76 0 -83 74q-75 -81 -197 -81q-69 0 -118 36.5t-49 105.5q0 82 62 119.5t150 37.5q77 0 151 -21v32q0 64 -40 102t-113 38q-92 0 -172 -34v56q85 30 178 30q96 0 149.5 -52t53.5 -147v-205zM94 134q0 -47 35 -71.5 t85 -24.5q55 0 104 24.5t81 69.5v88q-76 20 -143 20q-68 0 -115 -25.5t-47 -80.5zM224 691h51l130 -137h-65l-90 94l-90 -94h-65z" />
<glyph unicode="&#xe3;" horiz-adv-x="542" d="M455 87q0 -42 43 -42q16 0 37 7v-46q-27 -10 -52 -10q-76 0 -83 74q-75 -81 -197 -81q-69 0 -118 36.5t-49 105.5q0 82 62 119.5t150 37.5q77 0 151 -21v32q0 64 -40 102t-113 38q-92 0 -172 -34v56q85 30 178 30q96 0 149.5 -52t53.5 -147v-205zM94 134q0 -47 35 -71.5 t85 -24.5q55 0 104 24.5t81 69.5v88q-76 20 -143 20q-68 0 -115 -25.5t-47 -80.5zM403 646q6 -43 -15 -67.5t-57 -24.5q-32 0 -86 24t-70 24q-18 0 -26.5 -12t-6.5 -31h-50q-6 42 15 67.5t55 25.5q31 0 86 -24t71 -24q37 0 34 42h50z" />
<glyph unicode="&#xe4;" horiz-adv-x="542" d="M455 87q0 -42 43 -42q16 0 37 7v-46q-27 -10 -52 -10q-76 0 -83 74q-75 -81 -197 -81q-69 0 -118 36.5t-49 105.5q0 82 62 119.5t150 37.5q77 0 151 -21v32q0 64 -40 102t-113 38q-92 0 -172 -34v56q85 30 178 30q96 0 149.5 -52t53.5 -147v-205zM94 134q0 -47 35 -71.5 t85 -24.5q55 0 104 24.5t81 69.5v88q-76 20 -143 20q-68 0 -115 -25.5t-47 -80.5zM388 616q0 -17 -12 -29t-29 -12t-29.5 12t-12.5 29t12.5 29.5t29.5 12.5t29 -12.5t12 -29.5zM187 616q0 -17 -12 -29t-29 -12t-29.5 12t-12.5 29t12.5 29.5t29.5 12.5t29 -12.5t12 -29.5z " />
<glyph unicode="&#xe5;" horiz-adv-x="542" d="M455 87q0 -42 43 -42q16 0 37 7v-46q-27 -10 -52 -10q-76 0 -83 74q-75 -81 -197 -81q-69 0 -118 36.5t-49 105.5q0 82 62 119.5t150 37.5q77 0 151 -21v32q0 64 -40 102t-113 38q-92 0 -172 -34v56q85 30 178 30q96 0 149.5 -52t53.5 -147v-205zM94 134q0 -47 35 -71.5 t85 -24.5q55 0 104 24.5t81 69.5v88q-76 20 -143 20q-68 0 -115 -25.5t-47 -80.5zM348 629q0 -44 -30 -71.5t-72 -27.5t-72.5 27.5t-30.5 71.5q0 43 30.5 70t72.5 27q41 0 71.5 -27t30.5 -70zM187 628q0 -27 17.5 -42.5t41.5 -15.5t41.5 15.5t17.5 42.5q0 26 -17.5 42 t-41.5 16t-41.5 -16t-17.5 -42z" />
<glyph unicode="&#xe6;" horiz-adv-x="909" d="M456 92q-93 -103 -247 -103q-73 0 -123 36.5t-50 105.5q0 82 63 119.5t156 37.5q84 0 157 -21v32q0 66 -41.5 103t-124.5 37q-92 0 -172 -34v56q85 30 178 30q165 0 198 -126q28 60 83 93t118 33q64 0 111.5 -25.5t70 -66t31.5 -90.5t-3 -100h-392q6 -83 66.5 -125.5 t145.5 -42.5q84 0 151 39v-53q-65 -38 -163 -38q-65 0 -122 26t-91 77zM94 134q0 -47 36 -71.5t91 -24.5q131 0 212 91q-17 42 -20 91q-80 20 -151 20q-72 0 -120 -25t-48 -81zM651 439q-74 0 -126 -47.5t-56 -132.5h342q4 30 -3 60t-24 57.5t-51.5 45t-81.5 17.5z" />
<glyph unicode="&#xe7;" horiz-adv-x="494" d="M454 80v-57q-60 -29 -136 -34l-16 -63q48 6 79.5 -12.5t32.5 -56.5q1 -42 -32.5 -65t-92.5 -23q-53 0 -98 20v49q41 -23 92 -23q40 0 61 12t21 32q-1 25 -40 33t-80 -3l23 102q-94 8 -158.5 71.5t-64.5 174.5q0 84 39.5 143.5t96.5 85t123 25.5q88 0 145 -39v-55 q-56 42 -138 42q-86 0 -147.5 -51t-61.5 -150q0 -95 59.5 -146t143.5 -51q83 0 149 39z" />
<glyph unicode="&#xe8;" horiz-adv-x="548" d="M45 240q0 117 71.5 184t165.5 67q53 0 95 -16.5t67.5 -44.5t42.5 -64t18.5 -74.5t-4.5 -77.5h-399q5 -86 66 -129.5t149 -43.5q90 0 157 39v-56q-65 -35 -165 -35q-113 0 -188.5 64t-75.5 187zM451 264q7 63 -33.5 119t-131.5 56q-74 0 -127 -46.5t-57 -128.5h349z M335 553h-63l-98 142h71z" />
<glyph unicode="&#xe9;" horiz-adv-x="548" d="M45 240q0 117 71.5 184t165.5 67q53 0 95 -16.5t67.5 -44.5t42.5 -64t18.5 -74.5t-4.5 -77.5h-399q5 -86 66 -129.5t149 -43.5q90 0 157 39v-56q-65 -35 -165 -35q-113 0 -188.5 64t-75.5 187zM451 264q7 63 -33.5 119t-131.5 56q-74 0 -127 -46.5t-57 -128.5h349z M290 553h-62l90 142h71z" />
<glyph unicode="&#xea;" horiz-adv-x="548" d="M45 240q0 117 71.5 184t165.5 67q53 0 95 -16.5t67.5 -44.5t42.5 -64t18.5 -74.5t-4.5 -77.5h-399q5 -86 66 -129.5t149 -43.5q90 0 157 39v-56q-65 -35 -165 -35q-113 0 -188.5 64t-75.5 187zM451 264q7 63 -33.5 119t-131.5 56q-74 0 -127 -46.5t-57 -128.5h349z M259 691h51l130 -137h-65l-90 94l-90 -94h-65z" />
<glyph unicode="&#xeb;" horiz-adv-x="548" d="M45 240q0 117 71.5 184t165.5 67q53 0 95 -16.5t67.5 -44.5t42.5 -64t18.5 -74.5t-4.5 -77.5h-399q5 -86 66 -129.5t149 -43.5q90 0 157 39v-56q-65 -35 -165 -35q-113 0 -188.5 64t-75.5 187zM451 264q7 63 -33.5 119t-131.5 56q-74 0 -127 -46.5t-57 -128.5h349z M423 616q0 -17 -12 -29t-29 -12t-29.5 12t-12.5 29t12.5 29.5t29.5 12.5t29 -12.5t12 -29.5zM222 616q0 -17 -12 -29t-29 -12t-29.5 12t-12.5 29t12.5 29.5t29.5 12.5t29 -12.5t12 -29.5z" />
<glyph unicode="&#xec;" horiz-adv-x="219" d="M138 0h-57v480h57v-480zM165 553h-55l-85 142h64z" />
<glyph unicode="&#xed;" horiz-adv-x="219" d="M81 480h57v-480h-57v480zM117 553h-62l90 142h71z" />
<glyph unicode="&#xee;" horiz-adv-x="219" d="M85 681h51l103 -127h-61l-67 84l-67 -84h-62zM81 480h57v-480h-57v480z" />
<glyph unicode="&#xef;" horiz-adv-x="219" d="M225 616q0 -15 -11.5 -26.5t-27.5 -11.5q-15 0 -26.5 11.5t-11.5 26.5t11.5 27t26.5 12q16 0 27.5 -12t11.5 -27zM70 616q0 -15 -11 -26.5t-27 -11.5t-27 11.5t-11 26.5t11.5 27t26.5 12t26.5 -12t11.5 -27zM81 480h57v-480h-57v480z" />
<glyph unicode="&#xf0;" horiz-adv-x="594" d="M540 269q0 -132 -68 -206t-181 -74q-107 0 -176.5 64t-69.5 169q0 97 67.5 160.5t161.5 63.5q75 0 135 -37t80 -103q0 7 -2 23q-20 207 -199 283l-104 -104l-33 33l88 88q-67 17 -137 17v54q93 0 178 -30l85 85l33 -33l-73 -73q215 -104 215 -380zM102 222q0 -81 52 -130 t137 -49q79 0 126.5 43t60.5 117q-2 87 -58 138.5t-137 51.5q-78 0 -129.5 -47.5t-51.5 -123.5z" />
<glyph unicode="&#xf1;" d="M129 394q28 39 77 68t109 29q85 0 140 -53.5t55 -141.5v-296h-57v289q0 72 -40 111t-104 39q-57 0 -101.5 -32t-72.5 -78v-329h-57v480h51v-86zM448 646q6 -43 -15 -67.5t-57 -24.5q-32 0 -86 24t-70 24q-18 0 -26.5 -12t-6.5 -31h-50q-6 42 15 67.5t55 25.5q31 0 86 -24 t71 -24q37 0 34 42h50z" />
<glyph unicode="&#xf2;" horiz-adv-x="595" d="M45 240q0 116 74.5 183.5t177.5 67.5q104 0 178.5 -67.5t74.5 -183.5t-74.5 -183.5t-178.5 -67.5q-103 0 -177.5 67.5t-74.5 183.5zM493 240q0 91 -56 144t-139 53t-139.5 -53t-56.5 -144t56.5 -144t139.5 -53t139 53t56 144zM350 550h-63l-98 142h71z" />
<glyph unicode="&#xf3;" horiz-adv-x="595" d="M45 240q0 116 74.5 183.5t177.5 67.5q104 0 178.5 -67.5t74.5 -183.5t-74.5 -183.5t-178.5 -67.5q-103 0 -177.5 67.5t-74.5 183.5zM493 240q0 91 -56 144t-139 53t-139.5 -53t-56.5 -144t56.5 -144t139.5 -53t139 53t56 144zM305 550h-62l90 142h71z" />
<glyph unicode="&#xf4;" horiz-adv-x="595" d="M45 240q0 116 74.5 183.5t177.5 67.5q104 0 178.5 -67.5t74.5 -183.5t-74.5 -183.5t-178.5 -67.5q-103 0 -177.5 67.5t-74.5 183.5zM493 240q0 91 -56 144t-139 53t-139.5 -53t-56.5 -144t56.5 -144t139.5 -53t139 53t56 144zM274 688h51l130 -137h-65l-90 94l-90 -94 h-65z" />
<glyph unicode="&#xf5;" horiz-adv-x="595" d="M45 240q0 116 74.5 183.5t177.5 67.5q104 0 178.5 -67.5t74.5 -183.5t-74.5 -183.5t-178.5 -67.5q-103 0 -177.5 67.5t-74.5 183.5zM493 240q0 91 -56 144t-139 53t-139.5 -53t-56.5 -144t56.5 -144t139.5 -53t139 53t56 144zM453 643q6 -43 -15 -67.5t-57 -24.5 q-32 0 -86 24t-70 24q-18 0 -26.5 -12t-6.5 -31h-50q-6 42 15 67.5t55 25.5q31 0 86 -24t71 -24q37 0 34 42h50z" />
<glyph unicode="&#xf6;" horiz-adv-x="595" d="M45 240q0 116 74.5 183.5t177.5 67.5q104 0 178.5 -67.5t74.5 -183.5t-74.5 -183.5t-178.5 -67.5q-103 0 -177.5 67.5t-74.5 183.5zM493 240q0 91 -56 144t-139 53t-139.5 -53t-56.5 -144t56.5 -144t139.5 -53t139 53t56 144zM438 613q0 -17 -12 -29t-29 -12t-29.5 12 t-12.5 29t12.5 29.5t29.5 12.5t29 -12.5t12 -29.5zM237 613q0 -17 -12 -29t-29 -12t-29.5 12t-12.5 29t12.5 29.5t29.5 12.5t29 -12.5t12 -29.5z" />
<glyph unicode="&#xf7;" horiz-adv-x="634" d="M557 323h-480v54h480v-54zM356 126q0 -19 -11 -29t-28 -10t-28.5 10t-11.5 29q0 18 11.5 28t28.5 10t28 -10t11 -28zM356 573q0 -19 -11 -29t-28 -10t-28.5 10t-11.5 29q0 18 11.5 28t28.5 10t28 -10t11 -28z" />
<glyph unicode="&#xf8;" horiz-adv-x="595" d="M520 543l-67 -101q97 -70 97 -202q0 -116 -74.5 -183.5t-178.5 -67.5q-64 0 -122 28l-50 -76h-50l64 99q-94 69 -94 200q0 116 74.5 183.5t177.5 67.5q66 0 121 -28l51 80h51zM298 437q-83 0 -139.5 -53t-56.5 -144q0 -100 69 -154l216 332q-43 19 -89 19zM206 63 q42 -20 91 -20q83 0 139.5 53t56.5 144q0 99 -70 156z" />
<glyph unicode="&#xf9;" d="M447 480h57v-480h-52v86q-28 -39 -76.5 -68t-109.5 -29q-88 0 -141 53t-53 142v296h57v-289q0 -73 38 -111.5t105 -38.5q58 0 102.5 32t72.5 78v329zM344 553h-63l-98 142h71z" />
<glyph unicode="&#xfa;" d="M447 480h57v-480h-52v86q-28 -39 -76.5 -68t-109.5 -29q-88 0 -141 53t-53 142v296h57v-289q0 -73 38 -111.5t105 -38.5q58 0 102.5 32t72.5 78v329zM299 553h-62l90 142h71z" />
<glyph unicode="&#xfb;" d="M447 480h57v-480h-52v86q-28 -39 -76.5 -68t-109.5 -29q-88 0 -141 53t-53 142v296h57v-289q0 -73 38 -111.5t105 -38.5q58 0 102.5 32t72.5 78v329zM268 691h51l130 -137h-65l-90 94l-90 -94h-65z" />
<glyph unicode="&#xfc;" d="M447 480h57v-480h-52v86q-28 -39 -76.5 -68t-109.5 -29q-88 0 -141 53t-53 142v296h57v-289q0 -73 38 -111.5t105 -38.5q58 0 102.5 32t72.5 78v329zM432 616q0 -17 -12 -29t-29 -12t-29.5 12t-12.5 29t12.5 29.5t29.5 12.5t29 -12.5t12 -29.5zM231 616q0 -17 -12 -29 t-29 -12t-29.5 12t-12.5 29t12.5 29.5t29.5 12.5t29 -12.5t12 -29.5z" />
<glyph unicode="&#xfd;" horiz-adv-x="536" d="M278 63l179 417h60l-243 -559q-67 -152 -172 -152q-24 0 -51 6v50q22 -6 44 -6q42 0 73.5 30t57.5 93l24 56l-236 482h60zM269 553h-62l90 142h71z" />
<glyph unicode="&#xfe;" horiz-adv-x="618" d="M78 700h57v-313q30 45 81 74.5t118 29.5q103 0 171 -70.5t68 -180.5t-68 -180.5t-171 -70.5q-67 0 -118 29.5t-81 74.5v-313h-57v920zM516 240q0 90 -54 144.5t-135 54.5q-67 0 -119 -38.5t-74 -95.5v-130q22 -57 74 -95.5t119 -38.5q82 0 135.5 54t53.5 145z" />
<glyph unicode="&#xff;" horiz-adv-x="536" d="M278 63l179 417h60l-243 -559q-67 -152 -172 -152q-24 0 -51 6v50q22 -6 44 -6q42 0 73.5 30t57.5 93l24 56l-236 482h60zM402 616q0 -17 -12 -29t-29 -12t-29.5 12t-12.5 29t12.5 29.5t29.5 12.5t29 -12.5t12 -29.5zM201 616q0 -17 -12 -29t-29 -12t-29.5 12t-12.5 29 t12.5 29.5t29.5 12.5t29 -12.5t12 -29.5z" />
<glyph unicode="&#x100;" horiz-adv-x="713" d="M75 0h-64l312 700h67l311 -700h-64l-83 188h-395zM347 617l-165 -373h348l-165 373q-3 8 -9 22q-6 -14 -9 -22zM215 847h280v-52h-280v52z" />
<glyph unicode="&#x101;" horiz-adv-x="542" d="M455 87q0 -42 43 -42q16 0 37 7v-46q-27 -10 -52 -10q-76 0 -83 74q-75 -81 -197 -81q-69 0 -118 36.5t-49 105.5q0 82 62 119.5t150 37.5q77 0 151 -21v32q0 64 -40 102t-113 38q-92 0 -172 -34v56q85 30 178 30q96 0 149.5 -52t53.5 -147v-205zM94 134q0 -47 35 -71.5 t85 -24.5q55 0 104 24.5t81 69.5v88q-76 20 -143 20q-68 0 -115 -25.5t-47 -80.5zM107 627h280v-52h-280v52z" />
<glyph unicode="&#x102;" horiz-adv-x="713" d="M75 0h-64l312 700h67l311 -700h-64l-83 188h-395zM347 617l-165 -373h348l-165 373q-3 8 -9 22q-6 -14 -9 -22zM489 815q-56 -41 -134 -41q-79 0 -133 41v57q60 -44 133 -44t134 44v-57z" />
<glyph unicode="&#x103;" horiz-adv-x="542" d="M455 87q0 -42 43 -42q16 0 37 7v-46q-27 -10 -52 -10q-76 0 -83 74q-75 -81 -197 -81q-69 0 -118 36.5t-49 105.5q0 82 62 119.5t150 37.5q77 0 151 -21v32q0 64 -40 102t-113 38q-92 0 -172 -34v56q85 30 178 30q96 0 149.5 -52t53.5 -147v-205zM94 134q0 -47 35 -71.5 t85 -24.5q55 0 104 24.5t81 69.5v88q-76 20 -143 20q-68 0 -115 -25.5t-47 -80.5zM381 595q-56 -41 -134 -41q-79 0 -133 41v57q60 -44 133 -44t134 44v-57z" />
<glyph unicode="&#x104;" horiz-adv-x="713" d="M598 -140q-1 -22 13 -33.5t40 -11.5q33 0 65 21v-46q-33 -21 -78 -21t-69.5 23t-24.5 61q0 70 89 156l-79 179h-395l-84 -188h-64l312 700h67l311 -700q-45 -31 -74.5 -69.5t-28.5 -70.5zM347 617l-165 -373h349l-166 373q-3 8 -9 22q-6 -14 -9 -22z" />
<glyph unicode="&#x105;" horiz-adv-x="542" d="M535 52v-46q-46 -31 -75 -68t-28 -68q-1 -23 13 -36t40 -13q24 0 49 11v-45q-26 -13 -62 -13q-44 -1 -69 23t-25 61q0 70 86 140q-58 9 -64 72q-75 -81 -197 -81q-69 0 -118 36.5t-49 105.5q0 82 62 119.5t150 37.5q77 0 151 -21v32q0 64 -40 102t-113 38q-92 0 -172 -34 v56q85 30 178 30q96 0 149.5 -52t53.5 -147v-205q0 -42 43 -42q16 0 37 7zM214 38q55 0 104 24.5t81 69.5v88q-76 20 -143 20q-68 0 -115 -25.5t-47 -80.5q0 -47 35 -71.5t85 -24.5z" />
<glyph unicode="&#x106;" horiz-adv-x="656" d="M50 343q0 88 31.5 160t83.5 116.5t116 68t133 23.5q110 0 196 -47v-60q-79 51 -187 51q-59 0 -113.5 -19.5t-100 -56.5t-72.5 -98t-27 -138q0 -73 27.5 -131.5t73 -94t101 -54t114.5 -18.5q112 0 191 51v-59q-88 -48 -203 -48q-67 0 -131 23t-116.5 65.5t-84.5 111.5 t-32 154zM409 773h-62l90 142h71z" />
<glyph unicode="&#x107;" horiz-adv-x="494" d="M45 237q0 84 39.5 143.5t96.5 85t123 25.5q88 0 145 -39v-55q-56 42 -138 42q-86 0 -147.5 -51t-61.5 -150q0 -95 59.5 -146t143.5 -51q83 0 149 39v-57q-68 -34 -157 -34q-102 0 -177 64t-75 184zM310 553h-62l90 142h71z" />
<glyph unicode="&#x10a;" horiz-adv-x="656" d="M50 343q0 88 31.5 160t83.5 116.5t116 68t133 23.5q110 0 196 -47v-60q-79 51 -187 51q-59 0 -113.5 -19.5t-100 -56.5t-72.5 -98t-27 -138q0 -73 27.5 -131.5t73 -94t101 -54t114.5 -18.5q112 0 191 51v-59q-88 -48 -203 -48q-67 0 -131 23t-116.5 65.5t-84.5 111.5 t-32 154zM352 823q0 21 13.5 33t33.5 12t33 -12t13 -33q0 -22 -13 -34t-33 -12t-33.5 12t-13.5 34z" />
<glyph unicode="&#x10b;" horiz-adv-x="494" d="M45 237q0 84 39.5 143.5t96.5 85t123 25.5q88 0 145 -39v-55q-56 42 -138 42q-86 0 -147.5 -51t-61.5 -150q0 -95 59.5 -146t143.5 -51q83 0 149 39v-57q-68 -34 -157 -34q-102 0 -177 64t-75 184zM253 603q0 21 13.5 33t33.5 12t33 -12t13 -33q0 -22 -13 -34t-33 -12 t-33.5 12t-13.5 34z" />
<glyph unicode="&#x10c;" horiz-adv-x="656" d="M50 343q0 88 31.5 160t83.5 116.5t116 68t133 23.5q110 0 196 -47v-60q-79 51 -187 51q-59 0 -113.5 -19.5t-100 -56.5t-72.5 -98t-27 -138q0 -73 27.5 -131.5t73 -94t101 -54t114.5 -18.5q112 0 191 51v-59q-88 -48 -203 -48q-67 0 -131 23t-116.5 65.5t-84.5 111.5 t-32 154zM559 901l-130 -137h-51l-129 137h65l90 -94l90 94h65z" />
<glyph unicode="&#x10d;" horiz-adv-x="494" d="M45 237q0 84 39.5 143.5t96.5 85t123 25.5q88 0 145 -39v-55q-56 42 -138 42q-86 0 -147.5 -51t-61.5 -150q0 -95 59.5 -146t143.5 -51q83 0 149 39v-57q-68 -34 -157 -34q-102 0 -177 64t-75 184zM460 681l-130 -137h-51l-129 137h65l90 -94l90 94h65z" />
<glyph unicode="&#x10e;" horiz-adv-x="735" d="M97 700h217q181 0 276 -96t95 -254t-95 -254t-276 -96h-217v700zM626 350q0 136 -79.5 214.5t-231.5 78.5h-158v-586h158q152 0 231.5 78.5t79.5 214.5zM498 901l-130 -137h-51l-129 137h65l90 -94l90 94h65z" />
<glyph unicode="&#x10f;" horiz-adv-x="618" d="M618 700h56l-25 -172h-49zM484 700h56v-700h-51v99q-74 -110 -205 -110q-103 0 -171 70.5t-68 180.5t68 180.5t171 70.5q68 0 119 -29.5t81 -74.5v313zM484 305q-22 57 -74 95.5t-119 38.5q-82 0 -135.5 -54t-53.5 -145q0 -90 54 -144.5t135 -54.5q67 0 119 38.5t74 95.5 v130z" />
<glyph unicode="&#x110;" horiz-adv-x="738" d="M100 700h217q181 0 276 -96t95 -254t-95 -254t-276 -96h-217v322h-81v54h81v324zM160 57h158q152 0 231.5 78.5t79.5 214.5t-79.5 214.5t-231.5 78.5h-158v-267h224v-54h-224v-265z" />
<glyph unicode="&#x111;" horiz-adv-x="618" d="M540 624h71v-43h-71v-581h-51v99q-74 -110 -205 -110q-103 0 -171 70.5t-68 180.5t68 180.5t171 70.5q68 0 119 -29.5t81 -74.5v194h-185v43h185v76h56v-76zM291 41q67 0 119 38.5t74 95.5v130q-22 57 -74 95.5t-119 38.5q-82 0 -135.5 -54t-53.5 -145q0 -90 54 -144.5 t135 -54.5z" />
<glyph unicode="&#x112;" horiz-adv-x="621" d="M97 700h465v-57h-406v-262h376v-57h-376v-267h413v-57h-472v700zM194 847h280v-52h-280v52z" />
<glyph unicode="&#x113;" horiz-adv-x="548" d="M45 240q0 117 71.5 184t165.5 67q53 0 95 -16.5t67.5 -44.5t42.5 -64t18.5 -74.5t-4.5 -77.5h-399q5 -86 66 -129.5t149 -43.5q90 0 157 39v-56q-65 -35 -165 -35q-113 0 -188.5 64t-75.5 187zM451 264q7 63 -33.5 119t-131.5 56q-74 0 -127 -46.5t-57 -128.5h349z M142 627h280v-52h-280v52z" />
<glyph unicode="&#x116;" horiz-adv-x="621" d="M97 700h465v-57h-406v-262h376v-57h-376v-267h413v-57h-472v700zM285 823q0 21 13.5 33t33.5 12t33 -12t13 -33q0 -22 -13 -34t-33 -12t-33.5 12t-13.5 34z" />
<glyph unicode="&#x117;" horiz-adv-x="548" d="M45 240q0 117 71.5 184t165.5 67q53 0 95 -16.5t67.5 -44.5t42.5 -64t18.5 -74.5t-4.5 -77.5h-399q5 -86 66 -129.5t149 -43.5q90 0 157 39v-56q-65 -35 -165 -35q-113 0 -188.5 64t-75.5 187zM451 264q7 63 -33.5 119t-131.5 56q-74 0 -127 -46.5t-57 -128.5h349z M233 603q0 21 13.5 33t33.5 12t33 -12t13 -33q0 -22 -13 -34t-33 -12t-33.5 12t-13.5 34z" />
<glyph unicode="&#x118;" horiz-adv-x="621" d="M569 -170v-48q-31 -14 -69 -14q-44 -1 -69 23t-25 61q0 76 95 148h-404v700h465v-57h-406v-262h376v-57h-376v-267h413v-57q-49 -31 -79.5 -68t-29.5 -68q-1 -23 13 -36t40 -13q29 0 56 15z" />
<glyph unicode="&#x119;" horiz-adv-x="548" d="M463 -210q-33 -21 -78 -21q-44 -1 -69 22.5t-25 61.5q0 70 96 144q-40 -8 -78 -8q-113 0 -188.5 64t-75.5 187q0 117 71.5 184t165.5 67q65 0 114.5 -25.5t73 -65.5t33.5 -89t-2 -97h-399q5 -86 66 -129.5t149 -43.5q90 0 157 39v-56q-130 -98 -129 -160q-1 -22 13 -35 t40 -14q35 2 65 21v-46zM286 439q-74 0 -127 -46.5t-57 -128.5h349q7 63 -33.5 119t-131.5 56z" />
<glyph unicode="&#x11a;" horiz-adv-x="621" d="M97 700h465v-57h-406v-262h376v-57h-376v-267h413v-57h-472v700zM492 901l-130 -137h-51l-129 137h65l90 -94l90 94h65z" />
<glyph unicode="&#x11b;" horiz-adv-x="548" d="M45 240q0 117 71.5 184t165.5 67q53 0 95 -16.5t67.5 -44.5t42.5 -64t18.5 -74.5t-4.5 -77.5h-399q5 -86 66 -129.5t149 -43.5q90 0 157 39v-56q-65 -35 -165 -35q-113 0 -188.5 64t-75.5 187zM451 264q7 63 -33.5 119t-131.5 56q-74 0 -127 -46.5t-57 -128.5h349z M440 681l-130 -137h-51l-129 137h65l90 -94l90 94h65z" />
<glyph unicode="&#x11e;" horiz-adv-x="707" d="M49 350q0 89 31.5 159.5t84.5 113.5t118 65.5t136 22.5q115 0 207 -46v-60q-83 50 -199 50q-61 0 -116 -18t-101 -53t-73.5 -95.5t-27.5 -138.5q0 -80 27.5 -141t74.5 -95.5t102.5 -51.5t117.5 -17q84 0 153 32v292h60v-333q-100 -47 -217 -47q-74 0 -139.5 20.5 t-120 61.5t-86.5 113t-32 166zM538 815q-56 -41 -134 -41q-79 0 -133 41v57q60 -44 133 -44t134 44v-57z" />
<glyph unicode="&#x11f;" horiz-adv-x="618" d="M45 240q0 110 68 180.5t171 70.5q131 0 205 -110v99h51v-480q0 -115 -74.5 -173t-182.5 -58q-104 0 -192 45v55q88 -48 185 -48q90 0 149 43.5t59 135.5v95q-29 -47 -80.5 -76.5t-119.5 -29.5q-103 0 -171 70.5t-68 180.5zM484 305q-22 57 -74 95.5t-119 38.5 q-82 0 -135.5 -54t-53.5 -145q0 -90 54 -144.5t135 -54.5q67 0 119 36.5t74 90.5v137zM424 595q-56 -41 -134 -41q-79 0 -133 41v57q60 -44 133 -44t134 44v-57z" />
<glyph unicode="&#x120;" horiz-adv-x="707" d="M49 350q0 89 31.5 159.5t84.5 113.5t118 65.5t136 22.5q115 0 207 -46v-60q-83 50 -199 50q-61 0 -116 -18t-101 -53t-73.5 -95.5t-27.5 -138.5q0 -80 27.5 -141t74.5 -95.5t102.5 -51.5t117.5 -17q84 0 153 32v292h60v-333q-100 -47 -217 -47q-74 0 -139.5 20.5 t-120 61.5t-86.5 113t-32 166zM355 823q0 21 13.5 33t33.5 12t33 -12t13 -33q0 -22 -13 -34t-33 -12t-33.5 12t-13.5 34z" />
<glyph unicode="&#x121;" horiz-adv-x="618" d="M45 240q0 110 68 180.5t171 70.5q131 0 205 -110v99h51v-480q0 -115 -74.5 -173t-182.5 -58q-104 0 -192 45v55q88 -48 185 -48q90 0 149 43.5t59 135.5v95q-29 -47 -80.5 -76.5t-119.5 -29.5q-103 0 -171 70.5t-68 180.5zM484 305q-22 57 -74 95.5t-119 38.5 q-82 0 -135.5 -54t-53.5 -145q0 -90 54 -144.5t135 -54.5q67 0 119 36.5t74 90.5v137zM241 603q0 21 13.5 33t33.5 12t33 -12t13 -33q0 -22 -13 -34t-33 -12t-33.5 12t-13.5 34z" />
<glyph unicode="&#x122;" horiz-adv-x="707" d="M49 350q0 89 31.5 159.5t84.5 113.5t118 65.5t136 22.5q115 0 207 -46v-60q-83 50 -199 50q-61 0 -116 -18t-101 -53t-73.5 -95.5t-27.5 -138.5q0 -80 27.5 -141t74.5 -95.5t102.5 -51.5t117.5 -17q84 0 153 32v292h60v-333q-100 -47 -217 -47q-74 0 -139.5 20.5 t-120 61.5t-86.5 113t-32 166zM419 -234h-50l23 180h57z" />
<glyph unicode="&#x123;" horiz-adv-x="618" d="M320 548h-56l28 159h50zM45 240q0 110 68 180.5t171 70.5q131 0 205 -110v99h51v-480q0 -115 -74.5 -173t-182.5 -58q-104 0 -192 45v55q88 -48 185 -48q90 0 149 43.5t59 135.5v95q-29 -47 -80.5 -76.5t-119.5 -29.5q-103 0 -171 70.5t-68 180.5zM484 305 q-22 57 -74 95.5t-119 38.5q-82 0 -135.5 -54t-53.5 -145q0 -90 54 -144.5t135 -54.5q67 0 119 36.5t74 90.5v137z" />
<glyph unicode="&#x126;" horiz-adv-x="770" d="M158 0h-59v510h-76v50h76v140h59v-140h454v140h59v-140h76v-50h-76v-510h-59v323h-454v-323zM158 510v-130h453v130h-453z" />
<glyph unicode="&#x127;" d="M135 400q29 37 76 64t104 27q85 0 140 -53.5t55 -141.5v-296h-57v289q0 72 -40 111t-104 39q-57 0 -101.5 -32t-72.5 -78v-329h-57v573h-66v44h66v83h57v-83h188v-44h-188v-173z" />
<glyph unicode="&#x12a;" horiz-adv-x="253" d="M97 700h59v-700h-59v700zM-12 847h280v-52h-280v52z" />
<glyph unicode="&#x12b;" horiz-adv-x="219" d="M0 635h220v-53h-220v53zM81 480h57v-480h-57v480z" />
<glyph unicode="&#x12e;" horiz-adv-x="254" d="M74 -136q-1 -23 13 -36t40 -13q34 0 65 20v-49q-33 -18 -78 -18q-44 -1 -69 23t-25 61q0 62 78 155v693h59v-700q-82 -83 -83 -136z" />
<glyph unicode="&#x12f;" horiz-adv-x="219" d="M148 626q0 -19 -11 -28.5t-28 -9.5q-16 0 -27.5 10t-11.5 28q0 17 11.5 27.5t27.5 10.5t27.5 -10.5t11.5 -27.5zM75 -136q-1 -23 13 -36t40 -13q34 0 65 20v-50q-31 -17 -78 -17q-44 -1 -69 23t-25 61q0 64 60 148v480h57v-480q-64 -88 -63 -136z" />
<glyph unicode="&#x130;" horiz-adv-x="253" d="M97 700h59v-700h-59v700zM79 823q0 21 13.5 33t33.5 12t33 -12t13 -33q0 -22 -13 -34t-33 -12t-33.5 12t-13.5 34z" />
<glyph unicode="&#x131;" horiz-adv-x="219" d="M81 480h57v-480h-57v480z" />
<glyph unicode="&#x132;" horiz-adv-x="769" d="M97 700h59v-700h-59v700zM403 700h275v-508q0 -101 -61 -151.5t-161 -50.5q-111 0 -180 43v59q68 -45 170 -45q173 0 173 147v449h-216v57z" />
<glyph unicode="&#x133;" horiz-adv-x="437" d="M138 0h-57v480h57v-480zM147 626q0 -18 -11 -28t-27 -10q-17 0 -28 9.5t-11 28.5q0 17 11.5 27.5t27.5 10.5t27 -10.5t11 -27.5zM356 -100q0 -71 -37 -101t-92 -30q-41 0 -71 12v53q23 -11 57 -11q87 0 87 85v572h56v-580zM366 626q0 -19 -11 -28.5t-28 -9.5 q-16 0 -27.5 10t-11.5 28q0 17 11.5 27.5t27.5 10.5t27.5 -10.5t11.5 -27.5z" />
<glyph unicode="&#x136;" horiz-adv-x="660" d="M156 0h-59v700h59v-314h183l226 314h68l-245 -341l269 -359h-69l-247 330h-185v-330zM357 -224h-50l23 180h57z" />
<glyph unicode="&#x137;" horiz-adv-x="509" d="M505 0h-67l-195 219h-108v-219h-57v700h57v-428h111l168 208h66l-189 -236zM273 -224h-50l23 180h57z" />
<glyph unicode="&#x139;" horiz-adv-x="577" d="M97 700h59v-643h405v-57h-464v700zM141 773h-62l90 142h71z" />
<glyph unicode="&#x13a;" horiz-adv-x="219" d="M81 730h57v-730h-57v730zM130 776h-62l90 142h71z" />
<glyph unicode="&#x13b;" horiz-adv-x="577" d="M97 700h59v-643h405v-57h-464v700zM329 -224h-50l23 180h57z" />
<glyph unicode="&#x13c;" horiz-adv-x="219" d="M81 730h57v-730h-57v730zM111 -224h-50l23 180h57z" />
<glyph unicode="&#x13d;" horiz-adv-x="577" d="M373 700h56l-25 -172h-49zM97 700h59v-643h405v-57h-464v700z" />
<glyph unicode="&#x13e;" horiz-adv-x="219" d="M218 730h56l-25 -172h-49zM81 730h57v-730h-57v730z" />
<glyph unicode="&#x13f;" d="M396 343q0 -18 -11.5 -28.5t-28.5 -10.5t-28.5 10.5t-11.5 28.5q0 19 11.5 29t28.5 10t28.5 -10t11.5 -29zM97 700h59v-643h405v-57h-464v700z" />
<glyph unicode="&#x140;" horiz-adv-x="267" d="M81 730h57v-730h-57v730zM283 350q0 -18 -11.5 -28.5t-28.5 -10.5t-28.5 10.5t-11.5 28.5t11.5 28.5t28.5 10.5t28.5 -10.5t11.5 -28.5z" />
<glyph unicode="&#x141;" horiz-adv-x="583" d="M567 0h-464v279l-87 -37v50l87 37v371h59v-348l223 95v-50l-223 -95v-245h405v-57z" />
<glyph unicode="&#x142;" horiz-adv-x="262" d="M103 730h57v-320l86 37v-50l-86 -38v-359h-57v337l-86 -37v50l86 38v342z" />
<glyph unicode="&#x143;" horiz-adv-x="766" d="M156 0h-59v700h54l459 -599v60v539h59v-700h-54l-459 600v-60v-540zM392 773h-62l90 142h71z" />
<glyph unicode="&#x144;" d="M129 394q28 39 77 68t109 29q85 0 140 -53.5t55 -141.5v-296h-57v289q0 72 -40 111t-104 39q-57 0 -101.5 -32t-72.5 -78v-329h-57v480h51v-86zM300 553h-62l90 142h71z" />
<glyph unicode="&#x145;" horiz-adv-x="766" d="M156 0h-59v700h54l459 -599v60v539h59v-700h-54l-459 600v-60v-540zM394 -224h-50l23 180h57z" />
<glyph unicode="&#x146;" d="M129 394q28 39 77 68t109 29q85 0 140 -53.5t55 -141.5v-296h-57v289q0 72 -40 111t-104 39q-57 0 -101.5 -32t-72.5 -78v-329h-57v480h51v-86zM298 -224h-50l23 180h57z" />
<glyph unicode="&#x147;" horiz-adv-x="766" d="M156 0h-59v700h54l459 -599v60v539h59v-700h-54l-459 600v-60v-540zM542 901l-130 -137h-51l-129 137h65l90 -94l90 94h65z" />
<glyph unicode="&#x148;" d="M129 394q28 39 77 68t109 29q85 0 140 -53.5t55 -141.5v-296h-57v289q0 72 -40 111t-104 39q-57 0 -101.5 -32t-72.5 -78v-329h-57v480h51v-86zM450 681l-130 -137h-51l-129 137h65l90 -94l90 94h65z" />
<glyph unicode="&#x14a;" horiz-adv-x="766" d="M669 -95q0 -69 -37 -102t-95 -33q-35 0 -71 11v55q25 -9 58 -9q86 0 86 85v95l-454 593v-60v-540h-59v700h54l459 -599v60v539h59v-795z" />
<glyph unicode="&#x14b;" d="M510 -100q0 -71 -37.5 -101t-91.5 -30q-42 0 -72 12v53q28 -13 57 -13q87 0 87 87v381q0 72 -40 111t-104 39q-57 0 -101.5 -32t-72.5 -78v-329h-57v480h51v-86q28 39 77 68t109 29q85 0 140 -53.5t55 -141.5v-396z" />
<glyph unicode="&#x14c;" horiz-adv-x="824" d="M48 350q0 68 23 131.5t67 115.5t115 83t159 31t159 -31t115 -83t67 -115.5t23 -131.5t-23 -131.5t-67 -115.5t-115 -83t-159 -31t-159 31t-115 83t-67 115.5t-23 131.5zM716 350q0 79 -32 146.5t-103 113t-169 45.5t-169 -45.5t-103 -113t-32 -146.5t32 -146.5t103 -113 t169 -45.5t169 45.5t103 113t32 146.5zM272 847h280v-52h-280v52z" />
<glyph unicode="&#x14d;" horiz-adv-x="595" d="M45 240q0 116 74.5 183.5t177.5 67.5q104 0 178.5 -67.5t74.5 -183.5t-74.5 -183.5t-178.5 -67.5q-103 0 -177.5 67.5t-74.5 183.5zM493 240q0 91 -56 144t-139 53t-139.5 -53t-56.5 -144t56.5 -144t139.5 -53t139 53t56 144zM157 624h280v-52h-280v52z" />
<glyph unicode="&#x150;" horiz-adv-x="824" d="M48 350q0 68 23 131.5t67 115.5t115 83t159 31t159 -31t115 -83t67 -115.5t23 -131.5t-23 -131.5t-67 -115.5t-115 -83t-159 -31t-159 31t-115 83t-67 115.5t-23 131.5zM716 350q0 79 -32 146.5t-103 113t-169 45.5t-169 -45.5t-103 -113t-32 -146.5t32 -146.5t103 -113 t169 -45.5t169 45.5t103 113t32 146.5zM514 779h-61l72 145h64zM361 779h-61l72 145h64z" />
<glyph unicode="&#x151;" horiz-adv-x="595" d="M45 240q0 116 74.5 183.5t177.5 67.5q104 0 178.5 -67.5t74.5 -183.5t-74.5 -183.5t-178.5 -67.5q-103 0 -177.5 67.5t-74.5 183.5zM493 240q0 91 -56 144t-139 53t-139.5 -53t-56.5 -144t56.5 -144t139.5 -53t139 53t56 144zM399 556h-61l72 145h64zM246 556h-61l72 145 h64z" />
<glyph unicode="&#x152;" horiz-adv-x="1027" d="M534 0q-49 -11 -122 -11q-88 0 -159 31t-115 83t-67 115.5t-23 131.5t23 131.5t67 115.5t115 83t159 31q73 0 122 -11h435v-57h-376v-262h346v-57h-346v-267h382v-57h-441zM110 350q0 -127 82 -216t224 -89q65 0 119 14v582q-54 14 -119 14q-142 0 -224 -89t-82 -216z " />
<glyph unicode="&#x153;" horiz-adv-x="987" d="M517 130q-29 -68 -88.5 -104.5t-133.5 -36.5q-103 0 -176.5 67.5t-73.5 183.5t73.5 183.5t176.5 67.5q75 0 134.5 -37t87.5 -104q27 67 84 104t123 37q52 0 94 -17t67 -45t41.5 -64.5t18 -76t-4.5 -79.5h-394q6 -83 67 -125.5t145 -42.5q85 0 152 39v-53 q-65 -38 -164 -38q-76 0 -139 35.5t-90 105.5zM102 240q0 -91 55 -144t139 -53q83 0 138 53t55 144t-55 144t-138 53q-84 0 -139 -53t-55 -144zM727 439q-73 0 -125 -47.5t-56 -132.5h344q7 66 -32.5 123t-130.5 57z" />
<glyph unicode="&#x154;" horiz-adv-x="690" d="M156 0h-59v700h269q49 0 92 -11t81 -34t60.5 -65t22.5 -98q0 -93 -58 -143t-144 -61l249 -288h-74l-244 283h-195v-283zM157 643v-303h213q80 0 136 36t56 116t-55.5 115.5t-136.5 35.5h-213zM346 773h-62l90 142h71z" />
<glyph unicode="&#x155;" horiz-adv-x="354" d="M129 369q27 55 85 90t127 31v-57q-76 6 -131 -34.5t-75 -105.5v-293h-57v480h51v-111zM207 553h-62l90 142h71z" />
<glyph unicode="&#x156;" horiz-adv-x="690" d="M156 0h-59v700h269q49 0 92 -11t81 -34t60.5 -65t22.5 -98q0 -93 -58 -143t-144 -61l249 -288h-74l-244 283h-195v-283zM157 643v-303h213q80 0 136 36t56 116t-55.5 115.5t-136.5 35.5h-213zM359 -224h-50l23 180h57z" />
<glyph unicode="&#x157;" horiz-adv-x="354" d="M129 369q27 55 85 90t127 31v-57q-76 6 -131 -34.5t-75 -105.5v-293h-57v480h51v-111zM104 -224h-50l23 180h57z" />
<glyph unicode="&#x158;" horiz-adv-x="690" d="M156 0h-59v700h269q49 0 92 -11t81 -34t60.5 -65t22.5 -98q0 -93 -58 -143t-144 -61l249 -288h-74l-244 283h-195v-283zM157 643v-303h213q80 0 136 36t56 116t-55.5 115.5t-136.5 35.5h-213zM496 901l-130 -137h-51l-129 137h65l90 -94l90 94h65z" />
<glyph unicode="&#x159;" horiz-adv-x="354" d="M129 369q27 55 85 90t127 31v-57q-76 6 -131 -34.5t-75 -105.5v-293h-57v480h51v-111zM357 681l-130 -137h-51l-129 137h65l90 -94l90 94h65z" />
<glyph unicode="&#x15a;" horiz-adv-x="577" d="M54 533q0 86 67 132t164 46q121 0 206 -49v-60q-84 53 -202 53q-77 0 -126 -29.5t-49 -90.5q0 -40 23.5 -68.5t61 -46t83 -32t91 -31t83 -38.5t61 -60t23.5 -89q0 -63 -36 -105t-90 -59.5t-122 -16.5q-132 0 -239 59v59q106 -62 235 -62q85 0 138.5 29t53.5 92 q0 42 -23.5 72.5t-61 48.5t-83 33t-91 31.5t-83 37.5t-61 57.5t-23.5 86.5zM286 773h-62l90 142h71z" />
<glyph unicode="&#x15b;" horiz-adv-x="461" d="M50 360q0 66 52 98.5t124 32.5q94 0 167 -41v-54q-69 44 -163 44q-51 0 -87 -19.5t-36 -59.5q0 -34 32.5 -56t79.5 -34.5t93.5 -27t79 -45.5t32.5 -79q0 -67 -54 -98.5t-136 -31.5q-114 0 -185 47v56q76 -51 182 -51q136 0 136 76q0 34 -32.5 55.5t-79.5 34t-93.5 27.5 t-79 46.5t-32.5 79.5zM232 553h-62l90 142h71z" />
<glyph unicode="&#x15e;" horiz-adv-x="576" d="M114 535q0 -40 23.5 -68.5t61 -46t83 -32t91 -31t83 -38.5t61 -60t23.5 -89q0 -85 -60.5 -129.5t-155.5 -50.5l-16 -64q48 6 79.5 -12.5t32.5 -56.5q1 -42 -32 -65t-92 -23q-55 0 -98 20v49q41 -23 92 -23q81 0 81 44q0 25 -39 33t-81 -3l23 100q-122 3 -221 59v59 q106 -62 235 -62q85 0 138.5 29t53.5 92q0 42 -23.5 72.5t-61 48.5t-83 33t-91 31.5t-83 37.5t-61 57.5t-23.5 86.5q0 86 67 132t164 46q121 0 206 -49v-60q-84 53 -202 53q-77 0 -126 -29.5t-49 -90.5z" />
<glyph unicode="&#x15f;" horiz-adv-x="461" d="M107 361q0 -34 32.5 -56t79.5 -34.5t93.5 -27t79 -45.5t32.5 -79q0 -60 -44 -91.5t-115 -37.5l-14 -64q48 6 79.5 -12.5t32.5 -56.5q1 -42 -32 -65t-92 -23q-55 0 -98 20v49q41 -23 92 -23q81 0 81 44q0 25 -39 33t-81 -3l22 100q-102 5 -167 47v56q76 -51 182 -51 q136 0 136 76q0 34 -32.5 55.5t-79.5 34t-93.5 27.5t-79 46.5t-32.5 79.5q0 66 52 98.5t124 32.5q94 0 167 -41v-54q-69 44 -163 44q-51 0 -87 -19.5t-36 -59.5z" />
<glyph unicode="&#x160;" horiz-adv-x="577" d="M54 533q0 86 67 132t164 46q121 0 206 -49v-60q-84 53 -202 53q-77 0 -126 -29.5t-49 -90.5q0 -40 23.5 -68.5t61 -46t83 -32t91 -31t83 -38.5t61 -60t23.5 -89q0 -63 -36 -105t-90 -59.5t-122 -16.5q-132 0 -239 59v59q106 -62 235 -62q85 0 138.5 29t53.5 92 q0 42 -23.5 72.5t-61 48.5t-83 33t-91 31.5t-83 37.5t-61 57.5t-23.5 86.5zM436 901l-130 -137h-51l-129 137h65l90 -94l90 94h65z" />
<glyph unicode="&#x161;" horiz-adv-x="461" d="M50 360q0 66 52 98.5t124 32.5q94 0 167 -41v-54q-69 44 -163 44q-51 0 -87 -19.5t-36 -59.5q0 -34 32.5 -56t79.5 -34.5t93.5 -27t79 -45.5t32.5 -79q0 -67 -54 -98.5t-136 -31.5q-114 0 -185 47v56q76 -51 182 -51q136 0 136 76q0 34 -32.5 55.5t-79.5 34t-93.5 27.5 t-79 46.5t-32.5 79.5zM382 681l-130 -137h-51l-129 137h65l90 -94l90 94h65z" />
<glyph unicode="&#x162;" horiz-adv-x="599" d="M14 700h571v-57h-256v-643h-59v643h-256v57zM300 -224h-50l23 180h57z" />
<glyph unicode="&#x163;" horiz-adv-x="393" d="M106 633l56 15v-168h201v-53h-201v-278q0 -56 27 -81t84 -25q54 0 105 22v-52q-53 -23 -120 -23q-71 0 -111.5 38t-40.5 111v288h-90v53h90v153zM244 -224h-50l23 180h57z" />
<glyph unicode="&#x164;" horiz-adv-x="599" d="M14 700h571v-57h-256v-643h-59v643h-256v57zM460 901l-130 -137h-51l-129 137h65l90 -94l90 94h65z" />
<glyph unicode="&#x165;" horiz-adv-x="393" d="M263 730h56l-25 -166h-49zM106 633l56 15v-168h201v-53h-201v-278q0 -56 27 -81t84 -25q54 0 105 22v-52q-53 -23 -120 -23q-71 0 -111.5 38t-40.5 111v288h-90v53h90v153z" />
<glyph unicode="&#x166;" horiz-adv-x="609" d="M334 0h-59v327h-128v50h128v266h-256v57h571v-57h-256v-266h128v-50h-128v-327z" />
<glyph unicode="&#x167;" horiz-adv-x="393" d="M162 149q0 -56 27 -81t84 -25q54 0 105 22v-52q-53 -23 -120 -23q-71 0 -111.5 38t-40.5 111v112h-51v50h51v126h-90v53h90v153l56 15v-168h201v-53h-201v-126h161v-50h-161v-102z" />
<glyph unicode="&#x16a;" horiz-adv-x="751" d="M603 700h59v-450q0 -137 -79 -199t-207 -62q-61 0 -111 14t-90.5 43t-63 81t-22.5 123v450h59v-448q0 -207 228 -207q227 0 227 207v448zM235 847h280v-52h-280v52z" />
<glyph unicode="&#x16b;" d="M447 480h57v-480h-52v86q-28 -39 -76.5 -68t-109.5 -29q-88 0 -141 53t-53 142v296h57v-289q0 -73 38 -111.5t105 -38.5q58 0 102.5 32t72.5 78v329zM151 627h280v-52h-280v52z" />
<glyph unicode="&#x16e;" horiz-adv-x="751" d="M603 700h59v-450q0 -137 -79 -199t-207 -62q-61 0 -111 14t-90.5 43t-63 81t-22.5 123v450h59v-448q0 -207 228 -207q227 0 227 207v448zM476 849q0 -44 -30 -71.5t-72 -27.5t-72.5 27.5t-30.5 71.5q0 43 30.5 70t72.5 27q41 0 71.5 -27t30.5 -70zM315 848 q0 -27 17.5 -42.5t41.5 -15.5t41.5 15.5t17.5 42.5q0 26 -17.5 42t-41.5 16t-41.5 -16t-17.5 -42z" />
<glyph unicode="&#x16f;" d="M447 480h57v-480h-52v86q-28 -39 -76.5 -68t-109.5 -29q-88 0 -141 53t-53 142v296h57v-289q0 -73 38 -111.5t105 -38.5q58 0 102.5 32t72.5 78v329zM392 629q0 -44 -30 -71.5t-72 -27.5t-72.5 27.5t-30.5 71.5q0 43 30.5 70t72.5 27q41 0 71.5 -27t30.5 -70zM231 628 q0 -27 17.5 -42.5t41.5 -15.5t41.5 15.5t17.5 42.5q0 26 -17.5 42t-41.5 16t-41.5 -16t-17.5 -42z" />
<glyph unicode="&#x170;" horiz-adv-x="751" d="M603 700h59v-450q0 -137 -79 -199t-207 -62q-61 0 -111 14t-90.5 43t-63 81t-22.5 123v450h59v-448q0 -207 228 -207q227 0 227 207v448zM477 779h-61l72 145h64zM324 779h-61l72 145h64z" />
<glyph unicode="&#x171;" d="M447 480h57v-480h-52v86q-28 -39 -76.5 -68t-109.5 -29q-88 0 -141 53t-53 142v296h57v-289q0 -73 38 -111.5t105 -38.5q58 0 102.5 32t72.5 78v329zM393 559h-61l72 145h64zM240 559h-61l72 145h64z" />
<glyph unicode="&#x172;" horiz-adv-x="751" d="M558 -211q-33 -21 -78 -21q-44 -1 -69 23t-25 61q0 33 21 73.5t55 73.5q-37 -10 -86 -10q-61 0 -111 14t-90.5 43t-63 81t-22.5 123v450h59v-448q0 -207 228 -207q227 0 227 207v448h59v-450q0 -145 -96 -212q-62 -43 -94 -91t-32 -83q0 -23 14 -36t40 -13q33 0 64 20 v-46z" />
<glyph unicode="&#x173;" d="M504 480v-480q-45 -30 -73 -68t-27 -69q-1 -22 12.5 -35t37.5 -13q26 0 50 12v-47q-30 -11 -63 -11q-43 0 -67 22.5t-24 59.5q0 74 102 167v68q-28 -39 -76.5 -68t-109.5 -29q-88 0 -141 53t-53 142v296h57v-289q0 -73 38 -111.5t105 -38.5q58 0 102.5 32t72.5 78v329h57 z" />
<glyph unicode="&#x174;" horiz-adv-x="1004" d="M917 700h65l-222 -700h-66l-192 598l-193 -598h-65l-222 700h65l190 -626l198 623h54l198 -623zM479 911h51l130 -137h-65l-90 94l-90 -94h-65z" />
<glyph unicode="&#x175;" horiz-adv-x="801" d="M718 480h60l-173 -480h-61l-144 400l-144 -400h-60l-173 480h60l143 -416l148 413h52l148 -413zM377 691h51l130 -137h-65l-90 94l-90 -94h-65z" />
<glyph unicode="&#x176;" horiz-adv-x="644" d="M352 0h-60v273l-275 427h66l239 -373l239 373h66l-275 -427v-273zM300 911h51l130 -137h-65l-90 94l-90 -94h-65z" />
<glyph unicode="&#x177;" horiz-adv-x="536" d="M278 63l179 417h60l-243 -559q-67 -152 -172 -152q-24 0 -51 6v50q22 -6 44 -6q42 0 73.5 30t57.5 93l24 56l-236 482h60zM238 691h51l130 -137h-65l-90 94l-90 -94h-65z" />
<glyph unicode="&#x178;" horiz-adv-x="644" d="M352 0h-60v273l-275 427h66l239 -373l239 373h66l-275 -427v-273zM464 836q0 -17 -12 -29t-29 -12t-29.5 12t-12.5 29t12.5 29.5t29.5 12.5t29 -12.5t12 -29.5zM263 836q0 -17 -12 -29t-29 -12t-29.5 12t-12.5 29t12.5 29.5t29.5 12.5t29 -12.5t12 -29.5z" />
<glyph unicode="&#x179;" horiz-adv-x="580" d="M548 0h-517v53l433 590h-419v57h491v-53l-434 -590h446v-57zM303 773h-62l90 142h71z" />
<glyph unicode="&#x17a;" horiz-adv-x="456" d="M47 480h360v-50l-305 -380h321v-50h-389v50l306 380h-293v50zM242 553h-62l90 142h71z" />
<glyph unicode="&#x17b;" horiz-adv-x="580" d="M548 0h-517v53l433 590h-419v57h491v-53l-434 -590h446v-57zM246 823q0 21 13.5 33t33.5 12t33 -12t13 -33q0 -22 -13 -34t-33 -12t-33.5 12t-13.5 34z" />
<glyph unicode="&#x17c;" horiz-adv-x="456" d="M47 480h360v-50l-305 -380h321v-50h-389v50l306 380h-293v50zM185 603q0 21 13.5 33t33.5 12t33 -12t13 -33q0 -22 -13 -34t-33 -12t-33.5 12t-13.5 34z" />
<glyph unicode="&#x17d;" horiz-adv-x="580" d="M548 0h-517v53l433 590h-419v57h491v-53l-434 -590h446v-57zM453 901l-130 -137h-51l-129 137h65l90 -94l90 94h65z" />
<glyph unicode="&#x17e;" horiz-adv-x="456" d="M47 480h360v-50l-305 -380h321v-50h-389v50l306 380h-293v50zM392 681l-130 -137h-51l-129 137h65l90 -94l90 94h65z" />
<glyph unicode="&#x218;" horiz-adv-x="577" d="M54 533q0 86 67 132t164 46q121 0 206 -49v-60q-84 53 -202 53q-77 0 -126 -29.5t-49 -90.5q0 -40 23.5 -68.5t61 -46t83 -32t91 -31t83 -38.5t61 -60t23.5 -89q0 -63 -36 -105t-90 -59.5t-122 -16.5q-132 0 -239 59v59q106 -62 235 -62q85 0 138.5 29t53.5 92 q0 42 -23.5 72.5t-61 48.5t-83 33t-91 31.5t-83 37.5t-61 57.5t-23.5 86.5zM293 -224h-50l23 180h57z" />
<glyph unicode="&#x219;" horiz-adv-x="461" d="M50 360q0 66 52 98.5t124 32.5q94 0 167 -41v-54q-69 44 -163 44q-51 0 -87 -19.5t-36 -59.5q0 -34 32.5 -56t79.5 -34.5t93.5 -27t79 -45.5t32.5 -79q0 -67 -54 -98.5t-136 -31.5q-114 0 -185 47v56q76 -51 182 -51q136 0 136 76q0 34 -32.5 55.5t-79.5 34t-93.5 27.5 t-79 46.5t-32.5 79.5zM239 -224h-50l23 180h57z" />
<glyph unicode="&#x21a;" horiz-adv-x="599" d="M14 700h571v-57h-256v-643h-59v643h-256v57zM300 -224h-50l23 180h57z" />
<glyph unicode="&#x21b;" horiz-adv-x="393" d="M106 633l56 15v-168h201v-53h-201v-278q0 -56 27 -81t84 -25q54 0 105 22v-52q-53 -23 -120 -23q-71 0 -111.5 38t-40.5 111v288h-90v53h90v153zM244 -224h-50l23 180h57z" />
<glyph unicode="&#x2c6;" horiz-adv-x="299" d="M124 911h51l130 -137h-65l-90 94l-90 -94h-65z" />
<glyph unicode="&#x2c7;" horiz-adv-x="299" d="M305 901l-130 -137h-51l-129 137h65l90 -94l90 94h65z" />
<glyph unicode="&#x2d8;" horiz-adv-x="329" d="M298 815q-56 -41 -134 -41q-79 0 -133 41v57q60 -44 133 -44t134 44v-57z" />
<glyph unicode="&#x2d9;" horiz-adv-x="101" d="M4 823q0 21 13.5 33t33.5 12t33 -12t13 -33q0 -22 -13 -34t-33 -12t-33.5 12t-13.5 34z" />
<glyph unicode="&#x2da;" horiz-adv-x="213" d="M209 849q0 -44 -30 -71.5t-72 -27.5t-72.5 27.5t-30.5 71.5q0 43 30.5 70t72.5 27q41 0 71.5 -27t30.5 -70zM48 848q0 -27 17.5 -42.5t41.5 -15.5t41.5 15.5t17.5 42.5q0 26 -17.5 42t-41.5 16t-41.5 -16t-17.5 -42z" />
<glyph unicode="&#x2db;" horiz-adv-x="210" d="M104 0h68q-46 -31 -75 -68t-28 -68q-1 -23 13 -36t40 -13q34 0 65 20v-46q-33 -21 -78 -21q-44 -1 -69 23t-25 61q0 75 89 148z" />
<glyph unicode="&#x2dc;" horiz-adv-x="333" d="M322 866q6 -43 -15 -67.5t-57 -24.5q-32 0 -86 24t-70 24q-18 0 -26.5 -12t-6.5 -31h-50q-6 42 15 67.5t55 25.5q31 0 86 -24t71 -24q37 0 34 42h50z" />
<glyph unicode="&#x2dd;" horiz-adv-x="343" d="M241 779h-61l72 145h64zM88 779h-61l72 145h64z" />
<glyph unicode="&#x326;" horiz-adv-x="120" d="M70 -224h-50l23 180h57z" />
<glyph unicode="&#x401;" horiz-adv-x="619" d="M475 836q0 -17 -12 -29t-29 -12t-29.5 12t-12.5 29t12.5 29.5t29.5 12.5t29 -12.5t12 -29.5zM274 836q0 -17 -12 -29t-29 -12t-29.5 12t-12.5 29t12.5 29.5t29.5 12.5t29 -12.5t12 -29.5zM97 700h465v-57h-406v-262h376v-57h-376v-267h413v-57h-472v700z" />
<glyph unicode="&#x410;" horiz-adv-x="713" d="M75 0h-64l312 700h67l311 -700h-64l-83 188h-395zM347 617l-165 -373h348l-165 373q-3 8 -9 22q-6 -14 -9 -22z" />
<glyph unicode="&#x411;" horiz-adv-x="662" d="M156 408h192q276 0 276 -204t-276 -204h-251v700h474v-57h-415v-235zM157 57h194q47 0 80.5 5t66 19.5t49.5 45t17 77.5t-17 77.5t-49.5 45t-66 19.5t-80.5 5h-194v-294z" />
<glyph unicode="&#x412;" horiz-adv-x="685" d="M97 700h272q110 0 173.5 -44.5t63.5 -131.5q0 -65 -36.5 -104.5t-89.5 -51.5q62 -13 107.5 -55t46.5 -123q0 -46 -18 -81.5t-44.5 -55.5t-63.5 -32.5t-69 -16.5t-68 -4h-274v700zM574 196q0 140 -185 140h-232v-279h203q35 0 60 2t56 10t51 22t33.5 41t13.5 64zM546 516 q0 127 -181 127h-208v-251h237q65 0 108.5 30.5t43.5 93.5z" />
<glyph unicode="&#x413;" horiz-adv-x="567" d="M156 0h-59v700h456v-57h-397v-643z" />
<glyph unicode="&#x414;" horiz-adv-x="758" d="M75 -170h-57v227h79q122 219 122 643h420v-643h87v-227h-57v170h-594v-170zM280 643q-13 -391 -116 -586h416v586h-300z" />
<glyph unicode="&#x415;" horiz-adv-x="619" d="M97 700h465v-57h-406v-262h376v-57h-376v-267h413v-57h-472v700z" />
<glyph unicode="&#x416;" horiz-adv-x="935" d="M77 0h-68l234 359l-210 341h68l189 -314h148v314h59v-314h147l190 314h68l-210 -341l234 -359h-68l-215 330h-146v-330h-59v330h-147z" />
<glyph unicode="&#x417;" horiz-adv-x="607" d="M557 188q0 -53 -24 -93t-64.5 -62.5t-87 -33t-96.5 -10.5q-138 0 -245 43v60q101 -47 241 -47q56 0 102 12.5t80 47.5t34 89q0 53 -33.5 86t-78 44.5t-100.5 11.5h-138v56h132q86 0 137.5 34.5t51.5 95.5q0 68 -54 100.5t-144 32.5q-115 0 -218 -48v60q98 44 222 44 q112 0 183 -46.5t71 -135.5q0 -64 -38 -106t-101 -57q69 -11 118.5 -54.5t49.5 -123.5z" />
<glyph unicode="&#x418;" horiz-adv-x="766" d="M669 0h-59v540v60l-459 -600h-54v700h59v-539v-60l459 599h54v-700z" />
<glyph unicode="&#x419;" horiz-adv-x="766" d="M610 0h59v700h-54l-459 -599v60v539h-59v-700h54l459 600v-60v-540zM516 815q-56 -41 -134 -41q-79 0 -133 41v57q60 -44 133 -44t134 44v-57z" />
<glyph unicode="&#x41a;" horiz-adv-x="660" d="M156 0h-59v700h59v-314h183l226 314h68l-245 -341l269 -359h-69l-247 330h-185v-330z" />
<glyph unicode="&#x41b;" horiz-adv-x="740" d="M230 700h413v-700h-59v643h-297q-5 -64 -8.5 -99.5t-9.5 -95t-11.5 -94t-13.5 -84t-17.5 -79t-21.5 -66t-27 -57.5t-33.5 -41t-40.5 -28.5t-48 -8.5q-27 0 -56 10v57q20 -8 47 -8q39 0 68 37t47 95.5t31 146.5t21 173.5t16 193.5v5z" />
<glyph unicode="&#x41c;" horiz-adv-x="901" d="M754 700h50v-700h-59v586l-276 -408h-37l-276 408v-586h-59v700h50l304 -449z" />
<glyph unicode="&#x41d;" horiz-adv-x="766" d="M610 700h59v-700h-59v323h-454v-323h-59v700h59v-320h454v320z" />
<glyph unicode="&#x41e;" horiz-adv-x="824" d="M48 350q0 68 23 131.5t67 115.5t115 83t159 31t159 -31t115 -83t67 -115.5t23 -131.5t-23 -131.5t-67 -115.5t-115 -83t-159 -31t-159 31t-115 83t-67 115.5t-23 131.5zM716 350q0 79 -32 146.5t-103 113t-169 45.5t-169 -45.5t-103 -113t-32 -146.5t32 -146.5t103 -113 t169 -45.5t169 45.5t103 113t32 146.5z" />
<glyph unicode="&#x41f;" horiz-adv-x="751" d="M156 0h-59v700h557v-700h-59v643h-439v-643z" />
<glyph unicode="&#x420;" horiz-adv-x="657" d="M97 700h230q295 0 295 -222q0 -223 -295 -223h-171v-255h-59v700zM562 478q0 92 -62.5 128.5t-169.5 36.5h-173v-331h173q232 0 232 166z" />
<glyph unicode="&#x421;" horiz-adv-x="660" d="M50 343q0 88 31.5 160t83.5 116.5t116 68t133 23.5q110 0 196 -47v-60q-79 51 -187 51q-59 0 -113.5 -19.5t-100 -56.5t-72.5 -98t-27 -138q0 -73 27.5 -131.5t73 -94t101 -54t114.5 -18.5q112 0 191 51v-59q-88 -48 -203 -48q-67 0 -131 23t-116.5 65.5t-84.5 111.5 t-32 154z" />
<glyph unicode="&#x422;" horiz-adv-x="599" d="M14 700h571v-57h-256v-643h-59v643h-256v57z" />
<glyph unicode="&#x423;" horiz-adv-x="627" d="M364 159q-47 -96 -99 -133t-114 -37q-45 0 -87 12v56q44 -12 77 -12q47 0 83 23t70 85l12 25l-295 522h66l261 -466l227 466h64z" />
<glyph unicode="&#x424;" horiz-adv-x="854" d="M457 -36h-60v92q-169 3 -268 80t-99 214t99 214t268 80v92h60v-92q169 -3 268 -80t99 -214t-99 -214t-268 -80v-92zM90 350q0 -111 80 -173.5t227 -66.5v480q-147 -4 -227 -66.5t-80 -173.5zM457 590v-480q148 4 227.5 66.5t79.5 173.5t-79.5 173.5t-227.5 66.5z" />
<glyph unicode="&#x425;" horiz-adv-x="629" d="M77 0h-71l273 360l-258 340h71l223 -293l223 293h70l-258 -340l273 -360h-70l-238 313z" />
<glyph unicode="&#x426;" horiz-adv-x="774" d="M742 -170h-57l1 170h-589v700h59v-643h440v643h60v-643h86v-227z" />
<glyph unicode="&#x427;" horiz-adv-x="680" d="M583 0h-60v283q-105 -37 -216 -37q-123 2 -191 61.5t-68 175.5v217h59v-220q0 -175 214 -177q101 -2 202 37v360h60v-700z" />
<glyph unicode="&#x428;" horiz-adv-x="1061" d="M964 0h-867v700h59v-643h345v643h59v-643h345v643h59v-700z" />
<glyph unicode="&#x429;" horiz-adv-x="1083" d="M1051 -170h-57l1 170h-898v700h59v-643h345v643h59v-643h345v643h59v-643h87v-227z" />
<glyph unicode="&#x42a;" horiz-adv-x="755" d="M425 0h-230v643h-182v57h241v-256h171q295 0 295 -222t-295 -222zM254 387v-330h173q107 0 169.5 36.5t62.5 128.5q0 165 -232 165h-173z" />
<glyph unicode="&#x42b;" horiz-adv-x="869" d="M327 0h-230v700h59v-256h171q295 0 295 -222t-295 -222zM157 387v-330h173q107 0 169.5 36.5t62.5 128.5q0 165 -232 165h-173zM772 0h-59v700h59v-700z" />
<glyph unicode="&#x42c;" horiz-adv-x="657" d="M327 0h-230v700h59v-256h171q295 0 295 -222t-295 -222zM157 387v-330h173q107 0 169.5 36.5t62.5 128.5q0 165 -232 165h-173z" />
<glyph unicode="&#x42d;" horiz-adv-x="656" d="M46 664q86 47 198 47q68 0 131.5 -23t116 -67t84 -116t31.5 -161t-31.5 -159t-84.5 -111.5t-116.5 -63t-132.5 -21.5q-109 0 -196 48v61q82 -53 188 -53q125 0 216 70t97 207h-384v56h383q-6 90 -53 154.5t-113.5 93.5t-143.5 29q-111 0 -190 -51v60z" />
<glyph unicode="&#x42e;" horiz-adv-x="1084" d="M1036 350q0 -68 -23 -131.5t-67 -115.5t-115 -83t-159 -31q-163 0 -257.5 98t-104.5 235h-154v-322h-59v700h59v-322h154q10 137 104.5 235t257.5 98q88 0 159 -31t115 -83t67 -115.5t23 -131.5zM369 350q0 -79 32 -146.5t103 -113t169 -45.5t169 45.5t103 113t32 146.5 t-32 146.5t-103 113t-169 45.5t-169 -45.5t-103 -113t-32 -146.5z" />
<glyph unicode="&#x42f;" horiz-adv-x="682" d="M105 0h-72l211 271q-83 18 -133 71.5t-50 139.5q0 106 75.5 162t189.5 56h259v-700h-59v263h-216zM122 482q0 -80 56 -121t145 -41h202v323h-202q-89 0 -145 -41t-56 -120z" />
<glyph unicode="&#x430;" horiz-adv-x="546" d="M455 87q0 -42 43 -42q16 0 37 7v-46q-27 -10 -52 -10q-76 0 -83 74q-75 -81 -197 -81q-69 0 -118 36.5t-49 105.5q0 82 62 119.5t150 37.5q77 0 151 -21v32q0 64 -40 102t-113 38q-92 0 -172 -34v56q85 30 178 30q96 0 149.5 -52t53.5 -147v-205zM94 134q0 -47 35 -71.5 t85 -24.5q55 0 104 24.5t81 69.5v88q-76 20 -143 20q-68 0 -115 -25.5t-47 -80.5z" />
<glyph unicode="&#x431;" horiz-adv-x="587" d="M542 225q0 -108 -67 -172t-176 -64q-111 0 -179.5 75t-68.5 202q0 114 41.5 199.5t108.5 127.5q57 35 118.5 51t105.5 27.5t72 39.5v-60q-28 -22 -68.5 -32.5t-93 -24.5t-101.5 -43q-93 -57 -126 -206q27 53 81 84t118 31q99 0 167 -65.5t68 -169.5zM108 237 q0 -84 52.5 -139t137.5 -55q86 0 137 50.5t51 130.5t-51 131t-135 51q-76 0 -130 -47.5t-62 -121.5z" />
<glyph unicode="&#x432;" horiz-adv-x="545" d="M342 0h-264v480h254q66 0 106.5 -33.5t40.5 -93.5q0 -39 -20 -68t-53 -40q38 -10 63.5 -39t25.5 -76q0 -61 -40.5 -95.5t-112.5 -34.5zM134 218v-168h199q105 0 105 83q0 85 -101 85h-203zM134 430v-162h193q94 0 94 80q0 41 -26.5 61.5t-69.5 20.5h-191z" />
<glyph unicode="&#x433;" horiz-adv-x="439" d="M135 0h-57v480h345v-53h-288v-427z" />
<glyph unicode="&#x434;" horiz-adv-x="622" d="M81 -133h-55v184h63q46 88 67 188.5t20 240.5h343v-429h70v-184h-56v133h-452v-133zM230 429q-3 -216 -80 -378h313v378h-233z" />
<glyph unicode="&#x435;" horiz-adv-x="546" d="M45 240q0 117 71.5 184t165.5 67q53 0 95 -16.5t67.5 -44.5t42.5 -64t18.5 -74.5t-4.5 -77.5h-399q5 -86 66 -129.5t149 -43.5q90 0 157 39v-56q-65 -35 -165 -35q-113 0 -188.5 64t-75.5 187zM451 264q7 63 -33.5 119t-131.5 56q-74 0 -127 -46.5t-57 -128.5h349z" />
<glyph unicode="&#x436;" horiz-adv-x="736" d="M727 0h-64l-183 216h-84v-216h-56v216h-84l-183 -216h-64l202 244l-177 236h63l161 -212h82v212h56v-212h82l161 212h63l-177 -236z" />
<glyph unicode="&#x437;" horiz-adv-x="471" d="M423 128q0 -68 -57 -103.5t-152 -35.5q-100 0 -174 36v54q73 -38 168 -38q158 0 158 93q0 44 -34 64t-79 20h-112v52h112q103 5 103 78q0 45 -40.5 68t-105.5 23q-86 0 -163 -36v53q82 36 169 36q92 0 144.5 -36.5t52.5 -100.5q0 -43 -24.5 -71.5t-67.5 -37.5 q43 -11 72.5 -42t29.5 -76z" />
<glyph unicode="&#x438;" horiz-adv-x="587" d="M127 0h-49v480h57v-389l325 389h49v-480h-56v389z" />
<glyph unicode="&#x439;" horiz-adv-x="587" d="M427 599q-56 -41 -134 -41q-79 0 -133 41v53q60 -44 133 -44t134 44v-53zM127 0h-49v480h57v-389l325 389h49v-480h-56v389z" />
<glyph unicode="&#x43a;" horiz-adv-x="512" d="M135 0h-57v480h57v-208h111l168 208h66l-189 -236l214 -244h-67l-195 219h-108v-219z" />
<glyph unicode="&#x43b;" horiz-adv-x="590" d="M230 427q-6 -105 -16 -180t-29 -135t-49.5 -89.5t-73.5 -29.5q-27 0 -51 9v46q14 -6 34 -6q63 0 92.5 110t36.5 328h338v-480h-56v427h-226z" />
<glyph unicode="&#x43c;" horiz-adv-x="667" d="M132 0h-54v480h62l194 -284l194 284h61v-480h-54v396l-180 -263h-42l-181 263v-396z" />
<glyph unicode="&#x43d;" horiz-adv-x="581" d="M135 0h-57v480h57v-214h312v214h56v-480h-56v214h-312v-214z" />
<glyph unicode="&#x43e;" horiz-adv-x="595" d="M45 240q0 116 74.5 183.5t177.5 67.5q104 0 178.5 -67.5t74.5 -183.5t-74.5 -183.5t-178.5 -67.5q-103 0 -177.5 67.5t-74.5 183.5zM493 240q0 91 -56 144t-139 53t-139.5 -53t-56.5 -144t56.5 -144t139.5 -53t139 53t56 144z" />
<glyph unicode="&#x43f;" horiz-adv-x="581" d="M135 0h-57v480h425v-480h-56v427h-312v-427z" />
<glyph unicode="&#x440;" horiz-adv-x="618" d="M129 381q76 110 205 110q103 0 171 -70.5t68 -180.5t-68 -180.5t-171 -70.5q-67 0 -118 29.5t-81 74.5v-313h-57v700h51v-99zM516 240q0 90 -54 144.5t-135 54.5q-67 0 -119 -38.5t-74 -95.5v-130q22 -57 74 -95.5t119 -38.5q82 0 135.5 54t53.5 145z" />
<glyph unicode="&#x441;" horiz-adv-x="498" d="M45 237q0 84 39.5 143.5t96.5 85t123 25.5q88 0 145 -39v-55q-56 42 -138 42q-86 0 -147.5 -51t-61.5 -150q0 -95 59.5 -146t143.5 -51q83 0 149 39v-57q-68 -34 -157 -34q-102 0 -177 64t-75 184z" />
<glyph unicode="&#x442;" horiz-adv-x="461" d="M259 0h-57v427h-186v53h429v-53h-186v-427z" />
<glyph unicode="&#x443;" horiz-adv-x="536" d="M278 63l179 417h60l-243 -559q-67 -152 -172 -152q-24 0 -51 6v50q22 -6 44 -6q42 0 73.5 30t57.5 93l24 56l-236 482h60z" />
<glyph unicode="&#x444;" horiz-adv-x="713" d="M385 -220h-57v209q-124 2 -204 69.5t-80 181.5t80 181.5t204 69.5v209h57v-209q124 -2 204 -70t80 -181t-80 -181t-204 -70v-209zM101 240q0 -92 62.5 -145.5t164.5 -55.5v402q-102 -2 -164.5 -55.5t-62.5 -145.5zM385 441v-402q102 2 164.5 55.5t62.5 145.5t-62.5 145.5 t-164.5 55.5z" />
<glyph unicode="&#x445;" horiz-adv-x="488" d="M397 480h66l-186 -233l196 -247h-66l-163 206l-163 -206h-66l197 247l-187 233h66l153 -193z" />
<glyph unicode="&#x446;" horiz-adv-x="597" d="M563 -133h-55v133h-430v480h57v-427h302v427h56v-427h70v-186z" />
<glyph unicode="&#x447;" horiz-adv-x="520" d="M442 0h-57v175q-66 -28 -153 -28q-88 0 -138.5 42.5t-50.5 128.5v162h57v-158q0 -123 148 -123q76 0 137 26v255h57v-480z" />
<glyph unicode="&#x448;" horiz-adv-x="813" d="M735 0h-657v480h57v-427h243v427h57v-427h243v427h57v-480z" />
<glyph unicode="&#x449;" horiz-adv-x="838" d="M804 -133h-55v133h-671v480h57v-427h243v427h57v-427h243v427h57v-427h69v-186z" />
<glyph unicode="&#x44a;" horiz-adv-x="585" d="M208 305h163q83 0 133 -43t50 -109q0 -67 -50 -110t-133 -43h-220v430h-134v50h191v-175zM208 51h156q62 0 97.5 27t35.5 75t-36 74.5t-97 26.5h-156v-203z" />
<glyph unicode="&#x44b;" horiz-adv-x="711" d="M298 0h-220v480h57v-175h163q83 0 133 -43t50 -109q0 -67 -50 -110t-133 -43zM134 254v-203h156q62 0 97.5 27t35.5 75t-36 74.5t-97 26.5h-156zM633 0h-57v480h57v-480z" />
<glyph unicode="&#x44c;" horiz-adv-x="513" d="M298 0h-220v480h57v-175h163q83 0 133 -43t50 -109q0 -67 -50 -110t-133 -43zM134 254v-203h156q62 0 97.5 27t35.5 75t-36 74.5t-97 26.5h-156z" />
<glyph unicode="&#x44d;" horiz-adv-x="505" d="M460 234q0 -122 -74 -183.5t-175 -61.5q-92 0 -168 42v53q74 -43 158 -43t140.5 41.5t60.5 131.5h-266v52h266q-7 87 -67 130t-144 43q-78 0 -143 -44v53q66 43 149 43q50 0 95.5 -15.5t83.5 -45.5t61 -80.5t23 -115.5z" />
<glyph unicode="&#x44e;" horiz-adv-x="813" d="M768 240q0 -116 -74 -183.5t-178 -67.5q-97 0 -169.5 60.5t-81.5 164.5h-130v-214h-57v480h57v-214h130q9 104 81.5 164.5t169.5 60.5q104 0 178 -67.5t74 -183.5zM320 240q0 -91 56.5 -144t139.5 -53t139 53t56 144t-56 144t-139 53t-139.5 -53t-56.5 -144z" />
<glyph unicode="&#x44f;" horiz-adv-x="541" d="M100 0h-67l143 184q-57 14 -89 53t-32 92q0 65 48 108t131 43h229v-480h-57v178h-169zM112 329q0 -46 34 -73t93 -27h168v200h-168q-60 0 -93.5 -27t-33.5 -73z" />
<glyph unicode="&#x451;" horiz-adv-x="546" d="M423 616q0 -17 -12 -29t-29 -12t-29.5 12t-12.5 29t12.5 29.5t29.5 12.5t29 -12.5t12 -29.5zM222 616q0 -17 -12 -29t-29 -12t-29.5 12t-12.5 29t12.5 29.5t29.5 12.5t29 -12.5t12 -29.5zM45 240q0 117 71.5 184t165.5 67q53 0 95 -16.5t67.5 -44.5t42.5 -64t18.5 -74.5 t-4.5 -77.5h-399q5 -86 66 -129.5t149 -43.5q90 0 157 39v-56q-65 -35 -165 -35q-113 0 -188.5 64t-75.5 187zM451 264q7 63 -33.5 119t-131.5 56q-74 0 -127 -46.5t-57 -128.5h349z" />
<glyph unicode="&#x1e80;" horiz-adv-x="1004" d="M917 700h65l-222 -700h-66l-192 598l-193 -598h-65l-222 700h65l190 -626l198 623h54l198 -623zM555 773h-63l-98 142h71z" />
<glyph unicode="&#x1e81;" horiz-adv-x="801" d="M718 480h60l-173 -480h-61l-144 400l-144 -400h-60l-173 480h60l143 -416l148 413h52l148 -413zM453 553h-63l-98 142h71z" />
<glyph unicode="&#x1e82;" horiz-adv-x="1004" d="M917 700h65l-222 -700h-66l-192 598l-193 -598h-65l-222 700h65l190 -626l198 623h54l198 -623zM510 773h-62l90 142h71z" />
<glyph unicode="&#x1e83;" horiz-adv-x="801" d="M718 480h60l-173 -480h-61l-144 400l-144 -400h-60l-173 480h60l143 -416l148 413h52l148 -413zM408 553h-62l90 142h71z" />
<glyph unicode="&#x1e84;" horiz-adv-x="1004" d="M917 700h65l-222 -700h-66l-192 598l-193 -598h-65l-222 700h65l190 -626l198 623h54l198 -623zM643 836q0 -17 -12 -29t-29 -12t-29.5 12t-12.5 29t12.5 29.5t29.5 12.5t29 -12.5t12 -29.5zM442 836q0 -17 -12 -29t-29 -12t-29.5 12t-12.5 29t12.5 29.5t29.5 12.5 t29 -12.5t12 -29.5z" />
<glyph unicode="&#x1e85;" horiz-adv-x="801" d="M718 480h60l-173 -480h-61l-144 400l-144 -400h-60l-173 480h60l143 -416l148 413h52l148 -413zM541 616q0 -17 -12 -29t-29 -12t-29.5 12t-12.5 29t12.5 29.5t29.5 12.5t29 -12.5t12 -29.5zM340 616q0 -17 -12 -29t-29 -12t-29.5 12t-12.5 29t12.5 29.5t29.5 12.5 t29 -12.5t12 -29.5z" />
<glyph unicode="&#x1ef2;" horiz-adv-x="644" d="M352 0h-60v273l-275 427h66l239 -373l239 373h66l-275 -427v-273zM376 773h-63l-98 142h71z" />
<glyph unicode="&#x1ef3;" horiz-adv-x="536" d="M278 63l179 417h60l-243 -559q-67 -152 -172 -152q-24 0 -51 6v50q22 -6 44 -6q42 0 73.5 30t57.5 93l24 56l-236 482h60zM314 553h-63l-98 142h71z" />
<glyph unicode="&#x2000;" horiz-adv-x="473" />
<glyph unicode="&#x2001;" horiz-adv-x="946" />
<glyph unicode="&#x2002;" horiz-adv-x="473" />
<glyph unicode="&#x2003;" horiz-adv-x="946" />
<glyph unicode="&#x2004;" horiz-adv-x="315" />
<glyph unicode="&#x2005;" horiz-adv-x="236" />
<glyph unicode="&#x2006;" horiz-adv-x="157" />
<glyph unicode="&#x2007;" horiz-adv-x="157" />
<glyph unicode="&#x2008;" horiz-adv-x="118" />
<glyph unicode="&#x2009;" horiz-adv-x="189" />
<glyph unicode="&#x200a;" horiz-adv-x="52" />
<glyph unicode="&#x2010;" horiz-adv-x="485" d="M67 273h351v-54h-351v54z" />
<glyph unicode="&#x2011;" horiz-adv-x="485" d="M67 273h351v-54h-351v54z" />
<glyph unicode="&#x2012;" horiz-adv-x="485" d="M67 273h351v-54h-351v54z" />
<glyph unicode="&#x2013;" horiz-adv-x="571" d="M504 219h-437v54h437v-54z" />
<glyph unicode="&#x2014;" horiz-adv-x="757" d="M690 219h-623v54h623v-54z" />
<glyph unicode="&#x2018;" horiz-adv-x="205" d="M110 477h-60l66 223h47z" />
<glyph unicode="&#x2019;" horiz-adv-x="201" d="M99 477h-47l53 223h60z" />
<glyph unicode="&#x201a;" horiz-adv-x="215" d="M76 -147h-47l53 224h60z" />
<glyph unicode="&#x201c;" horiz-adv-x="339" d="M244 477h-60l66 223h47zM110 477h-60l66 223h47z" />
<glyph unicode="&#x201d;" horiz-adv-x="335" d="M233 477h-47l53 223h60zM99 477h-47l53 223h60z" />
<glyph unicode="&#x201e;" horiz-adv-x="349" d="M210 -147h-47l53 224h60zM76 -147h-47l53 224h60z" />
<glyph unicode="&#x2020;" horiz-adv-x="499" d="M279 -220h-59v643h-187v57h187v220h59v-220h187v-57h-187v-643z" />
<glyph unicode="&#x2021;" horiz-adv-x="526" d="M293 -220h-60v313h-186v56h186v274h-186v57h186v220h60v-220h186v-57h-186v-274h186v-56h-186v-313z" />
<glyph unicode="&#x2022;" horiz-adv-x="312" d="M91 350q0 29 18.5 46t45.5 17q28 0 46.5 -16.5t18.5 -46.5t-18.5 -46.5t-46.5 -16.5q-27 0 -45.5 17t-18.5 46z" />
<glyph unicode="&#x2026;" horiz-adv-x="535" d="M472 31q0 -18 -11.5 -28.5t-28.5 -10.5t-28.5 10.5t-11.5 28.5t11.5 28.5t28.5 10.5t28.5 -10.5t11.5 -28.5zM143 31q0 -18 -11.5 -28.5t-28.5 -10.5t-28.5 10.5t-11.5 28.5t11.5 28.5t28.5 10.5t28.5 -10.5t11.5 -28.5zM308 31q0 -18 -11.5 -28.5t-28.5 -10.5 t-28.5 10.5t-11.5 28.5t11.5 28.5t28.5 10.5t28.5 -10.5t11.5 -28.5z" />
<glyph unicode="&#x202f;" horiz-adv-x="189" />
<glyph unicode="&#x2030;" horiz-adv-x="1264" d="M267 -60h-57l409 820h57zM348 560q0 -70 -45.5 -110.5t-110.5 -40.5q-66 0 -112 40.5t-46 110.5t46 110.5t112 40.5q65 0 110.5 -40.5t45.5 -110.5zM88 560q0 -45 28.5 -73t75.5 -28q46 0 74 28t28 73t-28 73t-74 28q-47 0 -75.5 -28t-28.5 -73zM851 140 q0 -70 -45.5 -110.5t-110.5 -40.5q-66 0 -112 40.5t-46 110.5t46 110.5t112 40.5q65 0 110.5 -40.5t45.5 -110.5zM591 140q0 -45 28.5 -73t75.5 -28q46 0 74 28t28 73t-28 73t-74 28q-47 0 -75.5 -28t-28.5 -73zM1230 140q0 -70 -45.5 -110.5t-110.5 -40.5q-66 0 -112 40.5 t-46 110.5t46 110.5t112 40.5q65 0 110.5 -40.5t45.5 -110.5zM970 140q0 -45 28.5 -73t75.5 -28q46 0 74 28t28 73t-28 73t-74 28q-47 0 -75.5 -28t-28.5 -73z" />
<glyph unicode="&#x2039;" horiz-adv-x="290" d="M230 63h-61l-121 171v12l121 171h61l-125 -177z" />
<glyph unicode="&#x203a;" horiz-adv-x="290" d="M121 63h-61l125 177l-125 177h61l121 -171v-12z" />
<glyph unicode="&#x2044;" horiz-adv-x="167" d="M-130 -12h-28l457 723h28z" />
<glyph unicode="&#x205f;" horiz-adv-x="236" />
<glyph unicode="&#x20ac;" horiz-adv-x="733" d="M672 37q-88 -48 -197 -48q-119 0 -216.5 67.5t-126.5 189.5h-89v50h80q-2 26 -2 42q0 24 3 46h-81v50h90q30 121 126 189t216 68q109 0 197 -47v-60q-80 51 -187 51q-100 0 -180.5 -52.5t-109.5 -148.5h358v-50h-368q-4 -20 -4 -46q0 -16 2 -42h370v-50h-358 q28 -97 110 -149t182 -52q105 0 185 51v-59z" />
<glyph unicode="&#x2122;" horiz-adv-x="664" d="M341 447h-35v253h40l99 -142l100 142h40v-253h-35v203l-95 -135h-20l-94 135v-203zM169 447h-36v220h-88v33h212v-33h-88v-220z" />
<glyph unicode="&#x215b;" horiz-adv-x="903" d="M551 310q0 42 38.5 73.5t110.5 31.5q67 0 108.5 -33t43.5 -79q2 -63 -56 -103q70 -34 70 -96q0 -46 -41.5 -78.5t-121.5 -32.5q-79 0 -122.5 34.5t-43.5 84.5q0 31 17.5 60.5t51.5 49.5q-55 34 -55 88zM706 184q-42 12 -57 18q-62 -30 -62 -84q0 -37 31 -58t87 -21 q49 0 80 17.5t31 45.5q0 23 -15.5 39t-35 23.5t-51.5 17.5q-5 1 -8 2zM803 294q0 31 -27.5 53t-75.5 22q-44 0 -71 -17t-27 -42q0 -10 3 -18.5t6 -14.5t11.5 -12t13 -9t16.5 -8t16.5 -6.5t18.5 -6t17 -5.5q45 -12 51 -14q48 32 48 78zM207 -12h-28l457 723h28zM156 680h37 v-361h74v-47h-216v47h93v308l-87 -32v47z" />
<glyph unicode="&#x215c;" horiz-adv-x="948" d="M595 310q0 42 38.5 73.5t110.5 31.5q67 0 108.5 -33t43.5 -79q2 -63 -56 -103q70 -34 70 -96q0 -46 -41.5 -78.5t-121.5 -32.5q-79 0 -122.5 34.5t-43.5 84.5q0 31 17.5 60.5t51.5 49.5q-55 34 -55 88zM750 184q-42 12 -57 18q-62 -30 -62 -84q0 -37 31 -58t87 -21 q49 0 80 17.5t31 45.5q0 23 -15.5 39t-35 23.5t-51.5 17.5q-5 1 -8 2zM847 294q0 31 -27.5 53t-75.5 22q-44 0 -71 -17t-27 -42q0 -10 3 -18.5t6 -14.5t11.5 -12t13 -9t16.5 -8t16.5 -6.5t18.5 -6t17 -5.5q45 -12 51 -14q48 32 48 78zM261 -12h-28l457 723h28zM327 580 q0 -31 -17 -56t-44 -34q77 -24 77 -103q0 -57 -42 -87.5t-107 -30.5q-82 0 -142 27v49q56 -30 138 -30q105 0 105 75q0 73 -99 73h-63v47h57q43 0 66 18t23 48q0 32 -25.5 50.5t-71.5 18.5q-64 0 -123 -31v49q58 28 129 28q63 0 101 -30.5t38 -80.5z" />
<glyph unicode="&#x215d;" horiz-adv-x="938" d="M585 310q0 42 38.5 73.5t110.5 31.5q67 0 108.5 -33t43.5 -79q2 -63 -56 -103q70 -34 70 -96q0 -46 -41.5 -78.5t-121.5 -32.5q-79 0 -122.5 34.5t-43.5 84.5q0 31 17.5 60.5t51.5 49.5q-55 34 -55 88zM740 184q-42 12 -57 18q-62 -30 -62 -84q0 -37 31 -58t87 -21 q49 0 80 17.5t31 45.5q0 23 -15.5 39t-35 23.5t-51.5 17.5q-5 1 -8 2zM837 294q0 31 -27.5 53t-75.5 22q-44 0 -71 -17t-27 -42q0 -10 3 -18.5t6 -14.5t11.5 -12t13 -9t16.5 -8t16.5 -6.5t18.5 -6t17 -5.5q45 -12 51 -14q48 32 48 78zM251 -12h-28l457 723h28zM74 680h245 v-47h-197l-8 -117q37 10 70 10q65 0 110 -32t45 -99q0 -61 -44.5 -95.5t-113.5 -34.5q-75 0 -131 27v48q53 -29 125 -29q52 0 82.5 21.5t30.5 62.5q0 85 -121 85q-55 0 -106 -19z" />
<glyph unicode="&#x215e;" horiz-adv-x="842" d="M151 -12h-28l457 723h28zM488 310q0 42 38.5 73.5t110.5 31.5q67 0 108.5 -33t43.5 -79q2 -63 -56 -103q70 -34 70 -96q0 -46 -41.5 -78.5t-121.5 -32.5q-79 0 -122.5 34.5t-43.5 84.5q0 31 17.5 60.5t51.5 49.5q-55 34 -55 88zM643 184q-42 12 -57 18q-62 -30 -62 -84 q0 -37 31 -58t87 -21q49 0 80 17.5t31 45.5q0 23 -15.5 39t-35 23.5t-51.5 17.5q-5 1 -8 2zM740 294q0 31 -27.5 53t-75.5 22q-44 0 -71 -17t-27 -42q0 -10 3 -18.5t6 -14.5t11.5 -12t13 -9t16.5 -8t16.5 -6.5t18.5 -6t17 -5.5q45 -12 51 -14q48 32 48 78zM157 272h-54 l162 361h-228v47h282v-45z" />
<glyph unicode="&#x2202;" horiz-adv-x="594" d="M540 269q0 -132 -68 -206t-181 -74q-107 0 -176.5 64t-69.5 169q0 97 67.5 160.5t161.5 63.5q75 0 135 -37t80 -103q0 7 -2 23q-10 87 -48 151t-93.5 99t-116 51t-127.5 16v54q65 0 125.5 -14t118 -47t100 -81.5t68.5 -123t26 -165.5zM101 222q0 -81 52 -130t137 -49 q79 0 126.5 43t60.5 117q-2 87 -58 138.5t-137 51.5q-78 0 -129.5 -47.5t-51.5 -123.5z" />
<glyph unicode="&#x2205;" horiz-adv-x="817" d="M727 700l-73 -85q117 -107 117 -265q0 -149 -106.5 -255t-255.5 -106q-126 0 -225 78l-57 -67h-37l73 85q-116 108 -116 265q0 149 106.5 255t255.5 106q127 0 224 -78l57 67h37zM409 680q-136 0 -233 -97t-97 -233q0 -144 105 -241l428 500q-87 71 -203 71zM205 91 q90 -71 204 -71q136 0 233 97t97 233q0 143 -105 241z" />
<glyph unicode="&#x220f;" horiz-adv-x="740" d="M195 -220h-60v863h-98v57h667v-57h-99v-863h-59v863h-351v-863z" />
<glyph unicode="&#x2211;" horiz-adv-x="564" d="M513 0h-473v34l275 316l-275 316v34h471v-57h-375l250 -286v-14l-250 -286h377v-57z" />
<glyph unicode="&#x2212;" horiz-adv-x="515" d="M445 320h-375v54h375v-54z" />
<glyph unicode="&#x221a;" horiz-adv-x="726" d="M358 0h-53l-180 423h-97v57h135l170 -411l332 711h62z" />
<glyph unicode="&#x221e;" horiz-adv-x="835" d="M418 403q42 62 86 96.5t107 34.5q72 0 121 -47.5t49 -128.5t-49 -128.5t-121 -47.5q-64 0 -108 34.5t-86 96.5q-43 -63 -86.5 -97t-106.5 -34q-72 0 -121 47.5t-49 128.5t49 128.5t121 47.5q64 0 107.5 -34t86.5 -97zM387 357q-20 30 -33 47.5t-33 37.5t-42 29t-47 9 q-52 0 -86.5 -31.5t-34.5 -90.5t34.5 -90.5t86.5 -31.5q48 0 82 30.5t73 90.5zM724 358q0 59 -34.5 90.5t-86.5 31.5q-48 0 -82 -30.5t-73 -90.5q40 -61 74 -92t81 -31q52 0 86.5 31.5t34.5 90.5z" />
<glyph unicode="&#x222b;" horiz-adv-x="407" d="M175 648q0 75 43 109t103 34q44 0 77 -14v-53q-33 13 -71 13q-39 0 -67 -20.5t-28 -70.5v-734q0 -75 -43 -109t-103 -34q-44 0 -77 14v53q32 -13 65 -13q101 0 101 91v734z" />
<glyph unicode="&#x2248;" horiz-adv-x="586" d="M516 478q2 -46 -24.5 -74t-72.5 -28q-36 0 -121.5 30.5t-120.5 30.5q-23 0 -36 -12.5t-12 -36.5h-54q-1 47 25.5 74.5t70.5 27.5q38 0 122 -30t121 -30q22 0 35.5 12.5t12.5 35.5h54zM516 330q2 -46 -24.5 -74t-72.5 -28q-36 0 -121.5 30.5t-120.5 30.5q-23 0 -36 -12.5 t-12 -36.5h-54q-1 47 25.5 74.5t70.5 27.5q38 0 122 -30t121 -30q22 0 35.5 12.5t12.5 35.5h54z" />
<glyph unicode="&#x2260;" horiz-adv-x="549" d="M166 131h-51l62 101h-107v54h140l78 128h-218v54h251l62 101h50l-62 -101h108v-54h-140l-79 -128h219v-54h-251z" />
<glyph unicode="&#x2264;" horiz-adv-x="529" d="M440 237v-56l-368 156v58l368 156v-56l-310 -129zM440 0h-368v54h368v-54z" />
<glyph unicode="&#x2265;" horiz-adv-x="529" d="M457 337l-368 -156v56l310 129l-310 129v56l368 -156v-58zM457 0h-368v54h368v-54z" />
<glyph unicode="&#x25ca;" horiz-adv-x="554" d="M309 0h-63l-209 350l209 350h63l208 -350zM101 350l176 -290l177 290l-177 290z" />
<glyph unicode="&#x25fc;" horiz-adv-x="480" d="M0 480h480v-480h-480v480z" />
<glyph unicode="&#xfb00;" horiz-adv-x="678" d="M700 646q-46 23 -105 23q-119 0 -119 -113v-76h194v-53h-194v-427h-56v427h-254v-427h-56v427h-87v53h87v55q0 78 50 120.5t128 42.5q82 0 155 -45q41 68 139 68q66 0 118 -22v-53zM166 480h253v78q0 24 5 49q-59 38 -134 38q-56 0 -90 -28t-34 -82v-55z" />
<glyph unicode="&#xfb01;" horiz-adv-x="549" d="M166 480h302v-480h-57v427h-245v-427h-56v427h-87v53h87v68q0 78 50 120.5t128 42.5q75 0 150 -39v-57q-75 44 -147 44q-57 0 -91 -28.5t-34 -82.5v-68z" />
<glyph unicode="&#xfb02;" horiz-adv-x="559" d="M421 682v5l57 15v-702h-57v629q-60 30 -130 30q-57 0 -91 -28.5t-34 -82.5v-68h169v-53h-169v-427h-56v427h-87v53h87v68q0 78 50 120.5t128 42.5q70 0 133 -29z" />
<glyph unicode="&#xfb03;" horiz-adv-x="859" d="M166 0h-56v427h-87v53h87v55q0 78 50.5 120.5t130.5 42.5q79 0 158 -47q46 67 149 67q75 0 150 -39v-57q-73 43 -147 43q-57 0 -91 -28.5t-34 -84.5v-72h302v-480h-57v427h-245v-427h-56v427h-254v-427zM166 535v-55h253v72q0 28 8 54q-60 39 -133 39q-59 0 -93.5 -28 t-34.5 -82z" />
<glyph unicode="&#xfb04;" horiz-adv-x="869" d="M731 689v4l57 15v-708h-57v636q-61 29 -130 29q-57 0 -91 -29t-34 -88v-68h169v-53h-169v-427h-56v427h-254v-427h-56v427h-87v53h87v55q0 78 50.5 120.5t130.5 42.5q79 0 158 -47q48 67 149 67q70 0 133 -29zM419 480v68q0 32 9 58q-60 39 -134 39q-59 0 -93.5 -28 t-34.5 -82v-55h253z" />
<glyph horiz-adv-x="219" d="M81 480h57v-480h-57v480zM60 603q0 21 13.5 33t33.5 12t33 -12t13 -33q0 -22 -13 -34t-33 -12t-33.5 12t-13.5 34z" />
<glyph horiz-adv-x="617" d="M488 99q-74 -110 -203 -110q-104 0 -172.5 70.5t-68.5 180.5t68.5 180.5t172.5 70.5q129 0 203 -110v99h51v-480h-51v99zM101 240q0 -91 54.5 -145t135.5 -54q67 0 118.5 38.5t73.5 95.5v130q-22 57 -73.5 95.5t-118.5 38.5q-81 0 -135.5 -54.5t-54.5 -144.5z" />
<glyph horiz-adv-x="617" d="M488 99q-74 -110 -203 -110q-104 0 -172.5 70.5t-68.5 180.5t68.5 180.5t172.5 70.5q129 0 203 -110v99h51v-480h-51v99zM101 240q0 -91 54.5 -145t135.5 -54q67 0 118.5 38.5t73.5 95.5v130q-22 57 -73.5 95.5t-118.5 38.5q-81 0 -135.5 -54.5t-54.5 -144.5zM319 553 h-62l90 142h71z" />
<glyph horiz-adv-x="617" d="M488 99q-74 -110 -203 -110q-104 0 -172.5 70.5t-68.5 180.5t68.5 180.5t172.5 70.5q129 0 203 -110v99h51v-480h-51v99zM101 240q0 -91 54.5 -145t135.5 -54q67 0 118.5 38.5t73.5 95.5v130q-22 57 -73.5 95.5t-118.5 38.5q-81 0 -135.5 -54.5t-54.5 -144.5zM445 595 q-56 -41 -134 -41q-79 0 -133 41v57q60 -44 133 -44t134 44v-57z" />
<glyph horiz-adv-x="617" d="M488 99q-74 -110 -203 -110q-104 0 -172.5 70.5t-68.5 180.5t68.5 180.5t172.5 70.5q129 0 203 -110v99h51v-480h-51v99zM101 240q0 -91 54.5 -145t135.5 -54q67 0 118.5 38.5t73.5 95.5v130q-22 57 -73.5 95.5t-118.5 38.5q-81 0 -135.5 -54.5t-54.5 -144.5zM288 691h51 l130 -137h-65l-90 94l-90 -94h-65z" />
<glyph horiz-adv-x="617" d="M488 99q-74 -110 -203 -110q-104 0 -172.5 70.5t-68.5 180.5t68.5 180.5t172.5 70.5q129 0 203 -110v99h51v-480h-51v99zM101 240q0 -91 54.5 -145t135.5 -54q67 0 118.5 38.5t73.5 95.5v130q-22 57 -73.5 95.5t-118.5 38.5q-81 0 -135.5 -54.5t-54.5 -144.5zM452 616 q0 -17 -12 -29t-29 -12t-29.5 12t-12.5 29t12.5 29.5t29.5 12.5t29 -12.5t12 -29.5zM251 616q0 -17 -12 -29t-29 -12t-29.5 12t-12.5 29t12.5 29.5t29.5 12.5t29 -12.5t12 -29.5z" />
<glyph horiz-adv-x="617" d="M488 99q-74 -110 -203 -110q-104 0 -172.5 70.5t-68.5 180.5t68.5 180.5t172.5 70.5q129 0 203 -110v99h51v-480h-51v99zM101 240q0 -91 54.5 -145t135.5 -54q67 0 118.5 38.5t73.5 95.5v130q-22 57 -73.5 95.5t-118.5 38.5q-81 0 -135.5 -54.5t-54.5 -144.5zM364 553 h-63l-98 142h71z" />
<glyph horiz-adv-x="617" d="M488 99q-74 -110 -203 -110q-104 0 -172.5 70.5t-68.5 180.5t68.5 180.5t172.5 70.5q129 0 203 -110v99h51v-480h-51v99zM101 240q0 -91 54.5 -145t135.5 -54q67 0 118.5 38.5t73.5 95.5v130q-22 57 -73.5 95.5t-118.5 38.5q-81 0 -135.5 -54.5t-54.5 -144.5zM171 627 h280v-52h-280v52z" />
<glyph horiz-adv-x="617" d="M101 240q0 -91 54.5 -145t135.5 -54q67 0 118.5 38.5t73.5 95.5v130q-22 57 -73.5 95.5t-118.5 38.5q-81 0 -135.5 -54.5t-54.5 -144.5zM539 0q-44 -31 -71.5 -69.5t-26.5 -68.5q-1 -22 12.5 -34.5t37.5 -12.5q27 0 48 10v-44q-26 -13 -61 -13q-43 -1 -67 22t-24 61 q0 75 101 170v78q-74 -110 -203 -110q-104 0 -172.5 70.5t-68.5 180.5t68.5 180.5t172.5 70.5q129 0 203 -110v99h51v-480z" />
<glyph horiz-adv-x="617" d="M488 99q-74 -110 -203 -110q-104 0 -172.5 70.5t-68.5 180.5t68.5 180.5t172.5 70.5q129 0 203 -110v99h51v-480h-51v99zM101 240q0 -91 54.5 -145t135.5 -54q67 0 118.5 38.5t73.5 95.5v130q-22 57 -73.5 95.5t-118.5 38.5q-81 0 -135.5 -54.5t-54.5 -144.5zM412 629 q0 -44 -30 -71.5t-72 -27.5t-72.5 27.5t-30.5 71.5q0 43 30.5 70t72.5 27q41 0 71.5 -27t30.5 -70zM251 628q0 -27 17.5 -42.5t41.5 -15.5t41.5 15.5t17.5 42.5q0 26 -17.5 42t-41.5 16t-41.5 -16t-17.5 -42z" />
<glyph horiz-adv-x="617" d="M488 99q-74 -110 -203 -110q-104 0 -172.5 70.5t-68.5 180.5t68.5 180.5t172.5 70.5q129 0 203 -110v99h51v-480h-51v99zM101 240q0 -91 54.5 -145t135.5 -54q67 0 118.5 38.5t73.5 95.5v130q-22 57 -73.5 95.5t-118.5 38.5q-81 0 -135.5 -54.5t-54.5 -144.5zM467 646 q6 -43 -15 -67.5t-57 -24.5q-32 0 -86 24t-70 24q-18 0 -26.5 -12t-6.5 -31h-50q-6 42 15 67.5t55 25.5q31 0 86 -24t71 -24q37 0 34 42h50z" />
<glyph horiz-adv-x="993" d="M488 99q-74 -110 -203 -110q-104 0 -172.5 70.5t-68.5 180.5t68.5 180.5t172.5 70.5q129 0 203 -110v99h51v-110q28 58 80 89.5t114 31.5q64 0 112 -25.5t70.5 -66t32 -91t-2.5 -99.5h-399q6 -83 67 -125.5t148 -42.5q88 0 155 39v-53q-65 -38 -159 -38 q-74 0 -131.5 30.5t-86.5 91.5v-111h-51v99zM101 240q0 -91 54.5 -145t135.5 -54q67 0 118.5 38.5t73.5 95.5v130q-22 57 -73.5 95.5t-118.5 38.5q-81 0 -135.5 -54.5t-54.5 -144.5zM730 439q-75 0 -127.5 -47.5t-56.5 -132.5h349q3 29 -4 59t-24.5 58t-53 45.5t-83.5 17.5z " />
<glyph d="M504 -3q-1 -61 -22.5 -106.5t-57.5 -71t-76.5 -38t-86.5 -12.5q-102 0 -168 38v53q60 -39 161 -39q82 0 138 41.5t55 134.5v83q-29 -37 -76 -64t-105 -27q-88 0 -141 53t-53 142v296h57v-289q0 -73 38 -111.5t105 -38.5q58 0 102.5 32t72.5 78v329h57v-483z" />
<glyph d="M504 -3q-1 -61 -22.5 -106.5t-57.5 -71t-76.5 -38t-86.5 -12.5q-102 0 -168 38v53q60 -39 161 -39q82 0 138 41.5t55 134.5v83q-29 -37 -76 -64t-105 -27q-88 0 -141 53t-53 142v296h57v-289q0 -73 38 -111.5t105 -38.5q58 0 102.5 32t72.5 78v329h57v-483zM299 553h-62 l90 142h71z" />
<glyph d="M504 -3q-1 -61 -22.5 -106.5t-57.5 -71t-76.5 -38t-86.5 -12.5q-102 0 -168 38v53q60 -39 161 -39q82 0 138 41.5t55 134.5v83q-29 -37 -76 -64t-105 -27q-88 0 -141 53t-53 142v296h57v-289q0 -73 38 -111.5t105 -38.5q58 0 102.5 32t72.5 78v329h57v-483zM268 691h51 l130 -137h-65l-90 94l-90 -94h-65z" />
<glyph d="M504 -3q-1 -61 -22.5 -106.5t-57.5 -71t-76.5 -38t-86.5 -12.5q-102 0 -168 38v53q60 -39 161 -39q82 0 138 41.5t55 134.5v83q-29 -37 -76 -64t-105 -27q-88 0 -141 53t-53 142v296h57v-289q0 -73 38 -111.5t105 -38.5q58 0 102.5 32t72.5 78v329h57v-483zM432 616 q0 -17 -12 -29t-29 -12t-29.5 12t-12.5 29t12.5 29.5t29.5 12.5t29 -12.5t12 -29.5zM231 616q0 -17 -12 -29t-29 -12t-29.5 12t-12.5 29t12.5 29.5t29.5 12.5t29 -12.5t12 -29.5z" />
<glyph d="M504 -3q-1 -61 -22.5 -106.5t-57.5 -71t-76.5 -38t-86.5 -12.5q-102 0 -168 38v53q60 -39 161 -39q82 0 138 41.5t55 134.5v83q-29 -37 -76 -64t-105 -27q-88 0 -141 53t-53 142v296h57v-289q0 -73 38 -111.5t105 -38.5q58 0 102.5 32t72.5 78v329h57v-483zM344 553h-63 l-98 142h71z" />
<glyph horiz-adv-x="961" d="M478 387q30 45 81 74.5t118 29.5q103 0 171 -70.5t68 -180.5t-68 -180.5t-171 -70.5q-129 0 -205 110v-99h-51v629q-60 30 -130 30q-57 0 -91 -28.5t-34 -82.5v-68h169v-53h-169v-427h-56v427h-87v53h87v68q0 78 50 120.5t128 42.5q70 0 133 -29v5l57 15v-315zM477 175 q22 -57 74 -95.5t119 -38.5q81 0 135 54.5t54 144.5q0 91 -53.5 145t-135.5 54q-67 0 -119 -38.5t-74 -95.5v-130z" />
<glyph horiz-adv-x="1271" d="M788 387q30 45 81 74.5t118 29.5q103 0 171 -70.5t68 -180.5t-68 -180.5t-171 -70.5q-129 0 -205 110v-99h-51v636q-61 29 -130 29q-57 0 -91 -29t-34 -88v-68h169v-53h-169v-427h-56v427h-254v-427h-56v427h-87v53h87v55q0 78 50.5 120.5t130.5 42.5q79 0 158 -47 q48 67 149 67q70 0 133 -29v4l57 15v-321zM419 480v68q0 32 9 58q-60 39 -134 39q-59 0 -93.5 -28t-34.5 -82v-55h253zM787 175q22 -57 74 -95.5t119 -38.5q81 0 135 54.5t54 144.5q0 91 -53.5 145t-135.5 54q-67 0 -119 -38.5t-74 -95.5v-130z" />
<glyph horiz-adv-x="1235" d="M788 400q29 37 76 64t104 27q85 0 140 -53.5t55 -141.5v-296h-57v289q0 72 -40 111t-104 39q-57 0 -101.5 -32t-72.5 -78v-329h-57v636q-61 29 -130 29q-57 0 -91 -29t-34 -88v-68h169v-53h-169v-427h-56v427h-254v-427h-56v427h-87v53h87v55q0 78 50.5 120.5t130.5 42.5 q79 0 158 -47q48 67 149 67q70 0 133 -29v4l57 15v-308zM419 480v68q0 32 9 58q-60 39 -134 39q-59 0 -93.5 -28t-34.5 -82v-55h253z" />
<glyph horiz-adv-x="859" d="M778 -100q0 -71 -37.5 -101t-91.5 -30q-42 0 -72 12v53q28 -13 57 -13q87 0 87 87v519h-245v-427h-56v427h-254v-427h-56v427h-87v53h87v55q0 78 50.5 120.5t130.5 42.5q79 0 158 -47q46 67 149 67q75 0 150 -39v-57q-73 43 -147 43q-57 0 -91 -28.5t-34 -84.5v-72h302 v-580zM166 535v-55h253v72q0 28 8 54q-60 39 -133 39q-59 0 -93.5 -28t-34.5 -82z" />
<glyph horiz-adv-x="1162" d="M1133 480l-189 -236l214 -244h-67l-195 219h-108v-219h-57v636q-61 29 -130 29q-57 0 -91 -29t-34 -88v-68h169v-53h-169v-427h-56v427h-254v-427h-56v427h-87v53h87v55q0 78 50.5 120.5t130.5 42.5q79 0 158 -47q48 67 149 67q70 0 133 -29v4l57 15v-436h111l168 208h66 zM419 480v68q0 32 9 58q-60 39 -134 39q-59 0 -93.5 -28t-34.5 -82v-55h253z" />
<glyph horiz-adv-x="925" d="M478 400q29 37 76 64t104 27q85 0 140 -53.5t55 -141.5v-296h-57v289q0 72 -40 111t-104 39q-57 0 -101.5 -32t-72.5 -78v-329h-57v629q-60 30 -130 30q-57 0 -91 -28.5t-34 -82.5v-68h169v-53h-169v-427h-56v427h-87v53h87v68q0 78 50 120.5t128 42.5q70 0 133 -29v5 l57 15v-302z" />
<glyph horiz-adv-x="549" d="M166 480h302v-580q0 -71 -37.5 -101t-91.5 -30q-42 0 -72 12v53q28 -13 57 -13q87 0 87 87v519h-245v-427h-56v427h-87v53h87v68q0 78 50 120.5t128 42.5q75 0 150 -39v-57q-75 44 -147 44q-57 0 -91 -28.5t-34 -82.5v-68z" />
<glyph horiz-adv-x="852" d="M823 480l-189 -236l214 -244h-67l-195 219h-108v-219h-57v629q-60 30 -130 30q-57 0 -91 -28.5t-34 -82.5v-68h169v-53h-169v-427h-56v427h-87v53h87v68q0 78 50 120.5t128 42.5q70 0 133 -29v5l57 15v-430h111l168 208h66z" />
<glyph horiz-adv-x="791" d="M84 -170h-57v227h74l261 643h67l261 -643h74v-227h-57v170h-623v-170zM396 634l-231 -577h462z" />
<glyph horiz-adv-x="679" d="M309 700h61l297 -700h-64l-264 633l-263 -633h-64z" />
<glyph horiz-adv-x="897" d="M478 -103h-59v96q-169 6 -270 105.5t-101 251.5t101 251.5t270 105.5v96h59v-96q169 -6 270 -106t101 -251t-101 -251t-270 -106v-96zM108 350q0 -126 82 -210t229 -90v600q-147 -6 -229 -90t-82 -210zM478 650v-600q146 6 228.5 90.5t82.5 209.5t-82.5 209.5 t-228.5 90.5z" />
<glyph horiz-adv-x="579" d="M489 548q0 -107 -110 -155q70 -13 113.5 -65.5t43.5 -127.5q0 -91 -62.5 -151t-166.5 -60q-108 0 -174 69t-66 201v127q0 155 61.5 240t178.5 85q82 0 132 -47t50 -116zM433 544q0 46 -34.5 80.5t-91.5 34.5q-183 0 -183 -273v-10l167 29q70 12 106 51t36 88zM125 259 q0 -111 48.5 -164.5t133.5 -53.5q77 0 124.5 44t47.5 115q0 78 -52 123t-135 30l-168 -29z" />
<glyph horiz-adv-x="473" d="M424 36q-71 -47 -185 -47q-89 0 -144.5 32t-55.5 101q0 52 33.5 83t81.5 42.5t96.5 21t82 30.5t33.5 60q0 41 -36.5 60.5t-91.5 19.5q-89 0 -173 -43v54q85 41 177 41q76 0 128.5 -33t52.5 -101q0 -52 -33.5 -83t-81.5 -42.5t-96.5 -21t-82 -30.5t-33.5 -59 q0 -80 146 -80q105 0 182 51v-56z" />
<glyph horiz-adv-x="618" d="M45 240q0 110 68 180.5t171 70.5q131 0 205 -110v99h51v-480q0 -115 -74.5 -173t-182.5 -58q-104 0 -192 45v55q88 -48 185 -48q90 0 149 43.5t59 135.5v95q-29 -47 -80.5 -76.5t-119.5 -29.5q-103 0 -171 70.5t-68 180.5zM484 305q-22 57 -74 95.5t-119 38.5 q-82 0 -135.5 -54t-53.5 -145q0 -90 54 -144.5t135 -54.5q67 0 119 36.5t74 90.5v137z" />
<glyph horiz-adv-x="736" d="M73 0h-64l202 244l-177 236h63l161 -212h82v432h56v-432h82l161 212h63l-177 -236l202 -244h-64l-183 216h-84v-216h-56v216h-84z" />
<glyph d="M447 480h57v-480h-52v86q-28 -39 -76.5 -68t-109.5 -29q-88 0 -141 53t-53 142v296h57v-289q0 -73 38 -111.5t105 -38.5q58 0 102.5 32t72.5 78v329z" />
<glyph d="M426 599q-56 -41 -134 -41q-79 0 -133 41v53q60 -44 133 -44t134 44v-53zM447 480h57v-480h-52v86q-28 -39 -76.5 -68t-109.5 -29q-88 0 -141 53t-53 142v296h57v-289q0 -73 38 -111.5t105 -38.5q58 0 102.5 32t72.5 78v329z" />
<glyph horiz-adv-x="512" d="M505 0h-67l-195 219h-108v-219h-57v700h57v-428h111l168 208h66l-189 -236z" />
<glyph horiz-adv-x="530" d="M512 0h-63l-184 416l-185 -416h-63l218 480h60z" />
<glyph d="M129 394q28 39 77 68t109 29q85 0 140 -53.5t55 -141.5v-296h-57v289q0 72 -40 111t-104 39q-57 0 -101.5 -32t-72.5 -78v-329h-57v480h51v-86z" />
<glyph horiz-adv-x="891" d="M135 0h-57v480h51v-80q27 35 72 63t103 28q55 0 95.5 -24.5t60.5 -68.5q81 93 182 93q82 0 129.5 -52.5t47.5 -135.5v-303h-56v304q0 60 -34.5 97.5t-92.5 37.5q-91 0 -157 -93q3 -21 3 -43v-303h-57v304q0 60 -34.5 97.5t-92.5 37.5q-95 0 -163 -102v-337z" />
<glyph horiz-adv-x="610" d="M504 94q0 -49 49 -49h26v-178h-52v129q-75 7 -80 84q-28 -38 -75.5 -64.5t-105.5 -26.5q-88 0 -141 53t-53 142v296h57v-289q0 -73 38 -111.5t105 -38.5q58 0 102.5 32t72.5 78v329h57v-386z" />
<glyph horiz-adv-x="891" d="M756 480h57v-480h-51v80q-27 -35 -72 -63t-103 -28q-55 0 -95.5 24.5t-60.5 68.5q-81 -93 -182 -93q-82 0 -129.5 52.5t-47.5 135.5v303h56v-304q0 -60 34.5 -97.5t92.5 -37.5q91 0 157 93q-3 21 -3 43v303h57v-304q0 -60 34.5 -97.5t92.5 -37.5q95 0 163 102v337z" />
<glyph horiz-adv-x="920" d="M813 94q0 -49 49 -49h27v-178h-53v129q-71 7 -79 78q-71 -85 -170 -85q-111 0 -157 91q-79 -91 -180 -91q-82 0 -130 52.5t-48 135.5v303h57v-304q0 -60 34.5 -97.5t92.5 -37.5q89 0 157 93q-4 19 -4 43v303h57v-304q0 -60 34.5 -97.5t92.5 -37.5q95 0 163 102v337h57 v-386z" />
<glyph horiz-adv-x="813" d="M768 240q0 -116 -74 -183.5t-178 -67.5q-97 0 -169.5 60.5t-81.5 164.5h-130v-214h-57v700h57v-434h130q9 104 81.5 164.5t169.5 60.5q104 0 178 -67.5t74 -183.5zM320 240q0 -91 56.5 -144t139.5 -53t139 53t56 144t-56 144t-139 53t-139.5 -53t-56.5 -144z" />
<glyph horiz-adv-x="617" d="M488 99q-74 -110 -203 -110q-104 0 -172.5 70.5t-68.5 180.5t68.5 180.5t172.5 70.5q129 0 203 -110v99h51v-480h-51v99zM101 240q0 -91 54.5 -145t135.5 -54q67 0 118.5 38.5t73.5 95.5v130q-22 57 -73.5 95.5t-118.5 38.5q-81 0 -135.5 -54.5t-54.5 -144.5z" />
<glyph horiz-adv-x="457" d="M380 328q0 -106 -113 -155q70 -11 114.5 -63.5t44.5 -127.5q0 -99 -69 -156t-174 -57q-98 0 -167 46v54q68 -48 160 -48q84 0 138.5 42t54.5 119t-54 123t-134 28l-63 -14v53l71 16q134 33 134 137q0 54 -38 84t-95 30q-87 0 -161 -46v53q75 46 165 46q79 0 132.5 -44 t53.5 -120z" />
<glyph d="M504 -3q-1 -61 -22.5 -106.5t-57.5 -71t-76.5 -38t-86.5 -12.5q-102 0 -168 38v53q60 -39 161 -39q82 0 138 41.5t55 134.5v83q-29 -37 -76 -64t-105 -27q-88 0 -141 53t-53 142v296h57v-289q0 -73 38 -111.5t105 -38.5q58 0 102.5 32t72.5 78v329h57v-483z" />
<glyph horiz-adv-x="655" d="M606 260q0 -108 -74 -189.5t-204 -81.5q-88 0 -153.5 41t-95.5 101t-30 129q0 108 74 189.5t205 81.5q130 0 204 -81.5t74 -189.5zM109 260q0 -88 58 -151.5t161 -63.5q102 0 160 63.5t58 151.5t-58 151.5t-160 63.5q-103 0 -161 -63.5t-58 -151.5z" />
<glyph horiz-adv-x="422" d="M221 520h43v-463h133v-57h-341v57h149v399l-149 -56v57z" />
<glyph horiz-adv-x="528" d="M475 0h-428v37q0 22 5.5 41.5t12.5 33.5t22.5 28.5t26.5 23t33 20t34 17t38.5 16.5t36.5 16q6 3 34.5 15.5t37.5 17t29.5 17.5t28.5 23t15.5 26.5t7.5 35.5q0 48 -41.5 78t-103.5 30q-94 0 -196 -59v59q94 55 200 55q86 0 143.5 -45t57.5 -119q0 -20 -5.5 -38t-12 -31.5 t-22 -27.5t-25 -22t-31.5 -20t-31 -16.5t-34.5 -15.5t-31.5 -14q-11 -5 -35.5 -16t-35 -16t-29 -14.5t-27 -17t-19 -17.5t-14.5 -21t-4 -24l363 1v-57z" />
<glyph horiz-adv-x="541" d="M466 349q0 -54 -30 -96.5t-81 -56.5q58 -15 98.5 -58t40.5 -116q0 -90 -69 -141.5t-164 -51.5q-126 0 -214 44v59q86 -47 209 -47q75 0 128 36t53 104q0 71 -47.5 104.5t-116.5 33.5h-91v57l85 -1q66 -1 104 35.5t38 89.5q0 60 -44 96t-118 36q-95 0 -188 -50v58 q88 47 196 47q93 0 152 -50.5t59 -131.5z" />
<glyph horiz-adv-x="593" d="M376 520h64v-466h127v-55h-127v-159h-59v159h-362v53zM381 54v382l-292 -382h292z" />
<glyph horiz-adv-x="531" d="M90 520h369v-57h-313l-15 -234q65 20 127 20q44 0 84 -11.5t74.5 -35.5t55 -66t20.5 -97q0 -95 -70 -152.5t-174 -57.5q-108 0 -198 46v56q89 -47 191 -47q83 0 137 41.5t54 113.5q0 81 -56 118.5t-137 37.5q-82 0 -171 -32z" />
<glyph horiz-adv-x="586" d="M114 335q94 83 209 83q86 0 152.5 -55.5t66.5 -155.5q0 -101 -65.5 -159.5t-158.5 -58.5q-128 0 -195.5 89.5t-67.5 246.5q0 93 24 165t65.5 115t92.5 64.5t109 21.5q79 0 149 -38v-56q-71 38 -148 38q-93 0 -161.5 -74t-71.5 -226zM116 273q10 -111 62 -170t136 -59 q71 0 119.5 41t48.5 120q0 81 -50 119.5t-123 38.5q-111 0 -193 -90z" />
<glyph horiz-adv-x="482" d="M22 520h447v-53l-290 -627h-64l288 623h-381v57z" />
<glyph horiz-adv-x="615" d="M77 521q0 68 60.5 119t168.5 51q101 0 165.5 -54.5t66.5 -126.5q2 -109 -104 -180q128 -55 128 -161q0 -75 -64.5 -127.5t-187.5 -52.5q-119 0 -188 56t-69 140q0 54 32.5 105t92.5 84q-101 54 -101 147zM309 321q-21 7 -81 29q-55 -27 -85.5 -69.5t-30.5 -89.5 q0 -68 53 -107.5t146 -39.5q85 0 138.5 35t53.5 87q0 31 -8.5 52t-40 40t-48.5 26.5t-76 28.5q-14 5 -21 8zM479 500q0 55 -48 95.5t-126 40.5q-75 0 -121.5 -33.5t-46.5 -81.5q0 -24 9.5 -44.5t23 -34t39 -27t45.5 -21.5t55 -20q8 -3 23 -7.5t27.5 -8.5t24.5 -8 q95 62 95 150z" />
<glyph horiz-adv-x="573" d="M37 313q0 101 65.5 159.5t158.5 58.5q127 0 195 -89.5t68 -246.5q0 -180 -84.5 -273t-206.5 -93q-81 0 -149 38v56q71 -38 148 -38q93 0 161 73.5t71 225.5q-91 -82 -208 -82q-86 0 -152.5 55.5t-66.5 155.5zM97 315q0 -81 50 -119.5t123 -38.5q108 0 192 89 q-10 112 -61.5 171t-135.5 59q-71 0 -119.5 -41t-48.5 -120z" />
<glyph horiz-adv-x="434" d="M397 104q0 -95 -45.5 -153t-134.5 -58t-134.5 58t-45.5 153t45.5 153t134.5 58t134.5 -58t45.5 -153zM87 104q0 -164 130 -164t130 164t-130 164t-130 -164z" />
<glyph horiz-adv-x="266" d="M137 308h37v-361h74v-47h-216v47h93v308l-87 -32v47z" />
<glyph horiz-adv-x="353" d="M45 276q57 39 131 39q63 0 101 -28.5t38 -80.5q0 -46 -30.5 -78.5t-84.5 -64.5q-4 -2 -18.5 -11t-19 -11.5t-17 -10.5t-16.5 -12t-13.5 -11.5t-13 -13t-8.5 -13.5t-7 -16t-2 -17h233v-47h-287v24q0 44 22.5 79.5t42.5 50t63 39.5q5 3 8 5q62 38 78 56q20 24 20 53 q0 62 -93 62q-65 0 -127 -43v50z" />
<glyph horiz-adv-x="361" d="M310 204q0 -31 -17 -56t-44 -34q77 -24 77 -103q0 -57 -42 -87.5t-107 -30.5q-82 0 -142 27v49q56 -30 138 -30q105 0 105 75q0 73 -99 73h-63v47h57q43 0 66 18t23 48q0 32 -25.5 50.5t-71.5 18.5q-64 0 -123 -31v49q58 28 129 28q63 0 101 -30.5t38 -80.5z" />
<glyph horiz-adv-x="397" d="M243 308h54v-271h77v-46h-77v-91h-49v91h-228v44zM249 37v204l-167 -204h167z" />
<glyph horiz-adv-x="357" d="M61 308h245v-47h-197l-8 -117q37 10 70 10q65 0 110 -32t45 -99q0 -61 -44.5 -95.5t-113.5 -34.5q-75 0 -131 27v48q53 -29 125 -29q52 0 82.5 21.5t30.5 62.5q0 85 -121 85q-55 0 -106 -19z" />
<glyph horiz-adv-x="384" d="M88 115q59 39 128 39q55 0 97 -34t42 -94q0 -63 -41.5 -98t-104.5 -35q-86 0 -129 53.5t-43 150.5q0 108 51 163t134 55q55 0 99 -23v-48q-42 24 -98 24t-93.5 -36.5t-41.5 -116.5zM88 66q12 -127 117 -127q45 0 72.5 20.5t27.5 64.5q0 84 -102 84q-66 0 -115 -42z" />
<glyph horiz-adv-x="317" d="M138 -100h-54l162 361h-228v47h282v-45z" />
<glyph horiz-adv-x="399" d="M49 210q0 42 38.5 73.5t110.5 31.5q67 0 108.5 -33t43.5 -79q2 -63 -56 -103q70 -34 70 -96q0 -46 -41.5 -78.5t-121.5 -32.5q-79 0 -122.5 34.5t-43.5 84.5q0 31 17.5 60.5t51.5 49.5q-55 34 -55 88zM204 84q-42 12 -57 18q-62 -30 -62 -84q0 -37 31 -58t87 -21 q49 0 80 17.5t31 45.5q0 23 -15.5 39t-35 23.5t-51.5 17.5q-2 0 -4 0.5t-4 1.5zM301 194q0 31 -27.5 53t-75.5 22q-44 0 -71 -17t-27 -42q0 -10 3 -18.5t6 -14.5t11.5 -12t13 -9t16.5 -8t16.5 -6.5t18.5 -6t17 -5.5q45 -12 51 -14q48 32 48 78z" />
<glyph horiz-adv-x="384" d="M29 182q0 63 42 98t105 35q86 0 128.5 -53.5t42.5 -150.5q0 -108 -51 -163t-134 -55q-55 0 -99 23v48q44 -24 98 -24q56 0 93.5 36.5t41.5 116.5q-59 -39 -127 -39q-56 0 -98 33.5t-42 94.5zM179 269q-45 0 -72.5 -20.5t-27.5 -64.5q0 -84 102 -84q66 0 115 43 q-12 126 -117 126z" />
<glyph horiz-adv-x="434" d="M397 580q0 -95 -45.5 -153t-134.5 -58t-134.5 58t-45.5 153t45.5 153t134.5 58t134.5 -58t45.5 -153zM87 580q0 -164 130 -164t130 164t-130 164t-130 -164z" />
<glyph horiz-adv-x="266" d="M137 780h37v-361h74v-47h-216v47h93v308l-87 -32v47z" />
<glyph horiz-adv-x="354" d="M45 752q57 39 131 39q63 0 101 -28.5t38 -80.5q0 -46 -30.5 -78.5t-84.5 -64.5q-4 -2 -18.5 -11t-19 -11.5t-17 -10.5t-16.5 -12t-13.5 -11.5t-13 -13t-8.5 -13.5t-7 -16t-2 -17h233v-47h-287v24q0 44 22.5 79.5t42.5 50t63 39.5q5 3 8 5q62 38 78 56q20 24 20 53 q0 62 -93 62q-65 0 -127 -43v50z" />
<glyph horiz-adv-x="361" d="M310 680q0 -31 -17 -56t-44 -34q77 -24 77 -103q0 -57 -42 -87.5t-107 -30.5q-82 0 -142 27v49q56 -30 138 -30q105 0 105 75q0 73 -99 73h-63v47h57q43 0 66 18t23 48q0 32 -25.5 50.5t-71.5 18.5q-64 0 -123 -31v49q58 28 129 28q63 0 101 -30.5t38 -80.5z" />
<glyph horiz-adv-x="397" d="M243 780h54v-271h77v-46h-77v-91h-49v91h-228v44zM249 509v204l-167 -204h167z" />
<glyph horiz-adv-x="357" d="M61 780h245v-47h-197l-8 -117q37 10 70 10q65 0 110 -32t45 -99q0 -61 -44.5 -95.5t-113.5 -34.5q-75 0 -131 27v48q53 -29 125 -29q52 0 82.5 21.5t30.5 62.5q0 85 -121 85q-55 0 -106 -19z" />
<glyph horiz-adv-x="384" d="M88 591q59 39 128 39q55 0 97 -34t42 -94q0 -63 -41.5 -98t-104.5 -35q-86 0 -129 53.5t-43 150.5q0 108 51 163t134 55q55 0 99 -23v-48q-42 24 -98 24t-93.5 -36.5t-41.5 -116.5zM88 542q12 -127 117 -127q45 0 72.5 20.5t27.5 64.5q0 84 -102 84q-66 0 -115 -42z" />
<glyph horiz-adv-x="317" d="M138 372h-54l162 361h-228v47h282v-45z" />
<glyph horiz-adv-x="399" d="M49 686q0 42 38.5 73.5t110.5 31.5q67 0 108.5 -33t43.5 -79q2 -63 -56 -103q70 -34 70 -96q0 -46 -41.5 -78.5t-121.5 -32.5q-79 0 -122.5 34.5t-43.5 84.5q0 31 17.5 60.5t51.5 49.5q-55 34 -55 88zM204 560q-42 12 -57 18q-62 -30 -62 -84q0 -37 31 -58t87 -21 q49 0 80 17.5t31 45.5q0 23 -15.5 39t-35 23.5t-51.5 17.5q-2 0 -4 0.5t-4 1.5zM301 670q0 31 -27.5 53t-75.5 22q-44 0 -71 -17t-27 -42q0 -10 3 -18.5t6 -14.5t11.5 -12t13 -9t16.5 -8t16.5 -6.5t18.5 -6t17 -5.5q45 -12 51 -14q48 32 48 78z" />
<glyph horiz-adv-x="384" d="M29 658q0 63 42 98t105 35q86 0 128.5 -53.5t42.5 -150.5q0 -108 -51 -163t-134 -55q-55 0 -99 23v48q44 -24 98 -24q56 0 93.5 36.5t41.5 116.5q-59 -39 -127 -39q-56 0 -98 33.5t-42 94.5zM179 745q-45 0 -72.5 -20.5t-27.5 -64.5q0 -84 102 -84q66 0 115 43 q-12 126 -117 126z" />
<glyph horiz-adv-x="623" d="M585 340q0 -157 -71.5 -254t-202.5 -97q-130 0 -201.5 97t-71.5 254t71 254t202 97t202.5 -97t71.5 -254zM98 340q0 -137 55.5 -216t157.5 -79q103 0 158.5 79t55.5 216t-55.5 216t-158.5 79q-102 0 -157.5 -79t-55.5 -216z" />
<glyph horiz-adv-x="623" d="M319 680h43v-623h213v-57h-503v57h231v559l-200 -74v57z" />
<glyph horiz-adv-x="623" d="M82 627q97 64 222 64q109 0 172.5 -46.5t63.5 -128.5q0 -79 -51 -132t-147 -105q-36 -19 -52 -28t-46.5 -28t-45 -34t-32 -36t-25.5 -45t-8 -52l423 1v-57h-488v30q0 48 15 89t35 68t56.5 55t61.5 42.5t68 37.5q91 48 133.5 89t42.5 106q0 56 -47 87.5t-133 31.5 q-114 0 -218 -68v59z" />
<glyph horiz-adv-x="623" d="M532 509q0 -54 -31 -96.5t-84 -56.5q61 -15 102 -58t41 -116q0 -92 -69 -142.5t-181 -50.5q-142 0 -244 47v59q103 -51 239 -50q93 0 145.5 35t52.5 105q0 138 -194 138h-108v57l102 -1q86 -1 128.5 34.5t42.5 90.5q0 59 -47.5 95.5t-136.5 36.5q-110 0 -212 -52v58 q98 49 219 49q109 0 172 -51t63 -131z" />
<glyph horiz-adv-x="623" d="M405 680h65v-466h127v-55h-127v-159h-59v159h-389v53zM411 214v386l-315 -386h315z" />
<glyph horiz-adv-x="623" d="M112 680h415v-57h-359l-15 -234q66 20 145 20q114 0 188.5 -51t74.5 -159q0 -96 -72.5 -153t-190.5 -57q-134 0 -226 46v56q92 -47 219 -47q97 0 153.5 41t56.5 114q0 82 -61 119t-161 37q-96 0 -189 -32z" />
<glyph horiz-adv-x="623" d="M119 333q104 85 229 85q93 0 161 -55.5t68 -155.5q0 -102 -68 -160t-170 -58q-139 0 -209 88.5t-70 247.5q0 184 82.5 275t221.5 91q86 0 156 -38v-56q-71 38 -155 38q-110 0 -177 -72.5t-69 -229.5zM121 272q10 -112 65 -170t149 -58q80 0 131 40.5t51 120.5 q0 81 -51.5 119.5t-131.5 38.5q-125 0 -213 -91z" />
<glyph horiz-adv-x="623" d="M62 680h510v-53l-313 -627h-64l311 623h-444v57z" />
<glyph horiz-adv-x="623" d="M66 521q0 69 63 119.5t181 50.5q112 0 178.5 -54t68.5 -127q1 -54 -26 -101t-78 -79q128 -55 128 -161q0 -75 -68 -127.5t-199 -52.5q-130 0 -201 56t-71 140q0 56 32 106.5t93 82.5q-101 54 -101 147zM316 319q-61 17 -98 31q-56 -25 -86.5 -68t-30.5 -91q0 -67 55 -107 t159 -40q93 0 150 35t57 87q0 27 -11.5 49t-26 35.5t-45 27t-50 20t-59.5 17.5q-9 3 -14 4zM497 500q0 56 -50 96t-139 40q-85 0 -134 -33t-49 -82q0 -27 11.5 -48.5t25.5 -34.5t41.5 -25.5t45 -18.5t50.5 -15q9 -3 14 -4q12 -4 42 -12t46 -13q96 54 96 150z" />
<glyph horiz-adv-x="623" d="M46 473q0 102 67.5 160t169.5 58q139 0 209.5 -89t70.5 -247q0 -184 -82.5 -275t-221.5 -91q-88 0 -156 38v56q71 -38 154 -38q110 0 177 72.5t69 229.5q-103 -85 -228 -85q-93 0 -161 55.5t-68 155.5zM106 475q0 -81 51.5 -119.5t131.5 -38.5q124 0 212 90 q-10 112 -65 170.5t-149 58.5q-80 0 -130.5 -41t-50.5 -120z" />
<glyph horiz-adv-x="623" d="M590 260q0 -108 -74.5 -189.5t-204.5 -81.5t-204 81.5t-74 189.5t74 189.5t204 81.5t204.5 -81.5t74.5 -189.5zM93 260q0 -88 58 -151.5t160 -63.5q103 0 161 63.5t58 151.5t-58 151.5t-161 63.5q-102 0 -160 -63.5t-58 -151.5z" />
<glyph horiz-adv-x="623" d="M318 520h43v-463h213v-57h-503v57h231v399l-200 -74v57z" />
<glyph horiz-adv-x="623" d="M550 0h-481v37q0 37 16 67.5t37.5 50t57.5 36.5t62.5 26t65.5 20q93 25 133 51t40 77t-46.5 81t-128.5 30q-116 0 -216 -68v59q93 64 220 64q106 0 168.5 -45t62.5 -121q0 -73 -52.5 -110t-160.5 -69q-34 -10 -55 -17.5t-50.5 -20t-46.5 -25t-29.5 -30t-12.5 -37.5l416 1 v-57z" />
<glyph horiz-adv-x="623" d="M527 349q0 -54 -30.5 -96.5t-83.5 -56.5q60 -15 101 -58t41 -116q0 -92 -68.5 -142.5t-178.5 -50.5q-144 0 -240 44v59q97 -48 236 -47q90 0 142 35t52 105q0 138 -191 138h-104v57l98 -1q84 -1 126.5 35t42.5 90q0 59 -47.5 95.5t-134.5 36.5q-111 0 -208 -49v58 q94 46 216 46q106 0 168.5 -51t62.5 -131z" />
<glyph horiz-adv-x="623" d="M401 520h65v-466h132v-55h-132v-159h-59v159h-389v53zM407 54v386l-315 -386h315z" />
<glyph horiz-adv-x="623" d="M116 520h409v-57h-353l-15 -234q66 20 144 20q52 0 96.5 -11.5t81.5 -35.5t58 -65.5t21 -97.5q0 -96 -71.5 -153t-186.5 -57q-132 0 -224 46v56q92 -47 218 -47q94 0 149 41t55 114q0 82 -60 119t-157 37q-94 0 -187 -32z" />
<glyph horiz-adv-x="623" d="M119 333q104 85 229 85q93 0 161 -55.5t68 -155.5q0 -102 -68 -160t-170 -58q-139 0 -209 88.5t-70 247.5q0 184 82.5 275t221.5 91q86 0 156 -38v-56q-71 38 -155 38q-110 0 -177 -72.5t-69 -229.5zM121 272q10 -112 65 -170t149 -58q80 0 131 40.5t51 120.5 q0 81 -51.5 119.5t-131.5 38.5q-125 0 -213 -91z" />
<glyph horiz-adv-x="623" d="M61 520h510v-53l-313 -627h-64l311 623h-444v57z" />
<glyph horiz-adv-x="623" d="M66 521q0 69 63 119.5t181 50.5q112 0 178.5 -54t68.5 -127q1 -54 -26 -101t-78 -79q128 -55 128 -161q0 -75 -68 -127.5t-199 -52.5q-130 0 -201 56t-71 140q0 56 32 106.5t93 82.5q-101 54 -101 147zM317 319q-61 17 -98 31q-56 -25 -86.5 -68t-30.5 -91q0 -67 55 -107 t159 -40q93 0 150 35t57 87q0 27 -11.5 49t-26 35.5t-45 27t-50 20t-59.5 17.5q-9 3 -14 4zM498 500q0 56 -50 96t-139 40q-85 0 -134 -33t-49 -82q0 -27 11.5 -48.5t25.5 -34.5t41.5 -25.5t45 -18.5t50.5 -15q9 -3 14 -4q12 -4 42 -12t46 -13q96 54 96 150z" />
<glyph horiz-adv-x="623" d="M46 313q0 102 67.5 160t169.5 58q139 0 209.5 -89t70.5 -247q0 -184 -82.5 -275t-221.5 -91q-88 0 -156 38v56q71 -38 154 -38q110 0 177 72.5t69 229.5q-103 -85 -228 -85q-93 0 -161 55.5t-68 155.5zM106 315q0 -81 51.5 -119.5t131.5 -38.5q124 0 212 90 q-10 112 -65 170.5t-149 58.5q-80 0 -130.5 -41t-50.5 -120z" />
<glyph horiz-adv-x="434" d="M397 204q0 -95 -45.5 -153t-134.5 -58t-134.5 58t-45.5 153t45.5 153t134.5 58t134.5 -58t45.5 -153zM87 204q0 -164 130 -164t130 164t-130 164t-130 -164z" />
<glyph horiz-adv-x="266" d="M137 408h37v-361h74v-47h-216v47h93v308l-87 -32v47z" />
<glyph horiz-adv-x="353" d="M45 376q57 39 131 39q63 0 101 -28.5t38 -80.5q0 -46 -30.5 -78.5t-84.5 -64.5q-4 -2 -18.5 -11t-19 -11.5t-17 -10.5t-16.5 -12t-13.5 -11.5t-13 -13t-8.5 -13.5t-7 -16t-2 -17h233v-47h-287v24q0 44 22.5 79.5t42.5 50t63 39.5q5 3 8 5q62 38 78 56q20 24 20 53 q0 62 -93 62q-65 0 -127 -43v50z" />
<glyph horiz-adv-x="361" d="M310 304q0 -31 -17 -56t-44 -34q77 -24 77 -103q0 -57 -42 -87.5t-107 -30.5q-82 0 -142 27v49q56 -30 138 -30q105 0 105 75q0 73 -99 73h-63v47h57q43 0 66 18t23 48q0 32 -25.5 50.5t-71.5 18.5q-64 0 -123 -31v49q58 28 129 28q63 0 101 -30.5t38 -80.5z" />
<glyph horiz-adv-x="397" d="M243 408h54v-271h77v-46h-77v-91h-49v91h-228v44zM249 137v204l-167 -204h167z" />
<glyph horiz-adv-x="357" d="M61 408h245v-47h-197l-8 -117q37 10 70 10q65 0 110 -32t45 -99q0 -61 -44.5 -95.5t-113.5 -34.5q-75 0 -131 27v48q53 -29 125 -29q52 0 82.5 21.5t30.5 62.5q0 85 -121 85q-55 0 -106 -19z" />
<glyph horiz-adv-x="384" d="M88 215q59 39 128 39q55 0 97 -34t42 -94q0 -63 -41.5 -98t-104.5 -35q-86 0 -129 53.5t-43 150.5q0 108 51 163t134 55q55 0 99 -23v-48q-42 24 -98 24t-93.5 -36.5t-41.5 -116.5zM88 166q12 -127 117 -127q45 0 72.5 20.5t27.5 64.5q0 84 -102 84q-66 0 -115 -42z" />
<glyph horiz-adv-x="317" d="M138 0h-54l162 361h-228v47h282v-45z" />
<glyph horiz-adv-x="399" d="M49 310q0 42 38.5 73.5t110.5 31.5q67 0 108.5 -33t43.5 -79q2 -63 -56 -103q70 -34 70 -96q0 -46 -41.5 -78.5t-121.5 -32.5q-79 0 -122.5 34.5t-43.5 84.5q0 31 17.5 60.5t51.5 49.5q-55 34 -55 88zM204 184q-42 12 -57 18q-62 -30 -62 -84q0 -37 31 -58t87 -21 q49 0 80 17.5t31 45.5q0 23 -15.5 39t-35 23.5t-51.5 17.5q-5 1 -8 2zM301 294q0 31 -27.5 53t-75.5 22q-44 0 -71 -17t-27 -42q0 -10 3 -18.5t6 -14.5t11.5 -12t13 -9t16.5 -8t16.5 -6.5t18.5 -6t17 -5.5q45 -12 51 -14q48 32 48 78z" />
<glyph horiz-adv-x="384" d="M29 282q0 63 42 98t105 35q86 0 128.5 -53.5t42.5 -150.5q0 -108 -51 -163t-134 -55q-55 0 -99 23v48q44 -24 98 -24q56 0 93.5 36.5t41.5 116.5q-59 -39 -127 -39q-56 0 -98 33.5t-42 94.5zM179 369q-45 0 -72.5 -20.5t-27.5 -64.5q0 -84 102 -84q66 0 115 43 q-12 126 -117 126z" />
<glyph horiz-adv-x="434" d="M397 480q0 -95 -45.5 -153t-134.5 -58t-134.5 58t-45.5 153t45.5 153t134.5 58t134.5 -58t45.5 -153zM87 480q0 -164 130 -164t130 164t-130 164t-130 -164z" />
<glyph horiz-adv-x="266" d="M137 680h37v-361h74v-47h-216v47h93v308l-87 -32v47z" />
<glyph horiz-adv-x="354" d="M45 652q57 39 131 39q63 0 101 -28.5t38 -80.5q0 -46 -30.5 -78.5t-84.5 -64.5q-4 -2 -18.5 -11t-19 -11.5t-17 -10.5t-16.5 -12t-13.5 -11.5t-13 -13t-8.5 -13.5t-7 -16t-2 -17h233v-47h-287v24q0 44 22.5 79.5t42.5 50t63 39.5q5 3 8 5q62 38 78 56q20 24 20 53 q0 62 -93 62q-65 0 -127 -43v50z" />
<glyph horiz-adv-x="361" d="M310 580q0 -31 -17 -56t-44 -34q77 -24 77 -103q0 -57 -42 -87.5t-107 -30.5q-82 0 -142 27v49q56 -30 138 -30q105 0 105 75q0 73 -99 73h-63v47h57q43 0 66 18t23 48q0 32 -25.5 50.5t-71.5 18.5q-64 0 -123 -31v49q58 28 129 28q63 0 101 -30.5t38 -80.5z" />
<glyph horiz-adv-x="397" d="M243 680h54v-271h77v-46h-77v-91h-49v91h-228v44zM249 409v204l-167 -204h167z" />
<glyph horiz-adv-x="357" d="M61 680h245v-47h-197l-8 -117q37 10 70 10q65 0 110 -32t45 -99q0 -61 -44.5 -95.5t-113.5 -34.5q-75 0 -131 27v48q53 -29 125 -29q52 0 82.5 21.5t30.5 62.5q0 85 -121 85q-55 0 -106 -19z" />
<glyph horiz-adv-x="384" d="M88 491q59 39 128 39q55 0 97 -34t42 -94q0 -63 -41.5 -98t-104.5 -35q-86 0 -129 53.5t-43 150.5q0 108 51 163t134 55q55 0 99 -23v-48q-42 24 -98 24t-93.5 -36.5t-41.5 -116.5zM88 442q12 -127 117 -127q45 0 72.5 20.5t27.5 64.5q0 84 -102 84q-66 0 -115 -42z" />
<glyph horiz-adv-x="317" d="M138 272h-54l162 361h-228v47h282v-45z" />
<glyph horiz-adv-x="399" d="M49 586q0 42 38.5 73.5t110.5 31.5q67 0 108.5 -33t43.5 -79q2 -63 -56 -103q70 -34 70 -96q0 -46 -41.5 -78.5t-121.5 -32.5q-79 0 -122.5 34.5t-43.5 84.5q0 31 17.5 60.5t51.5 49.5q-55 34 -55 88zM204 460q-42 12 -57 18q-62 -30 -62 -84q0 -37 31 -58t87 -21 q49 0 80 17.5t31 45.5q0 23 -15.5 39t-35 23.5t-51.5 17.5q-2 0 -4 0.5t-4 1.5zM301 570q0 31 -27.5 53t-75.5 22q-44 0 -71 -17t-27 -42q0 -10 3 -18.5t6 -14.5t11.5 -12t13 -9t16.5 -8t16.5 -6.5t18.5 -6t17 -5.5q45 -12 51 -14q48 32 48 78z" />
<glyph horiz-adv-x="384" d="M29 558q0 63 42 98t105 35q86 0 128.5 -53.5t42.5 -150.5q0 -108 -51 -163t-134 -55q-55 0 -99 23v48q44 -24 98 -24q56 0 93.5 36.5t41.5 116.5q-59 -39 -127 -39q-56 0 -98 33.5t-42 94.5zM179 645q-45 0 -72.5 -20.5t-27.5 -64.5q0 -84 102 -84q66 0 115 43 q-12 126 -117 126z" />
<glyph horiz-adv-x="761" d="M692 323h-623v54h623v-54z" />
<glyph horiz-adv-x="575" d="M506 323h-437v54h437v-54z" />
<glyph horiz-adv-x="489" d="M69 377h351v-54h-351v54z" />
<glyph horiz-adv-x="478" d="M410 173h-61l-121 171v12l121 171h61l-125 -177zM238 173h-61l-121 171v12l121 171h61l-125 -177z" />
<glyph horiz-adv-x="477" d="M300 173h-61l125 177l-125 177h61l121 -171v-12zM129 173h-61l125 177l-125 177h61l121 -171v-12z" />
<glyph horiz-adv-x="306" d="M238 173h-61l-121 171v12l121 171h61l-125 -177z" />
<glyph horiz-adv-x="306" d="M129 173h-61l125 177l-125 177h61l121 -171v-12z" />
<glyph horiz-adv-x="623" d="M381 41q74 5 133 39v-57q-60 -30 -133 -33v-110h-50v110q-94 8 -160 72t-66 175q0 113 66 177.5t160 74.5v111h50v-109q79 -5 128 -39v-55q-51 39 -128 42v-398zM331 436q-73 -12 -121 -61.5t-48 -136.5q0 -85 48 -134.5t121 -60.5v393z" />
<glyph horiz-adv-x="623" d="M197 194l-84 -84l-40 40l82 82q-41 47 -41 118t41 118l-82 82l40 40l84 -84q48 33 114 33t114 -33l84 84l40 -40l-82 -82q41 -47 41 -118t-41 -118l82 -82l-40 -40l-84 84q-48 -33 -114 -33t-114 33zM170 350q0 -62 39.5 -99t100.5 -37t101 37t40 99t-40 99t-101 37 t-100.5 -37t-39.5 -99z" />
<glyph horiz-adv-x="623" d="M336 -130h-50v120q-118 8 -209 58v59q106 -62 241 -62q186 0 186 118q0 42 -24 71.5t-62 46.5t-84 30.5t-91.5 29t-83.5 35.5t-62 56t-24 86q0 81 60 124.5t152 48.5v119h50v-119q102 -6 178 -49v-60q-84 53 -202 53q-178 0 -178 -115q0 -40 24 -68t62 -44t83.5 -29.5 t91.5 -29t84 -36.5t62 -58t24 -88q0 -90 -63.5 -133t-164.5 -45v-119z" />
<glyph horiz-adv-x="623" d="M171 246q29 -96 113.5 -148.5t186.5 -52.5q60 0 119 19v-55q-63 -20 -131 -20q-120 0 -220.5 68t-129.5 189h-89v50h80q-2 26 -2 41q0 25 3 47h-81v50h90q31 120 129.5 188.5t214.5 68.5q68 0 131 -20v-55q-59 19 -119 19q-97 0 -180 -53t-113 -148h320v-50h-332 q-3 -22 -3 -47q0 -15 2 -41h333v-50h-322z" />
<glyph horiz-adv-x="623" d="M577 0h-537v57h41q31 0 49 22.5t18 59.5v170h-76v55h76v97q0 116 67 173t171 57q83 0 146 -38v-57q-64 40 -139 40q-83 0 -134 -43t-51 -133v-96h236v-55h-236v-170q0 -62 -32 -82h401v-57z" />
<glyph horiz-adv-x="623" d="M530 680h66l-228 -364h151v-50h-178v-73h178v-50h-178v-143h-59v143h-176v50h176v73h-176v50h150l-229 364h66l219 -353z" />
</font>
</defs>
</svg>
